<svg width="9" height="14" viewBox="0 0 9 14" fill="none" xmlns="http://www.w3.org/2000/svg">
<path d="M4.08352 0.333313V5.24127C4.08352 5.2621 4.06268 5.28294 4.04185 5.28294C3.89601 5.34663 3.771 5.40973 3.62516 5.47283C3.43765 5.55676 3.22931 5.64129 3.0418 5.74665L2.35427 6.06214L1.79175 6.31513L1.10422 6.63121C0.916708 6.71574 0.729199 6.79967 0.520857 6.90504C0.375017 6.96813 0.208343 7.05266 0.0625028 7.11576C0.0416685 7.11576 0.0416685 7.13659 0.0208343 7.11576H0C0.0625028 7.0104 0.125006 6.92587 0.187508 6.8211C0.520857 6.25203 0.875039 5.68355 1.20839 5.11448C1.56257 4.50433 1.93759 3.893 2.29177 3.28225C2.62512 2.71378 2.95847 2.1453 3.29181 1.59766C3.54183 1.17561 3.79184 0.77619 4.02101 0.354147C4.06268 0.354147 4.06268 0.333313 4.08352 0.333313C4.06268 0.333313 4.08352 0.333313 4.08352 0.333313Z" fill="#8C8C8C"/>
<path d="M8.12533 7.1158C7.81282 7.32652 7.47947 7.51582 7.16696 7.70511C6.14608 8.31645 5.14603 8.90636 4.12516 9.5171C4.10432 9.5171 4.10432 9.53793 4.08349 9.53793C4.06265 9.53793 4.06265 9.5171 4.06265 9.5171V5.28298C4.06265 5.26215 4.08349 5.26215 4.10432 5.26215C4.18766 5.30381 4.271 5.34667 4.37517 5.38834C4.62518 5.51513 4.89602 5.6205 5.14603 5.74669C5.37521 5.85205 5.58355 5.95742 5.81273 6.04135C6.04191 6.14671 6.25025 6.25207 6.47943 6.35743C6.66694 6.44196 6.87528 6.52589 7.06279 6.63125C7.2503 6.71578 7.45864 6.79971 7.64615 6.90508C7.79199 6.96817 7.93783 7.0527 8.1045 7.1158C8.1045 7.09497 8.1045 7.1158 8.12533 7.1158Z" fill="#141414"/>
<path d="M4.08353 13.6666C4.08353 13.6666 4.06269 13.6666 4.08353 13.6666C4.06269 13.6666 4.06269 13.6666 4.04186 13.6452C3.62517 13.0559 3.22932 12.4868 2.81264 11.8969L1.56258 10.1278C1.16673 9.55931 0.750043 8.99083 0.354192 8.40033L0.0416778 7.95805C0.0416778 7.93722 0.0208435 7.93722 0.0208435 7.91638C0.0416778 7.91638 0.0416778 7.93722 0.062512 7.93722C0.625037 8.27414 1.2084 8.61106 1.77092 8.94798C2.41678 9.34859 3.08348 9.72777 3.72934 10.1278C3.83351 10.1909 3.95852 10.254 4.06269 10.3171C4.08353 10.3171 4.08353 10.3385 4.08353 10.3593V13.6666Z" fill="#8C8C8C"/>
<path d="M0 6.89532C0 6.87449 0 6.87449 0 6.89532C0.208343 6.78996 0.416685 6.70603 0.625028 6.60067L1.43756 6.22148C1.64591 6.11612 1.85425 6.03219 2.06259 5.92683C2.35427 5.7792 2.66679 5.65301 2.95847 5.50538C3.16681 5.42085 3.37515 5.31549 3.58349 5.23156C3.72933 5.16846 3.87517 5.10536 4.02101 5.02083C4.04185 5.02083 4.04185 5 4.06268 5V9.29662C4.04185 9.31805 4.04185 9.29662 4.02101 9.29662C3.95851 9.25495 3.89601 9.23352 3.85434 9.19126L0.0416685 6.91675C0.0208343 6.89532 0 6.89532 0 6.89532ZM8.06286 7.67512C8.06286 7.69595 8.06286 7.69595 8.04203 7.71679C6.83364 9.44425 5.62525 11.1503 4.41686 12.8777C4.29186 13.067 4.16685 13.2355 4.04185 13.4254V10.0758C4.31269 9.90736 4.58354 9.7389 4.85438 9.59187L8.04203 7.69595C8.04203 7.67512 8.06286 7.67512 8.06286 7.67512Z" fill="#3C3C3B"/>
<path d="M4.08353 5.26211V0.355347L8.08371 7.05326C8.10454 7.0741 8.12537 7.09493 8.12537 7.11636C8.04204 7.07469 7.9587 7.03184 7.85453 6.99017C7.75036 6.9479 7.64619 6.88481 7.54202 6.84254C7.47951 6.82171 7.41701 6.77944 7.33367 6.75801C7.2295 6.71635 7.1045 6.65265 7.00032 6.61098C6.93782 6.58955 6.87532 6.54789 6.81282 6.52646L6.3753 6.33716C6.29196 6.2949 6.22946 6.27406 6.14612 6.2318C6.04195 6.18954 5.93778 6.12644 5.83361 6.08417C5.7711 6.06334 5.7086 6.02108 5.6461 6.00024L5.20858 5.81035C5.12524 5.76868 5.06274 5.74725 4.9794 5.70499C4.87523 5.66332 4.77106 5.59963 4.66689 5.55736C4.60438 5.5157 4.52105 5.49427 4.45854 5.4526L4.08353 5.26271V5.26211Z" fill="#343434"/>
</svg>
