<svg width="48" height="48" viewBox="0 0 48 48" fill="none" xmlns="http://www.w3.org/2000/svg">
<rect width="48" height="48" rx="8" fill="#F3F4F6"/>
<path d="M28 20V16.5007C28 15.6689 28 15.2531 27.8248 14.9975C27.6717 14.7742 27.4346 14.6225 27.1678 14.5771C26.8623 14.5251 26.4847 14.6994 25.7295 15.0479L16.859 19.142C16.1855 19.4529 15.8488 19.6083 15.6021 19.8493C15.3841 20.0624 15.2176 20.3226 15.1155 20.6098C15 20.9348 15 21.3057 15 22.0475V27M28.5 26.5H28.51M15 23.2L15 29.8C15 30.9201 15 31.4802 15.218 31.908C15.4097 32.2843 15.7157 32.5903 16.092 32.782C16.5198 33 17.0799 33 18.2 33H29.8C30.9201 33 31.4802 33 31.908 32.782C32.2843 32.5903 32.5903 32.2843 32.782 31.908C33 31.4802 33 30.9201 33 29.8V23.2C33 22.0799 33 21.5199 32.782 21.092C32.5903 20.7157 32.2843 20.4097 31.908 20.218C31.4802 20 30.9201 20 29.8 20L18.2 20C17.0799 20 16.5198 20 16.092 20.218C15.7157 20.4097 15.4097 20.7157 15.218 21.092C15 21.5199 15 22.0799 15 23.2ZM29 26.5C29 26.7762 28.7761 27 28.5 27C28.2239 27 28 26.7762 28 26.5C28 26.2239 28.2239 26 28.5 26C28.7761 26 29 26.2239 29 26.5Z" stroke="#2D2D2C" stroke-width="2" stroke-linecap="round" stroke-linejoin="round"/>
</svg>
