<svg width="80" height="80" viewBox="0 0 80 80" fill="none" xmlns="http://www.w3.org/2000/svg">
<rect width="80" height="80" rx="40" fill="#F1F1EF"/>
<path d="M36.0007 38L38.6673 40.6667L44.6673 34.6667M50.6673 52V34.4C50.6673 32.1598 50.6673 31.0397 50.2313 30.184C49.8478 29.4314 49.2359 28.8195 48.4833 28.436C47.6276 28 46.5075 28 44.2673 28H35.734C33.4938 28 32.3737 28 31.518 28.436C30.7654 28.8195 30.1535 29.4314 29.77 30.184C29.334 31.0397 29.334 32.1598 29.334 34.4V52L33.0007 49.3333L36.334 52L40.0007 49.3333L43.6673 52L47.0006 49.3333L50.6673 52Z" stroke="#989796" stroke-width="2.5" stroke-linecap="round" stroke-linejoin="round"/>
</svg>
