<svg width="80" height="80" viewBox="0 0 80 80" fill="none" xmlns="http://www.w3.org/2000/svg">
<rect width="80" height="80" rx="40" fill="#F1F1EF"/>
<path d="M42.0393 35.1361C41.2761 35.6803 40.3421 36.0003 39.3333 36.0003C36.756 36.0003 34.6666 33.911 34.6666 31.3337C34.6666 28.7563 36.756 26.667 39.3333 26.667C41.0039 26.667 42.4696 27.5449 43.294 28.8645M32 50.7832H35.4803C35.9341 50.7832 36.3851 50.8372 36.825 50.9452L40.5025 51.8388C41.3004 52.0332 42.1317 52.0521 42.9379 51.8955L47.0039 51.1045C48.078 50.8952 49.0661 50.3809 49.8404 49.6277L52.7171 46.8293C53.5387 46.0315 53.5387 44.7369 52.7171 43.9377C51.9775 43.2182 50.8063 43.1372 49.9695 43.7474L46.6168 46.1935C46.1366 46.5444 45.5524 46.7334 44.9515 46.7334H41.714L43.7747 46.7333C44.9362 46.7333 45.8771 45.8181 45.8771 44.6882V44.2792C45.8771 43.341 45.2207 42.5229 44.2854 42.2962L41.1048 41.5226C40.5871 41.3971 40.057 41.3337 39.5241 41.3337C38.2377 41.3337 35.9092 42.3987 35.9092 42.3987L32 44.0335M50.6666 32.667C50.6666 35.2443 48.5773 37.3337 46 37.3337C43.4226 37.3337 41.3333 35.2443 41.3333 32.667C41.3333 30.0897 43.4226 28.0003 46 28.0003C48.5773 28.0003 50.6666 30.0897 50.6666 32.667ZM26.6666 43.467L26.6666 51.2003C26.6666 51.9471 26.6666 52.3204 26.812 52.6056C26.9398 52.8565 27.1438 53.0605 27.3946 53.1883C27.6799 53.3337 28.0532 53.3337 28.8 53.3337H29.8666C30.6134 53.3337 30.9867 53.3337 31.2719 53.1883C31.5228 53.0605 31.7268 52.8565 31.8546 52.6056C32 52.3204 32 51.9471 32 51.2003V43.467C32 42.7203 32 42.3469 31.8546 42.0617C31.7268 41.8108 31.5228 41.6068 31.2719 41.479C30.9867 41.3337 30.6134 41.3337 29.8666 41.3337L28.8 41.3337C28.0532 41.3337 27.6799 41.3337 27.3946 41.479C27.1438 41.6068 26.9398 41.8108 26.812 42.0617C26.6666 42.3469 26.6666 42.7203 26.6666 43.467Z" stroke="#989796" stroke-width="2.5" stroke-linecap="round" stroke-linejoin="round"/>
</svg>
