<svg width="40" height="40" viewBox="0 0 40 40" fill="none" xmlns="http://www.w3.org/2000/svg">
<path d="M0 20C0 8.95431 8.95431 0 20 0C31.0457 0 40 8.95431 40 20C40 31.0457 31.0457 40 20 40C8.95431 40 0 31.0457 0 20Z" fill="#E7F9F3"/>
<path fill-rule="evenodd" clip-rule="evenodd" d="M15 20C17.7614 20 20 17.7614 20 15C20 17.7614 22.2386 20 25 20C22.2386 20 20 22.2386 20 25C20 22.2386 17.7614 20 15 20ZM15 20C12.2386 20 10 22.2386 10 25C10 27.7614 12.2386 30 15 30C17.7614 30 20 27.7614 20 25C20 27.7614 22.2386 30 25 30C27.7614 30 30 27.7614 30 25C30 22.2386 27.7614 20 25 20C27.7614 20 30 17.7614 30 15C30 12.2386 27.7614 10 25 10C22.2386 10 20 12.2386 20 15C20 12.2386 17.7614 10 15 10C12.2386 10 10 12.2386 10 15C10 17.7614 12.2386 20 15 20Z" fill="#216E55"/>
</svg>
