<svg width="16" height="16" viewBox="0 0 16 16" fill="none" xmlns="http://www.w3.org/2000/svg">
<g clip-path="url(#clip0_489_13294)">
<path d="M6.00016 8.00001L7.3335 9.33334L10.3335 6.33334M6.13476 13.7339C6.35326 13.705 6.57399 13.7643 6.74805 13.8984L7.5502 14.5139C7.81536 14.7176 8.18422 14.7176 8.44864 14.5139L9.28117 13.8747C9.43671 13.7554 9.63299 13.7028 9.82705 13.7287L10.8684 13.8658C11.1995 13.9095 11.5188 13.725 11.6469 13.4162L12.0476 12.4473C12.1224 12.2658 12.2661 12.1221 12.4476 12.0473L13.4164 11.6466C13.7252 11.5192 13.9097 11.1992 13.866 10.8681L13.7341 9.8644C13.7052 9.64589 13.7645 9.42516 13.8986 9.25109L14.5141 8.44889C14.7178 8.18371 14.7178 7.81483 14.5141 7.55039L13.8749 6.71782C13.7556 6.56227 13.703 6.36598 13.7289 6.17191L13.866 5.13046C13.9097 4.79936 13.7252 4.48011 13.4164 4.35196L12.4476 3.95123C12.2661 3.87642 12.1224 3.73272 12.0476 3.55124L11.6469 2.58238C11.5195 2.2735 11.1995 2.08906 10.8684 2.13277L9.82705 2.2698C9.63299 2.29646 9.43671 2.24387 9.28191 2.12536L8.44938 1.48612C8.18422 1.28242 7.81536 1.28242 7.55094 1.48612L6.71842 2.12536C6.56288 2.24387 6.3666 2.29646 6.17254 2.27128L5.13114 2.13425C4.80006 2.09054 4.48083 2.27498 4.35269 2.58386L3.95272 3.55273C3.87717 3.73346 3.73348 3.87716 3.55276 3.95272L2.58395 4.3527C2.27508 4.48085 2.09066 4.8001 2.13436 5.1312L2.27138 6.17265C2.29656 6.36672 2.24398 6.56301 2.12547 6.71782L1.48626 7.55039C1.28257 7.81557 1.28257 8.18445 1.48626 8.44889L2.12547 9.28146C2.24472 9.43701 2.2973 9.6333 2.27138 9.82737L2.13436 10.8688C2.09066 11.1999 2.27508 11.5192 2.58395 11.6473L3.55276 12.048C3.73422 12.1229 3.87791 12.2666 3.95272 12.448L4.35343 13.4169C4.48083 13.7258 4.8008 13.9102 5.13188 13.8665L6.13476 13.7339Z" stroke="#00A3FF" stroke-width="1.5" stroke-linecap="round" stroke-linejoin="round"/>
</g>
<defs>
<clipPath id="clip0_489_13294">
<rect width="16" height="16" fill="white"/>
</clipPath>
</defs>
</svg>
