<svg width="81" height="80" viewBox="0 0 81 80" fill="none" xmlns="http://www.w3.org/2000/svg">
<rect x="0.666016" width="80" height="80" rx="40" fill="#F2F4F7"/>
<path d="M39.333 29.9998H49.0663C50.5598 29.9998 51.3066 29.9998 51.877 30.2905C52.3788 30.5461 52.7867 30.9541 53.0424 31.4559C53.333 32.0263 53.333 32.773 53.333 34.2665V35.9998C53.333 37.2423 53.333 37.8636 53.13 38.3537C52.8594 39.0071 52.3402 39.5262 51.6868 39.7968C51.1968 39.9998 50.5755 39.9998 49.333 39.9998M41.9997 49.9998H32.2663C30.7729 49.9998 30.0261 49.9998 29.4557 49.7092C28.9539 49.4535 28.546 49.0456 28.2903 48.5438C27.9997 47.9734 27.9997 47.2266 27.9997 45.7332V43.9998C27.9997 42.7573 27.9997 42.1361 28.2027 41.646C28.4733 40.9926 28.9924 40.4735 29.6459 40.2028C30.1359 39.9998 30.7572 39.9998 31.9997 39.9998M38.3997 43.3332H42.933C43.3064 43.3332 43.4931 43.3332 43.6357 43.2605C43.7611 43.1966 43.8631 43.0946 43.927 42.9692C43.9997 42.8266 43.9997 42.6399 43.9997 42.2665V37.7332C43.9997 37.3598 43.9997 37.1731 43.927 37.0305C43.8631 36.9051 43.7611 36.8031 43.6357 36.7392C43.4931 36.6665 43.3064 36.6665 42.933 36.6665H38.3997C38.0263 36.6665 37.8396 36.6665 37.697 36.7392C37.5716 36.8031 37.4696 36.9051 37.4057 37.0305C37.333 37.1731 37.333 37.3598 37.333 37.7332V42.2665C37.333 42.6399 37.333 42.8266 37.4057 42.9692C37.4696 43.0946 37.5716 43.1966 37.697 43.2605C37.8396 43.3332 38.0263 43.3332 38.3997 43.3332ZM48.3997 53.3332H52.933C53.3064 53.3332 53.4931 53.3332 53.6357 53.2605C53.7611 53.1966 53.8631 53.0946 53.927 52.9692C53.9997 52.8266 53.9997 52.6399 53.9997 52.2665V47.7332C53.9997 47.3598 53.9997 47.1731 53.927 47.0305C53.8631 46.9051 53.7611 46.8031 53.6357 46.7392C53.4931 46.6665 53.3064 46.6665 52.933 46.6665H48.3997C48.0263 46.6665 47.8396 46.6665 47.697 46.7392C47.5716 46.8031 47.4696 46.9051 47.4057 47.0305C47.333 47.1731 47.333 47.3598 47.333 47.7332V52.2665C47.333 52.6399 47.333 52.8266 47.4057 52.9692C47.4696 53.0946 47.5716 53.1966 47.697 53.2605C47.8396 53.3332 48.0263 53.3332 48.3997 53.3332ZM28.3997 33.3332H32.933C33.3064 33.3332 33.4931 33.3332 33.6357 33.2605C33.7611 33.1966 33.8631 33.0946 33.927 32.9692C33.9997 32.8266 33.9997 32.6399 33.9997 32.2665V27.7332C33.9997 27.3598 33.9997 27.1731 33.927 27.0305C33.8631 26.9051 33.7611 26.8031 33.6357 26.7392C33.4931 26.6665 33.3064 26.6665 32.933 26.6665H28.3997C28.0263 26.6665 27.8396 26.6665 27.697 26.7392C27.5716 26.8031 27.4696 26.9051 27.4057 27.0305C27.333 27.1731 27.333 27.3598 27.333 27.7332V32.2665C27.333 32.6399 27.333 32.8266 27.4057 32.9692C27.4696 33.0946 27.5716 33.1966 27.697 33.2605C27.8396 33.3332 28.0263 33.3332 28.3997 33.3332Z" stroke="#98A2B3" stroke-width="2.5" stroke-linecap="round" stroke-linejoin="round"/>
</svg>
