<svg width="44" height="44" viewBox="0 0 44 44" fill="none" xmlns="http://www.w3.org/2000/svg">
<rect width="44" height="44" rx="22" fill="#F9E8E8"/>
<path fill-rule="evenodd" clip-rule="evenodd" d="M16.4111 16.4106C16.7365 16.0851 17.2641 16.0851 17.5896 16.4106L22.0003 20.8213L26.4111 16.4106C26.7365 16.0851 27.2641 16.0851 27.5896 16.4106C27.915 16.736 27.915 17.2637 27.5896 17.5891L23.1788 21.9998L27.5896 26.4106C27.915 26.736 27.915 27.2637 27.5896 27.5891C27.2641 27.9145 26.7365 27.9145 26.4111 27.5891L22.0003 23.1783L17.5896 27.5891C17.2641 27.9145 16.7365 27.9145 16.4111 27.5891C16.0856 27.2637 16.0856 26.736 16.4111 26.4106L20.8218 21.9998L16.4111 17.5891C16.0856 17.2637 16.0856 16.736 16.4111 16.4106Z" fill="#B41414"/>
</svg>
