<svg width="32" height="32" viewBox="0 0 32 32" fill="none" xmlns="http://www.w3.org/2000/svg">
<path d="M18.6663 3.02539V8.53278C18.6663 9.27951 18.6663 9.65288 18.8117 9.9381C18.9395 10.189 19.1435 10.393 19.3944 10.5208C19.6796 10.6661 20.0529 10.6661 20.7997 10.6661H26.3071M18.6663 22.666H10.6663M21.333 17.3327H10.6663M26.6663 13.317V22.9327C26.6663 25.1729 26.6663 26.293 26.2304 27.1486C25.8469 27.9013 25.235 28.5132 24.4823 28.8967C23.6267 29.3327 22.5066 29.3327 20.2663 29.3327H11.733C9.4928 29.3327 8.37269 29.3327 7.51705 28.8967C6.7644 28.5132 6.15248 27.9013 5.76898 27.1486C5.33301 26.293 5.33301 25.1729 5.33301 22.9327V9.06602C5.33301 6.82581 5.33301 5.7057 5.76898 4.85005C6.15248 4.09741 6.7644 3.48548 7.51705 3.10199C8.37269 2.66602 9.4928 2.66602 11.733 2.66602H16.0154C16.9937 2.66602 17.4829 2.66602 17.9433 2.77654C18.3514 2.87452 18.7416 3.03614 19.0995 3.25545C19.5031 3.50282 19.8491 3.84873 20.5409 4.54053L24.7918 8.7915C25.4836 9.48331 25.8295 9.82921 26.0769 10.2329C26.2962 10.5908 26.4578 10.9809 26.5558 11.3891C26.6663 11.8494 26.6663 12.3386 26.6663 13.317Z" stroke="#777675" stroke-width="3.5" stroke-linecap="round" stroke-linejoin="round"/>
</svg>
