<svg width="32" height="32" viewBox="0 0 32 32" fill="none" xmlns="http://www.w3.org/2000/svg">
<path d="M18.6667 3.02637V8.53376C18.6667 9.28049 18.6667 9.65386 18.812 9.93907C18.9399 10.19 19.1438 10.3939 19.3947 10.5218C19.6799 10.6671 20.0533 10.6671 20.8 10.6671H26.3074M16 24.0003V16.0003M12 20.0003H20M18.6667 2.66699H11.7334C9.49316 2.66699 8.37306 2.66699 7.51741 3.10297C6.76476 3.48646 6.15284 4.09838 5.76935 4.85103C5.33337 5.70668 5.33337 6.82678 5.33337 9.06699V22.9337C5.33337 25.1739 5.33337 26.294 5.76935 27.1496C6.15284 27.9023 6.76476 28.5142 7.51741 28.8977C8.37306 29.3337 9.49316 29.3337 11.7334 29.3337H20.2667C22.5069 29.3337 23.627 29.3337 24.4827 28.8977C25.2353 28.5142 25.8472 27.9023 26.2307 27.1496C26.6667 26.294 26.6667 25.1739 26.6667 22.9337V10.667L18.6667 2.66699Z" stroke="#99A4AF" stroke-width="2.5" stroke-linecap="round" stroke-linejoin="round"/>
</svg>
