<svg width="16" height="16" viewBox="0 0 16 16" fill="none" xmlns="http://www.w3.org/2000/svg">
<path d="M9.33335 1.5127V4.26639C9.33335 4.63976 9.33335 4.82644 9.40602 4.96905C9.46993 5.09449 9.57192 5.19648 9.69736 5.26039C9.83997 5.33306 10.0267 5.33306 10.4 5.33306H13.1537M9.33335 11.333H5.33335M10.6667 8.66634H5.33335M13.3334 6.65849V11.4663C13.3334 12.5864 13.3334 13.1465 13.1154 13.5743C12.9236 13.9506 12.6177 14.2566 12.2413 14.4484C11.8135 14.6663 11.2535 14.6663 10.1334 14.6663H5.86669C4.74658 14.6663 4.18653 14.6663 3.75871 14.4484C3.38238 14.2566 3.07642 13.9506 2.88467 13.5743C2.66669 13.1465 2.66669 12.5864 2.66669 11.4663V4.53301C2.66669 3.4129 2.66669 2.85285 2.88467 2.42503C3.07642 2.0487 3.38238 1.74274 3.75871 1.55099C4.18653 1.33301 4.74658 1.33301 5.86669 1.33301H8.00787C8.49705 1.33301 8.74164 1.33301 8.97182 1.38827C9.17589 1.43726 9.37098 1.51807 9.54992 1.62773C9.75176 1.75141 9.92471 1.92436 10.2706 2.27027L12.3961 4.39575C12.742 4.74165 12.9149 4.9146 13.0386 5.11644C13.1483 5.29538 13.2291 5.49047 13.2781 5.69454C13.3334 5.92472 13.3334 6.16931 13.3334 6.65849Z" stroke="#787878" stroke-width="1.5" stroke-linecap="round" stroke-linejoin="round"/>
</svg>
