<svg width="80" height="80" viewBox="0 0 80 80" fill="none" xmlns="http://www.w3.org/2000/svg">
<rect width="80" height="80" rx="40" fill="#F2F4F7"/>
<path d="M50.6663 40.6665V33.0665C50.6663 30.8263 50.6663 29.7062 50.2304 28.8505C49.8469 28.0979 49.2349 27.486 48.4823 27.1025C47.6267 26.6665 46.5066 26.6665 44.2663 26.6665H35.733C33.4928 26.6665 32.3727 26.6665 31.517 27.1025C30.7644 27.486 30.1525 28.0979 29.769 28.8505C29.333 29.7062 29.333 30.8263 29.333 33.0665V46.9332C29.333 49.1734 29.333 50.2935 29.769 51.1491C30.1525 51.9018 30.7644 52.5137 31.517 52.8972C32.3727 53.3332 33.4928 53.3332 35.733 53.3332H39.9997M42.6663 38.6665H34.6663M37.333 43.9998H34.6663M45.333 33.3332H34.6663M43.333 49.3332L45.9997 51.9998L51.9997 45.9998" stroke="#98A2B3" stroke-width="2.5" stroke-linecap="round" stroke-linejoin="round"/>
</svg>
