<svg width="32" height="32" viewBox="0 0 32 32" fill="none" xmlns="http://www.w3.org/2000/svg">
<rect width="32" height="32" rx="8" fill="#F1F1EF"/>
<path d="M14.6668 16.6667C14.9531 17.0495 15.3184 17.3662 15.7378 17.5954C16.1573 17.8245 16.6211 17.9608 17.0979 17.9949C17.5747 18.0291 18.0532 17.9603 18.501 17.7932C18.9489 17.6262 19.3555 17.3648 19.6935 17.0267L21.6935 15.0267C22.3007 14.3981 22.6366 13.556 22.629 12.6821C22.6215 11.8081 22.2709 10.972 21.6529 10.354C21.0348 9.73597 20.1988 9.38541 19.3248 9.37781C18.4508 9.37022 17.6088 9.7062 16.9801 10.3134L15.8335 11.4534M17.3335 15.3334C17.0472 14.9506 16.6819 14.6339 16.2624 14.4048C15.843 14.1756 15.3791 14.0393 14.9024 14.0052C14.4256 13.971 13.9471 14.0398 13.4992 14.2069C13.0514 14.3739 12.6447 14.6353 12.3068 14.9734L10.3068 16.9734C9.69961 17.6021 9.36363 18.4441 9.37122 19.3181C9.37881 20.1921 9.72938 21.0281 10.3474 21.6461C10.9654 22.2641 11.8015 22.6147 12.6755 22.6223C13.5495 22.6299 14.3915 22.2939 15.0201 21.6867L16.1601 20.5467" stroke="#777675" stroke-width="1.5" stroke-linecap="round" stroke-linejoin="round"/>
</svg>
