<svg width="56" height="56" viewBox="0 0 56 56" fill="none" xmlns="http://www.w3.org/2000/svg">
<rect width="56" height="56" rx="28" fill="#DBF8D9"/>
<path d="M37 28.6V21.76C37 19.7438 37 18.7358 36.6076 17.9656C36.2625 17.2882 35.7118 16.7375 35.0344 16.3924C34.2643 16 33.2563 16 31.2401 16H23.56C21.5438 16 20.5358 16 19.7656 16.3924C19.0882 16.7375 18.5376 17.2882 18.1924 17.9656C17.8 18.7358 17.8 19.7438 17.8 21.76V34.24C17.8 36.2562 17.8 37.2642 18.1924 38.0344C18.5376 38.7118 19.0882 39.2625 19.7656 39.6076C20.5358 40 21.5438 40 23.56 40H27.4M29.8 26.8H22.6M25 31.6H22.6M32.2 22H22.6M30.4 36.4L32.8 38.8L38.2 33.4" stroke="#22D912" stroke-width="2" stroke-linecap="round" stroke-linejoin="round"/>
</svg>
