<svg width="4" height="12" viewBox="0 0 4 12" fill="none" xmlns="http://www.w3.org/2000/svg">
<path d="M1.99984 6.5835C2.322 6.5835 2.58317 6.32233 2.58317 6.00016C2.58317 5.678 2.322 5.41683 1.99984 5.41683C1.67767 5.41683 1.4165 5.678 1.4165 6.00016C1.4165 6.32233 1.67767 6.5835 1.99984 6.5835Z" stroke="#3E3E3E" stroke-width="2" stroke-linecap="round" stroke-linejoin="round"/>
<path d="M1.99984 2.50016C2.322 2.50016 2.58317 2.239 2.58317 1.91683C2.58317 1.59466 2.322 1.3335 1.99984 1.3335C1.67767 1.3335 1.4165 1.59466 1.4165 1.91683C1.4165 2.239 1.67767 2.50016 1.99984 2.50016Z" stroke="#3E3E3E" stroke-width="2" stroke-linecap="round" stroke-linejoin="round"/>
<path d="M1.99984 10.6668C2.322 10.6668 2.58317 10.4057 2.58317 10.0835C2.58317 9.76133 2.322 9.50016 1.99984 9.50016C1.67767 9.50016 1.4165 9.76133 1.4165 10.0835C1.4165 10.4057 1.67767 10.6668 1.99984 10.6668Z" stroke="#3E3E3E" stroke-width="2" stroke-linecap="round" stroke-linejoin="round"/>
</svg>
