<svg width="50" height="50" viewBox="0 0 50 50" fill="none" xmlns="http://www.w3.org/2000/svg">
<path d="M28.5688 16.488C27.2331 17.4402 25.5986 18.0003 23.8333 18.0003C19.323 18.0003 15.6666 14.344 15.6666 9.83366C15.6666 5.32333 19.323 1.66699 23.8333 1.66699C26.7569 1.66699 29.3217 3.2033 30.7645 5.51266M11 43.8703H17.0906C17.8848 43.8703 18.674 43.9648 19.4439 44.1538L25.8794 45.7177C27.2758 46.0579 28.7304 46.091 30.1414 45.8169L37.2569 44.4326C39.1366 44.0664 40.8656 43.1664 42.2208 41.8482L47.255 36.951C48.6927 35.5548 48.6927 33.2893 47.255 31.8908C45.9606 30.6317 43.911 30.4899 42.4466 31.5577L36.5794 35.8383C35.7391 36.4525 34.7167 36.7833 33.6651 36.7833H27.9995L31.6058 36.7831C33.6384 36.7831 35.285 35.1814 35.285 33.2041V32.4883C35.285 30.8465 34.1363 29.4149 32.4995 29.018L26.9333 27.6644C26.0275 27.4447 25.0998 27.3337 24.1673 27.3337C21.9161 27.3337 17.841 29.1976 17.841 29.1976L11 32.0584M43.6666 12.167C43.6666 16.6773 40.0103 20.3337 35.5 20.3337C30.9896 20.3337 27.3333 16.6773 27.3333 12.167C27.3333 7.65667 30.9896 4.00033 35.5 4.00033C40.0103 4.00033 43.6666 7.65667 43.6666 12.167ZM1.66663 31.067L1.66663 44.6003C1.66663 45.9071 1.66663 46.5605 1.92094 47.0596C2.14465 47.4987 2.5016 47.8556 2.94065 48.0793C3.43977 48.3337 4.09317 48.3337 5.39996 48.3337H7.26662C8.57341 48.3337 9.22681 48.3337 9.72594 48.0793C10.165 47.8556 10.5219 47.4987 10.7456 47.0596C11 46.5605 11 45.9071 11 44.6003V31.067C11 29.7602 11 29.1068 10.7456 28.6077C10.5219 28.1686 10.165 27.8117 9.72594 27.588C9.22681 27.3337 8.57342 27.3337 7.26663 27.3337L5.39996 27.3337C4.09317 27.3337 3.43978 27.3337 2.94065 27.588C2.5016 27.8117 2.14465 28.1686 1.92094 28.6077C1.66663 29.1068 1.66663 29.7602 1.66663 31.067Z" stroke="#1D2939" stroke-width="2.5" stroke-linecap="round" stroke-linejoin="round"/>
</svg>
