<svg width="64" height="64" viewBox="0 0 64 64" fill="none" xmlns="http://www.w3.org/2000/svg">
<!-- <rect width="64" height="64" rx="32" fill="#F2F4F7"/> -->
<path d="M39 41L42 38M42 38L39 35M42 38H36M35.5 23.2908C36.9659 23.8841 38 25.3213 38 27C38 28.6787 36.9659 30.1159 35.5 30.7092M32 35H28C26.1362 35 25.2044 35 24.4693 35.3045C23.4892 35.7105 22.7105 36.4892 22.3045 37.4693C22 38.2044 22 39.1362 22 41M33.5 27C33.5 29.2091 31.7091 31 29.5 31C27.2909 31 25.5 29.2091 25.5 27C25.5 24.7909 27.2909 23 29.5 23C31.7091 23 33.5 24.7909 33.5 27Z" stroke="#98A2B3" stroke-width="2" stroke-linecap="round" stroke-linejoin="round"/>
</svg>
