<svg width="30" height="28" viewBox="0 0 30 28" fill="none" xmlns="http://www.w3.org/2000/svg">
<path d="M24.3334 26V18M20.3334 22H28.3334M15.0001 18H9.66675C7.18173 18 5.93922 18 4.9591 18.406C3.65229 18.9473 2.61402 19.9855 2.07272 21.2924C1.66675 22.2725 1.66675 23.515 1.66675 26M19.6667 2.38768C21.6213 3.17886 23.0001 5.09508 23.0001 7.33333C23.0001 9.57159 21.6213 11.4878 19.6667 12.279M17.0001 7.33333C17.0001 10.2789 14.6123 12.6667 11.6667 12.6667C8.72123 12.6667 6.33341 10.2789 6.33341 7.33333C6.33341 4.38781 8.72123 2 11.6667 2C14.6123 2 17.0001 4.38781 17.0001 7.33333Z" stroke="#989796" stroke-width="2.5" stroke-linecap="round" stroke-linejoin="round"/>
</svg>
