<svg width="20" height="20" viewBox="0 0 20 20" fill="none" xmlns="http://www.w3.org/2000/svg">
<path d="M3.33337 2.5H16.3226C16.708 2.5 16.9007 2.5 17.0107 2.58082C17.1067 2.65129 17.1679 2.75945 17.179 2.878C17.1917 3.01395 17.0925 3.17919 16.8942 3.50966L15.2058 6.32367C15.131 6.44838 15.0936 6.51073 15.079 6.5773C15.0661 6.63618 15.0661 6.69716 15.079 6.75604C15.0936 6.8226 15.131 6.88496 15.2058 7.00966L16.8942 9.82367C17.0925 10.1541 17.1917 10.3194 17.179 10.4553C17.1679 10.5739 17.1067 10.682 17.0107 10.7525C16.9007 10.8333 16.708 10.8333 16.3226 10.8333H3.33337V2.5Z" fill="#C61616"/>
<path d="M3.33337 10.8333H16.3226C16.708 10.8333 16.9007 10.8333 17.0107 10.7525C17.1067 10.682 17.1679 10.5739 17.179 10.4553C17.1917 10.3194 17.0925 10.1541 16.8942 9.82367L15.2058 7.00966C15.131 6.88496 15.0936 6.8226 15.079 6.75604C15.0661 6.69716 15.0661 6.63618 15.079 6.5773C15.0936 6.51073 15.131 6.44838 15.2058 6.32367L16.8942 3.50966C17.0925 3.17919 17.1917 3.01395 17.179 2.878C17.1679 2.75945 17.1067 2.65129 17.0107 2.58082C16.9007 2.5 16.708 2.5 16.3226 2.5H3.33337L3.33337 17.5" stroke="#C61616" stroke-width="1.5" stroke-linecap="round" stroke-linejoin="round"/>
</svg>
