<svg width="11" height="12" viewBox="0 0 11 12" fill="#C61616" xmlns="http://www.w3.org/2000/svg">
<path d="M1 6.5H8.79352C9.02476 6.5 9.14038 6.5 9.20642 6.45151C9.264 6.40923 9.30074 6.34433 9.30737 6.2732C9.31498 6.19163 9.25548 6.09248 9.13652 5.8942L8.12348 4.2058C8.07858 4.13097 8.05614 4.09356 8.04737 4.05362C8.03961 4.01829 8.03961 3.98171 8.04737 3.94638C8.05614 3.90644 8.07858 3.86903 8.12348 3.7942L9.13652 2.1058C9.25549 1.90751 9.31498 1.80837 9.30737 1.7268C9.30074 1.65567 9.264 1.59077 9.20642 1.54849C9.14038 1.5 9.02476 1.5 8.79352 1.5H1L1 10.5" stroke="#C61616" stroke-width="1.5" stroke-linecap="round" stroke-linejoin="round"/>
</svg>
