<svg width="32" height="32" viewBox="0 0 32 32" fill="none" xmlns="http://www.w3.org/2000/svg">
<rect width="32" height="32" rx="8" fill="#FDECF0"/>
<path d="M21.3327 22C21.3327 21.0696 21.3327 20.6044 21.2179 20.2259C20.9593 19.3736 20.2924 18.7067 19.4401 18.4482C19.0616 18.3333 18.5964 18.3333 17.666 18.3333H14.3327C13.4023 18.3333 12.9371 18.3333 12.5586 18.4482C11.7063 18.7067 11.0394 19.3736 10.7808 20.2259C10.666 20.6044 10.666 21.0696 10.666 22M18.9993 13C18.9993 14.6569 17.6562 16 15.9993 16C14.3425 16 12.9993 14.6569 12.9993 13C12.9993 11.3431 14.3425 10 15.9993 10C17.6562 10 18.9993 11.3431 18.9993 13Z" stroke="#E83F6D" stroke-width="1.5" stroke-linecap="round" stroke-linejoin="round"/>
</svg>
