<svg width="16" height="16" viewBox="0 0 16 16" fill="none" xmlns="http://www.w3.org/2000/svg">
<g clip-path="url(#clip0_5087_1553)">
<path fill-rule="evenodd" clip-rule="evenodd" d="M6.86225 0.595287C7.1226 0.334937 7.54471 0.334937 7.80506 0.595287L9.1384 1.92862C9.39875 2.18897 9.39875 2.61108 9.1384 2.87143L7.80506 4.20476C7.54471 4.46511 7.1226 4.46511 6.86225 4.20476C6.6019 3.94441 6.6019 3.5223 6.86225 3.26195L7.03012 3.09409C4.73305 3.54578 3.00033 5.57055 3.00033 8.00002C3.00033 9.66162 3.81016 11.134 5.05956 12.0443C5.35715 12.2611 5.42263 12.6781 5.20582 12.9757C4.98901 13.2732 4.57201 13.3387 4.27442 13.1219C2.69538 11.9715 1.66699 10.1058 1.66699 8.00002C1.66699 4.82169 4.00822 2.19017 7.06015 1.736L6.86225 1.5381C6.6019 1.27775 6.6019 0.855636 6.86225 0.595287ZM10.7948 3.02439C11.0116 2.7268 11.4286 2.66132 11.7262 2.87813C13.3053 4.02857 14.3337 5.89423 14.3337 8.00002C14.3337 11.1784 11.9924 13.8099 8.9405 14.2641L9.1384 14.462C9.39875 14.7223 9.39875 15.1444 9.1384 15.4048C8.87805 15.6651 8.45594 15.6651 8.19559 15.4048L6.86225 14.0714C6.6019 13.8111 6.6019 13.389 6.86225 13.1286L8.19559 11.7953C8.45594 11.5349 8.87805 11.5349 9.1384 11.7953C9.39875 12.0556 9.39875 12.4777 9.1384 12.7381L8.97053 12.906C11.2676 12.4543 13.0003 10.4295 13.0003 8.00002C13.0003 6.33843 12.1905 4.86606 10.9411 3.95578C10.6435 3.73897 10.578 3.32197 10.7948 3.02439Z" fill="#555B64" stroke="#98A2B3" stroke-width="1.5" stroke-linecap="round" stroke-linejoin="round"/>
</g>
<defs>
<clipPath id="clip0_5087_1553">
<rect width="16" height="16" fill="white"/>
</clipPath>
</defs>
</svg>
