<svg width="44" height="44" viewBox="0 0 44 44" fill="none" xmlns="http://www.w3.org/2000/svg">
<rect width="44" height="44" rx="22" fill="#FDF77D"/>
<path d="M11.5 17.333L25.5 17.333M25.5 17.333C25.5 19.266 27.067 20.833 29 20.833C30.933 20.833 32.5 19.266 32.5 17.333C32.5 15.4 30.933 13.833 29 13.833C27.067 13.833 25.5 15.4 25.5 17.333ZM18.5 26.6663L32.5 26.6663M18.5 26.6663C18.5 28.5993 16.933 30.1663 15 30.1663C13.067 30.1663 11.5 28.5993 11.5 26.6663C11.5 24.7333 13.067 23.1663 15 23.1663C16.933 23.1663 18.5 24.7333 18.5 26.6663Z" stroke="#344054" stroke-width="1.5" stroke-linecap="round" stroke-linejoin="round"/>
</svg>
