<svg width="14" height="12" viewBox="0 0 14 12" fill="none" xmlns="http://www.w3.org/2000/svg">
<path fill-rule="evenodd" clip-rule="evenodd" d="M3.66659 9.93411e-09C4.03478 9.93411e-09 4.33325 0.298477 4.33325 0.666667V9.72386L5.86185 8.19526C6.1222 7.93491 6.54431 7.93491 6.80466 8.19526C7.06501 8.45561 7.06501 8.87772 6.80466 9.13807L4.13799 11.8047C3.87764 12.0651 3.45553 12.0651 3.19518 11.8047L0.528514 9.13807C0.268165 8.87772 0.268165 8.45561 0.528514 8.19526C0.788864 7.93491 1.21097 7.93491 1.47132 8.19526L2.99992 9.72386V0.666667C2.99992 0.298477 3.2984 9.93411e-09 3.66659 9.93411e-09ZM9.86185 0.195262C10.1222 -0.0650874 10.5443 -0.0650874 10.8047 0.195262L13.4713 2.86193C13.7317 3.12228 13.7317 3.54439 13.4713 3.80474C13.211 4.06509 12.7889 4.06509 12.5285 3.80474L10.9999 2.27614V11.3333C10.9999 11.7015 10.7014 12 10.3333 12C9.96506 12 9.66659 11.7015 9.66659 11.3333V2.27614L8.13799 3.80474C7.87764 4.06509 7.45553 4.06509 7.19518 3.80474C6.93483 3.54439 6.93483 3.12228 7.19518 2.86193L9.86185 0.195262Z" fill="#3E3E3E"/>
</svg>
