<svg width="80" height="80" viewBox="0 0 80 80" fill="none" xmlns="http://www.w3.org/2000/svg">
<rect width="80" height="80" rx="40" fill="#F3F5F7"/>
<path d="M48 45.1158C49.9412 46.091 51.6055 47.6559 52.8203 49.6128C53.0609 50.0004 53.1812 50.1941 53.2228 50.4624C53.3073 51.0077 52.9344 51.678 52.4266 51.8938C52.1767 52 51.8956 52 51.3334 52M45.3334 39.3763C47.309 38.3945 48.6667 36.3558 48.6667 34C48.6667 31.6442 47.309 29.6055 45.3334 28.6237M42.6667 34C42.6667 37.3137 39.9804 40 36.6667 40C33.353 40 30.6667 37.3137 30.6667 34C30.6667 30.6863 33.353 28 36.6667 28C39.9804 28 42.6667 30.6863 42.6667 34ZM27.4123 49.2511C29.5381 46.0594 32.8925 44 36.6667 44C40.4409 44 43.7953 46.0594 45.9211 49.2511C46.3867 49.9503 46.6196 50.2999 46.5928 50.7466C46.5719 51.0943 46.344 51.52 46.0661 51.7301C45.7093 52 45.2185 52 44.2369 52H29.0965C28.1149 52 27.6241 52 27.2673 51.7301C26.9894 51.52 26.7615 51.0943 26.7406 50.7466C26.7138 50.2999 26.9466 49.9503 27.4123 49.2511Z" stroke="#98A2B3" stroke-width="2.5" stroke-linecap="round" stroke-linejoin="round"/>
</svg>
