<svg width="20" height="20" viewBox="0 0 20 20" fill="none" xmlns="http://www.w3.org/2000/svg">
<path d="M10 20C15.5229 20 20 15.5229 20 9.99998C20 4.47715 15.5229 0 10 0C4.47715 0 0 4.47715 0 9.99998C0 15.5229 4.47715 20 10 20Z" fill="#1AB4D7"/>
<path d="M4.78691 9.97113L6.49349 8.26032C6.55007 8.20266 6.58164 8.12631 6.58164 8.04534C6.58164 7.8766 6.44447 7.73956 6.27572 7.73956C6.19353 7.73956 6.11647 7.77178 6.05836 7.8306C6.05819 7.83094 4.35331 9.53483 4.35331 9.53483L2.64063 7.82805C2.58276 7.77099 2.50608 7.73956 2.42477 7.73956C2.25623 7.73956 2.11902 7.87653 2.11902 8.0451C2.11902 8.12733 2.15185 8.2045 2.21077 8.26264L3.91712 9.96874L2.21166 11.6774C2.15171 11.7364 2.11902 11.8138 2.11902 11.8964C2.11902 12.0651 2.25623 12.2019 2.42477 12.2019C2.50622 12.2019 2.58297 12.1703 2.64063 12.1126L4.35065 10.4049L6.05417 12.1064C6.1146 12.1689 6.19254 12.2021 6.27572 12.2021C6.4443 12.2021 6.58147 12.0651 6.58147 11.8964C6.58147 11.815 6.54993 11.7385 6.49254 11.6808L4.78691 9.97113Z" fill="white"/>
<path d="M14.9321 9.97024C14.9321 10.2766 15.1813 10.5259 15.488 10.5259C15.7941 10.5259 16.0433 10.2766 16.0433 9.97024C16.0433 9.66378 15.7941 9.41457 15.488 9.41457C15.1813 9.41457 14.9321 9.66378 14.9321 9.97024Z" fill="white"/>
<path d="M13.8785 9.97056C13.8785 9.08328 14.6003 8.36135 15.4877 8.36135C16.3746 8.36135 17.0966 9.08328 17.0966 9.97056C17.0966 10.8576 16.3746 11.5793 15.4877 11.5793C14.6003 11.5793 13.8785 10.8576 13.8785 9.97056ZM13.2455 9.97056C13.2455 11.2067 14.2513 12.2124 15.4877 12.2124C16.724 12.2124 17.7303 11.2067 17.7303 9.97056C17.7303 8.73426 16.724 7.72828 15.4877 7.72828C14.2513 7.72828 13.2455 8.73426 13.2455 9.97056Z" fill="white"/>
<path d="M13.0861 7.76727L12.992 7.767C12.7096 7.767 12.4373 7.85607 12.2097 8.03138C12.1798 7.89421 12.0572 7.79099 11.9111 7.79099C11.743 7.79099 11.6083 7.92568 11.6079 8.09412C11.6079 8.09473 11.6089 11.8705 11.6089 11.8705C11.6094 12.0386 11.7465 12.1753 11.9147 12.1753C12.0829 12.1753 12.22 12.0386 12.2204 11.8701C12.2204 11.8694 12.2206 9.54812 12.2206 9.54812C12.2206 8.7742 12.2913 8.46165 12.9543 8.37881C13.0155 8.37119 13.0822 8.37238 13.0825 8.37238C13.2639 8.36615 13.3928 8.2415 13.3928 8.07302C13.3928 7.90445 13.2552 7.76727 13.0861 7.76727Z" fill="white"/>
<path d="M7.21503 9.60197C7.21503 9.5936 7.21568 9.58489 7.21609 9.57628C7.39361 8.87452 8.02917 8.35522 8.78607 8.35522C9.55213 8.35522 10.1935 8.88728 10.3619 9.60197H7.21503ZM10.9881 9.54424C10.8563 8.92039 10.5148 8.40795 9.99472 8.07887C9.23448 7.5962 8.23057 7.62291 7.49625 8.14511C6.89727 8.57122 6.55151 9.26829 6.55151 9.98635C6.55151 10.1664 6.57322 10.3481 6.6184 10.527C6.84457 11.4167 7.60944 12.0903 8.52135 12.2019C8.79196 12.2347 9.05535 12.219 9.3281 12.1483C9.56248 12.0913 9.78926 11.9963 9.99822 11.8624C10.2151 11.7229 10.3963 11.5391 10.5718 11.319C10.5753 11.3149 10.5789 11.3114 10.5824 11.3071C10.7042 11.1561 10.6816 10.9413 10.5478 10.8387C10.4349 10.7522 10.2454 10.7171 10.0963 10.9081C10.0643 10.9537 10.0285 11.0007 9.98914 11.0477C9.87057 11.1787 9.72347 11.3057 9.5472 11.4041C9.3229 11.5239 9.06729 11.5924 8.79557 11.594C7.90618 11.5841 7.43025 10.9632 7.26096 10.5201C7.2314 10.4374 7.2086 10.3515 7.19271 10.2631C7.19064 10.2466 7.18911 10.2307 7.1885 10.216C7.37238 10.216 10.3801 10.2154 10.3801 10.2154C10.8177 10.2063 11.0532 9.89741 10.9881 9.54424Z" fill="white"/>
</svg>
