<?xml version="1.0" standalone="no"?>
<!DOCTYPE svg PUBLIC "-//W3C//DTD SVG 20010904//EN"
 "http://www.w3.org/TR/2001/REC-SVG-20010904/DTD/svg10.dtd">
<svg version="1.0" xmlns="http://www.w3.org/2000/svg"
 width="946.000000pt" height="946.000000pt" viewBox="0 0 946.000000 946.000000"
 preserveAspectRatio="xMidYMid meet">

<g transform="translate(0.000000,946.000000) scale(0.100000,-0.100000)"
fill="#f21616" stroke="none">
<path d="M4314 9435 c-1121 -102 -2147 -584 -2939 -1382 -787 -792 -1257
-1812 -1355 -2943 -14 -159 -14 -597 0 -760 114 -1361 785 -2578 1875 -3401
1216 -919 2836 -1188 4295 -714 1549 503 2734 1776 3124 3355 92 372 126 638
133 1045 7 393 -13 646 -78 985 -153 792 -502 1525 -1027 2155 -132 158 -485
502 -655 637 -755 602 -1648 955 -2606 1028 -180 13 -592 11 -767 -5z m915
-854 c444 -61 819 -174 1212 -367 624 -307 1139 -759 1523 -1339 89 -134 186
-295 186 -308 0 -4 -64 -7 -143 -7 l-142 0 -103 155 c-143 217 -280 384 -472
575 -189 189 -357 328 -562 463 -498 329 -1035 520 -1648 588 -170 19 -564 16
-740 -5 -829 -99 -1540 -433 -2126 -999 -218 -210 -413 -449 -555 -678 l-61
-99 -144 0 c-79 0 -144 4 -144 8 0 15 133 233 217 357 469 690 1174 1222 1975
1489 265 89 606 159 893 185 175 16 658 5 834 -18z m-3404 -3091 c45 -250 84
-470 88 -488 l7 -34 -208 4 c-186 4 -213 6 -262 27 -121 49 -238 166 -279 281
-11 30 -43 183 -71 340 -27 157 -52 295 -55 308 l-5 22 352 -2 352 -3 81 -455z
m1471 443 c-6 -22 -24 -124 -71 -393 -40 -231 -60 -301 -111 -386 -81 -135
-154 -189 -594 -439 -162 -92 -322 -186 -355 -210 -119 -85 -217 -208 -275
-344 -40 -93 -64 -192 -108 -437 l-37 -209 -353 -3 c-334 -2 -353 -1 -348 15
3 10 28 149 56 308 28 160 58 313 66 340 42 131 140 255 269 342 33 22 197
118 365 213 355 202 401 232 496 333 143 149 191 273 259 661 20 111 38 207
40 214 3 9 84 12 355 12 330 0 351 -1 346 -17z m1184 -1203 l0 -850 -225 0
-225 0 0 850 0 850 225 0 225 0 0 -850z m1315 823 c316 -71 513 -266 577 -570
27 -129 29 -349 4 -478 -60 -311 -244 -512 -544 -593 -94 -25 -106 -26 -454
-30 l-358 -4 0 852 0 852 343 -5 c295 -4 354 -7 432 -24z m1885 3 c162 -36
301 -130 364 -247 74 -135 85 -354 26 -511 -27 -71 -103 -169 -170 -219 -30
-23 -56 -42 -58 -44 -2 -1 78 -148 177 -326 100 -177 181 -324 181 -326 0 -2
-114 -3 -252 -3 l-253 0 -145 283 -145 282 -82 3 -83 3 0 -286 0 -285 -230 0
-230 0 0 851 0 851 413 -5 c336 -3 426 -7 487 -21z m-4868 -1077 c141 -29 274
-132 337 -260 31 -64 54 -173 144 -687 l4 -22 -351 2 -351 3 -81 450 c-44 248
-84 467 -88 488 l-7 37 170 0 c94 0 194 -5 223 -11z m-1158 -1671 c267 -432
652 -824 1091 -1114 753 -496 1653 -689 2553 -548 642 100 1272 389 1770 812
151 128 378 362 500 515 89 112 247 339 281 405 11 21 16 22 156 22 80 0 145
-3 145 -7 0 -11 -71 -134 -141 -246 -377 -596 -917 -1081 -1562 -1402 -1052
-524 -2321 -533 -3385 -24 -187 89 -294 150 -482 275 -398 264 -761 617 -1035
1009 -81 116 -235 368 -235 385 0 6 54 10 143 10 l143 0 58 -92z"/>
<path d="M5470 4730 c0 -402 2 -482 14 -486 16 -6 143 11 198 26 99 28 180
117 219 238 25 80 37 287 21 372 -42 222 -170 330 -392 330 l-60 0 0 -480z"/>
<path d="M7240 5016 l0 -206 118 0 c64 0 133 5 153 10 97 27 150 100 150 204
0 144 -61 186 -283 194 l-138 5 0 -207z"/>
</g>
</svg>
