<?xml version="1.0" standalone="no"?>
<!DOCTYPE svg PUBLIC "-//W3C//DTD SVG 20010904//EN"
 "http://www.w3.org/TR/2001/REC-SVG-20010904/DTD/svg10.dtd">
<svg version="1.0" xmlns="http://www.w3.org/2000/svg"
 width="200.000000pt" height="200.000000pt" viewBox="0 0 200.000000 200.000000"
 preserveAspectRatio="xMidYMid meet">

<g transform="translate(0.000000,200.000000) scale(0.100000,-0.100000)"
fill="#1048e5" stroke="none">
<path d="M900 1994 c-14 -2 -52 -9 -85 -15 -393 -68 -709 -384 -796 -794 -17
-77 -17 -293 0 -370 87 -411 385 -709 796 -796 33 -7 116 -13 185 -13 69 0
152 6 185 13 411 87 709 385 796 796 7 33 13 116 13 185 0 69 -6 152 -13 185
-85 405 -381 706 -776 791 -70 15 -258 26 -305 18z m289 -194 c158 -38 314
-129 417 -243 43 -47 114 -148 114 -162 0 -3 -13 -5 -30 -5 -23 0 -35 9 -62
48 -100 145 -259 256 -437 304 -106 28 -277 28 -383 0 -180 -48 -334 -157
-437 -305 -26 -38 -38 -47 -61 -47 -17 0 -30 3 -30 8 0 13 66 106 114 159 100
111 260 205 411 242 111 27 272 27 384 1z m-813 -577 c4 -21 12 -68 19 -105
l13 -68 -45 0 c-56 0 -97 21 -112 57 -10 25 -31 123 -31 144 0 5 34 9 75 9
l74 0 7 -37z m320 15 c-3 -13 -10 -49 -16 -80 -15 -75 -35 -99 -137 -155 -123
-69 -146 -100 -168 -225 l-6 -38 -74 0 c-85 0 -81 -6 -60 94 18 85 33 102 153
173 103 60 125 87 143 173 6 30 13 61 15 68 2 8 27 12 79 12 73 0 75 -1 71
-22z m310 -67 c23 -10 44 -23 47 -28 3 -4 -6 -21 -19 -37 -23 -26 -27 -27 -53
-16 -16 6 -39 10 -52 8 -41 -6 -33 -27 18 -49 83 -35 94 -43 109 -71 18 -35
18 -62 -2 -99 -16 -33 -81 -68 -124 -69 -38 0 -96 18 -120 38 l-22 18 27 32
c26 31 27 31 56 16 34 -17 90 -15 97 4 2 7 -22 24 -60 41 -81 37 -103 61 -103
116 0 93 102 141 201 96z m335 9 c20 -6 43 -18 52 -28 14 -16 13 -19 -9 -45
-19 -23 -27 -26 -43 -17 -25 13 -67 13 -91 0 -25 -14 -44 -79 -36 -124 8 -42
38 -66 83 -66 29 0 33 3 33 25 0 20 -5 25 -25 25 -22 0 -25 4 -25 40 l0 40 70
0 70 0 0 -85 c0 -77 -2 -86 -23 -100 -65 -42 -147 -43 -209 -2 -92 61 -103
217 -21 294 50 48 107 62 174 43z m365 -26 c57 -42 69 -69 69 -154 0 -64 -4
-84 -21 -106 -43 -58 -68 -69 -170 -72 l-94 -4 0 182 0 182 94 -4 c76 -2 100
-7 122 -24z m-1067 -229 c23 -20 32 -39 41 -83 6 -31 13 -67 16 -80 5 -22 3
-23 -73 -20 l-77 3 -13 70 c-6 39 -15 85 -18 103 l-6 32 50 0 c38 0 56 -6 80
-25z m-256 -378 c141 -197 365 -309 617 -309 260 0 485 116 629 325 26 38 38
47 61 47 17 0 30 -3 30 -8 0 -13 -66 -106 -114 -159 -64 -71 -153 -136 -250
-183 -367 -178 -825 -52 -1043 287 -18 29 -33 55 -33 58 0 3 13 5 29 5 24 0
37 -10 74 -63z"/>
<path d="M1590 1000 c0 -94 1 -100 20 -100 12 0 32 11 45 25 20 19 25 34 25
75 0 41 -5 56 -25 75 -13 14 -33 25 -45 25 -19 0 -20 -6 -20 -100z"/>
</g>
</svg>
