<svg width="16" height="16" viewBox="0 0 16 16" fill="none" xmlns="http://www.w3.org/2000/svg">
<path d="M3.33331 10.0007C2.71206 10.0007 2.40143 10.0007 2.1564 9.89916C1.8297 9.76383 1.57013 9.50427 1.43481 9.17756C1.33331 8.93253 1.33331 8.62191 1.33331 8.00065V3.46732C1.33331 2.72058 1.33331 2.34721 1.47864 2.062C1.60647 1.81111 1.81044 1.60714 2.06133 1.47931C2.34654 1.33398 2.71991 1.33398 3.46665 1.33398H7.99998C8.62124 1.33398 8.93186 1.33398 9.17689 1.43548C9.50359 1.5708 9.76316 1.83037 9.89849 2.15707C9.99998 2.4021 9.99998 2.71273 9.99998 3.33398M8.13331 14.6673H12.5333C13.28 14.6673 13.6534 14.6673 13.9386 14.522C14.1895 14.3942 14.3935 14.1902 14.5213 13.9393C14.6666 13.6541 14.6666 13.2807 14.6666 12.534V8.13398C14.6666 7.38725 14.6666 7.01388 14.5213 6.72866C14.3935 6.47778 14.1895 6.27381 13.9386 6.14598C13.6534 6.00065 13.28 6.00065 12.5333 6.00065H8.13331C7.38658 6.00065 7.01321 6.00065 6.72799 6.14598C6.47711 6.27381 6.27314 6.47778 6.1453 6.72866C5.99998 7.01388 5.99998 7.38725 5.99998 8.13398V12.534C5.99998 13.2807 5.99998 13.6541 6.1453 13.9393C6.27314 14.1902 6.47711 14.3942 6.72799 14.522C7.01321 14.6673 7.38658 14.6673 8.13331 14.6673Z" stroke="#000019" stroke-width="1.33333" stroke-linecap="round" stroke-linejoin="round"/>
</svg>
