<svg width="41" height="40" viewBox="0 0 41 40" fill="none" xmlns="http://www.w3.org/2000/svg">
<path d="M35.5061 4.35156L22.4995 14.0521L24.9047 8.32892L35.5061 4.35156Z" fill="#E2761B"/>
<path d="M5.47997 4.35156L18.3819 14.144L16.0944 8.32892L5.47997 4.35156ZM30.8264 26.8374L27.3623 32.1668L34.7741 34.2146L36.9048 26.9556L30.8264 26.8374ZM4.10742 26.9556L6.22507 34.2146L13.6368 32.1668L10.1728 26.8374L4.10742 26.9556Z" fill="#E4761B"/>
<path d="M13.2187 17.8327L11.1533 20.97L18.5128 21.2981L18.2514 13.3565L13.2187 17.8327ZM27.7677 17.8327L22.6697 13.2646L22.4997 21.2981L29.8461 20.97L27.7677 17.8327ZM13.637 32.1669L18.0553 30.0011L14.2383 27.0082L13.637 32.1669ZM22.9311 30.0011L27.3625 32.1669L26.7481 27.0082L22.9311 30.0011Z" fill="#E4761B"/>
<path d="M27.3622 32.1669L22.9308 30.001L23.2838 32.902L23.2446 34.1227L27.3622 32.1669ZM13.6367 32.1669L17.7544 34.1227L17.7282 32.902L18.055 30.001L13.6367 32.1669Z" fill="#D7C1B3"/>
<path d="M17.8201 25.0916L14.1338 24.0021L16.7351 22.8076L17.8201 25.0916ZM23.1665 25.0916L24.2514 22.8076L26.8658 24.0021L23.1665 25.0916Z" fill="#233447"/>
<path d="M13.6369 32.1667L14.2644 26.8373L10.1729 26.9555L13.6369 32.1667ZM26.7349 26.8373L27.3624 32.1667L30.8265 26.9555L26.7349 26.8373ZM29.8461 20.9697L22.4997 21.2979L23.1794 25.0915L24.2644 22.8074L26.8787 24.002L29.8461 20.9697ZM14.1336 24.002L16.748 22.8074L17.8199 25.0915L18.5127 21.2979L11.1532 20.9697L14.1336 24.002Z" fill="#CD6116"/>
<path d="M11.1533 20.9697L14.2383 27.008L14.1337 24.002L11.1533 20.9697ZM26.8788 24.002L26.7481 27.008L29.8461 20.9697L26.8788 24.002ZM18.5128 21.2979L17.82 25.0915L18.6827 29.5676L18.8788 23.6738L18.5128 21.2979ZM22.4997 21.2979L22.1468 23.6607L22.3036 29.5676L23.1795 25.0915L22.4997 21.2979Z" fill="#E4751F"/>
<path d="M23.1795 25.0915L22.3037 29.5676L22.9312 30.0008L26.7482 27.0079L26.8789 24.002L23.1795 25.0915ZM14.1338 24.002L14.2384 27.0079L18.0554 30.0008L18.6828 29.5676L17.8201 25.0915L14.1338 24.002Z" fill="#F6851B"/>
<path d="M23.2446 34.1229L23.2838 32.9021L22.957 32.6133H18.0289L17.7282 32.9021L17.7544 34.1229L13.6367 32.167L15.0746 33.3484L17.9897 35.383H22.9962L25.9243 33.3484L27.3622 32.167L23.2446 34.1229Z" fill="#C0AD9E"/>
<path d="M22.9311 30.0006L22.3037 29.5674H18.6828L18.0553 30.0006L17.7285 32.9015L18.0292 32.6128H22.9573L23.2841 32.9015L22.9311 30.0006Z" fill="#161616"/>
<path d="M36.0552 14.6822L37.1663 9.32654L35.5062 4.35156L22.931 13.7239L27.7676 17.8326L34.6043 19.8409L36.1206 18.0689L35.467 17.5963L36.5127 16.6381L35.7023 16.008L36.748 15.2073L36.0552 14.6822ZM3.83301 9.32654L4.94412 14.6822L4.23824 15.2073L5.28399 16.008L4.4866 16.6381L5.53235 17.5963L4.87876 18.0689L6.38203 19.8409L13.2186 17.8326L18.0552 13.7239L5.48007 4.35156L3.83301 9.32654Z" fill="#763D16"/>
<path d="M34.6042 19.8411L27.7676 17.8328L29.846 20.97L26.748 27.0082L30.8264 26.9557H36.9048L34.6042 19.8411ZM13.2185 17.8328L6.38193 19.8411L4.10742 26.9557H10.1728L14.2381 27.0082L11.1532 20.97L13.2185 17.8328ZM22.4996 21.2982L22.931 13.7241L24.9179 8.3291H16.0944L18.0551 13.7241L18.5127 21.2982L18.6695 23.6872L18.6826 29.5679H22.3035L22.3296 23.6872L22.4996 21.2982Z" fill="#F6851B"/>
</svg>
