<svg width="16" height="16" viewBox="0 0 16 16" fill="none" xmlns="http://www.w3.org/2000/svg">
<g clip-path="url(#clip0_531_1716)">
<path d="M7.99999 16C9.58224 16 11.129 15.5308 12.4446 14.6518C13.7601 13.7727 14.7855 12.5233 15.391 11.0615C15.9965 9.59966 16.155 7.99113 15.8463 6.43928C15.5376 4.88743 14.7757 3.46197 13.6568 2.34315C12.538 1.22433 11.1126 0.462403 9.56072 0.153721C8.00887 -0.15496 6.40034 0.00346624 4.93853 0.608967C3.47672 1.21447 2.22729 2.23985 1.34824 3.55544C0.469186 4.87104 -6.29726e-06 6.41775 -6.29726e-06 8C-0.00259631 9.05131 0.202562 10.0928 0.603682 11.0645C1.0048 12.0363 1.59398 12.9192 2.33736 13.6626C3.08075 14.406 3.96369 14.9952 4.93547 15.3963C5.90724 15.7974 6.94869 16.0026 7.99999 16Z" fill="#2775CA"/>
<path d="M10.2 9.26693C10.2 8.1033 9.50036 7.69966 8.10036 7.53312C7.09963 7.40003 6.90036 7.13312 6.90036 6.66693C6.90036 6.20075 7.23345 5.89966 7.89963 5.89966C8.50036 5.89966 8.83345 6.09966 8.99999 6.60003C9.01788 6.64823 9.05014 6.68978 9.09242 6.71905C9.13469 6.74832 9.18494 6.76389 9.23636 6.76366H9.76945C9.80032 6.76446 9.83104 6.75897 9.85973 6.74752C9.88841 6.73607 9.91447 6.71891 9.93631 6.69707C9.95815 6.67523 9.97531 6.64917 9.98676 6.62048C9.99821 6.5918 10.0037 6.56108 10.0029 6.53021V6.49748C9.9385 6.1362 9.75657 5.8063 9.48539 5.55906C9.2142 5.31181 8.86895 5.16105 8.50327 5.13021V4.33021C8.50327 4.19712 8.4029 4.09748 8.23636 4.06403H7.73599C7.6029 4.06403 7.50327 4.16366 7.46981 4.33021V5.09966C6.4669 5.23639 5.83345 5.89966 5.83345 6.73312C5.83345 7.83348 6.50036 8.26693 7.90036 8.43348C8.83345 8.60003 9.13672 8.79712 9.13672 9.33312C9.13672 9.86912 8.67054 10.2335 8.03709 10.2335C7.17018 10.2335 6.87345 9.86984 6.77018 9.36657C6.76065 9.31035 6.7317 9.25925 6.68838 9.22218C6.64506 9.1851 6.5901 9.16439 6.53309 9.16366H5.96363C5.93278 9.16297 5.90211 9.16853 5.87347 9.18001C5.84484 9.1915 5.81882 9.20867 5.797 9.23049C5.77519 9.25231 5.75801 9.27832 5.74653 9.30696C5.73504 9.3356 5.72948 9.36627 5.73018 9.39712V9.43057C5.86399 10.264 6.39708 10.864 7.49745 11.0306V11.8306C7.49745 11.9637 7.59709 12.064 7.76363 12.0975H8.26399C8.39708 12.0975 8.49745 11.9971 8.53018 11.8306V11.0306C9.53018 10.864 10.1971 10.1637 10.1971 9.26403L10.2 9.26693Z" fill="white"/>
<path d="M6.29964 12.7666C5.34053 12.4148 4.51255 11.777 3.92763 10.9394C3.34271 10.1019 3.02905 9.10489 3.02905 8.08329C3.02905 7.0617 3.34271 6.06473 3.92763 5.22717C4.51255 4.3896 5.34053 3.75181 6.29964 3.40002C6.36364 3.37234 6.41739 3.32536 6.45338 3.26564C6.48937 3.20592 6.5058 3.13644 6.50037 3.06693V2.60002C6.50486 2.53878 6.487 2.47798 6.45009 2.4289C6.41318 2.37982 6.35973 2.34579 6.29964 2.33311C6.25272 2.32822 6.20558 2.34007 6.16655 2.36657C4.95303 2.75227 3.89373 3.51414 3.14198 4.54189C2.39023 5.56964 1.98503 6.80995 1.98503 8.08329C1.98503 9.35664 2.39023 10.5969 3.14198 11.6247C3.89373 12.6524 4.95303 13.4143 6.16655 13.8C6.19427 13.8161 6.2254 13.8254 6.25741 13.8272C6.28941 13.8289 6.32137 13.8231 6.35068 13.8101C6.37998 13.7971 6.40579 13.7774 6.426 13.7525C6.4462 13.7276 6.46022 13.6983 6.46692 13.6669C6.50037 13.6335 6.50037 13.6 6.50037 13.5331V13.0669C6.50037 12.9666 6.40001 12.8335 6.29964 12.7666ZM9.83346 2.36657C9.8057 2.35047 9.77451 2.34118 9.74246 2.33947C9.71041 2.33777 9.67841 2.34369 9.6491 2.35675C9.61978 2.36981 9.59398 2.38964 9.57381 2.41461C9.55365 2.43958 9.5397 2.46897 9.5331 2.50038C9.50037 2.53311 9.50037 2.56657 9.50037 2.63347V3.09966C9.50599 3.16688 9.52693 3.23192 9.5616 3.28979C9.59627 3.34766 9.64374 3.39681 9.70037 3.43347C10.6595 3.78527 11.4875 4.42305 12.0724 5.26062C12.6573 6.09819 12.971 7.09515 12.971 8.11675C12.971 9.13834 12.6573 10.1353 12.0724 10.9729C11.4875 11.8104 10.6595 12.4482 9.70037 12.8C9.63644 12.8277 9.58279 12.8747 9.54692 12.9345C9.51105 12.9942 9.49478 13.0637 9.50037 13.1331V13.6C9.49585 13.6612 9.51361 13.7219 9.55038 13.7709C9.58714 13.82 9.64042 13.8541 9.70037 13.8669C9.74729 13.8718 9.79443 13.86 9.83346 13.8335C11.0465 13.4424 12.1043 12.6767 12.8546 11.6465C13.605 10.6162 14.0092 9.37454 14.0092 8.10002C14.0092 6.8255 13.605 5.58381 12.8546 4.55357C12.1043 3.52332 11.0465 2.75761 9.83346 2.36657Z" fill="white"/>
</g>
<defs>
<clipPath id="clip0_531_1716">
<rect width="16" height="16" fill="white"/>
</clipPath>
</defs>
</svg>
