<svg width="16" height="16" viewBox="0 0 16 16" fill="none" xmlns="http://www.w3.org/2000/svg">
<path d="M9.33318 14.0007H6.66652M11.9998 5.33398C11.9998 4.27312 11.5784 3.2557 10.8283 2.50556C10.0781 1.75541 9.06072 1.33398 7.99985 1.33398C6.93898 1.33398 5.92157 1.75541 5.17142 2.50556C4.42128 3.2557 3.99985 4.27312 3.99985 5.33398C3.99985 7.39411 3.48016 8.80462 2.89963 9.73759C2.40993 10.5246 2.16509 10.9181 2.17407 11.0278C2.18401 11.1494 2.20976 11.1957 2.3077 11.2684C2.39616 11.334 2.79491 11.334 3.59242 11.334H12.4073C13.2048 11.334 13.6035 11.334 13.692 11.2684C13.7899 11.1957 13.8157 11.1494 13.8256 11.0278C13.8346 10.9181 13.5898 10.5246 13.1001 9.73759C12.5195 8.80462 11.9998 7.39411 11.9998 5.33398Z" stroke="#344054" stroke-width="1.5" stroke-linecap="round" stroke-linejoin="round"/>
</svg>
