<svg xmlns="http://www.w3.org/2000/svg" width="16" height="16" viewBox="0 0 16 16" fill="none">
    <g clip-path="url(#clip0_1483_38647)">
        <path
            d="M3.33331 9.99967C2.71206 9.99967 2.40143 9.99967 2.1564 9.89818C1.8297 9.76286 1.57013 9.50329 1.43481 9.17659C1.33331 8.93156 1.33331 8.62093 1.33331 7.99967V3.46634C1.33331 2.7196 1.33331 2.34624 1.47864 2.06102C1.60647 1.81014 1.81044 1.60616 2.06133 1.47833C2.34654 1.33301 2.71991 1.33301 3.46665 1.33301H7.99998C8.62124 1.33301 8.93186 1.33301 9.17689 1.4345C9.50359 1.56983 9.76316 1.82939 9.89849 2.1561C9.99998 2.40112 9.99998 2.71175 9.99998 3.33301M8.13331 14.6663H12.5333C13.28 14.6663 13.6534 14.6663 13.9386 14.521C14.1895 14.3932 14.3935 14.1892 14.5213 13.9383C14.6666 13.6531 14.6666 13.2797 14.6666 12.533V8.13301C14.6666 7.38627 14.6666 7.0129 14.5213 6.72769C14.3935 6.4768 14.1895 6.27283 13.9386 6.145C13.6534 5.99967 13.28 5.99967 12.5333 5.99967H8.13331C7.38658 5.99967 7.01321 5.99967 6.72799 6.145C6.47711 6.27283 6.27314 6.4768 6.1453 6.72769C5.99998 7.0129 5.99998 7.38627 5.99998 8.13301V12.533C5.99998 13.2797 5.99998 13.6531 6.1453 13.9383C6.27314 14.1892 6.47711 14.3932 6.72799 14.521C7.01321 14.6663 7.38658 14.6663 8.13331 14.6663Z"
            stroke="#000019" stroke-width="1.33333" stroke-linecap="round" stroke-linejoin="round" />
    </g>
    <defs>
        <clipPath id="clip0_1483_38647">
            <rect width="16" height="16" fill="white" />
        </clipPath>
    </defs>
</svg>