<svg width="67" height="86" viewBox="0 0 67 86" fill="none" xmlns="http://www.w3.org/2000/svg">
<path d="M5.72156 0C2.57283 0 0 2.57352 0 5.72224V80.2778C0 83.4265 2.57283 86 5.72156 86H61.1472C64.2959 86 66.9027 83.4265 66.9027 80.2778V5.72224C66.9034 2.5742 64.2966 0.00068249 61.1477 0.00068249L5.72156 0ZM5.72156 3.82598H61.1472C62.2303 3.82598 63.0769 4.63849 63.0769 5.72224V80.2778C63.0769 81.3609 62.2304 82.174 61.1472 82.174H5.72156C4.63842 82.174 3.82529 81.3615 3.82529 80.2778V5.72224C3.82529 4.6391 4.63781 3.82598 5.72156 3.82598ZM10.4954 16.2516V23.9036H18.1474V16.2516H10.4954ZM26.747 18.1479C25.6972 18.1479 24.8508 18.9944 24.8508 20.0776C24.8508 21.1274 25.6973 21.9739 26.747 21.9739H54.4769C55.5267 21.9739 56.3732 21.1274 56.3732 20.0776C56.3732 18.9944 55.5267 18.1479 54.4769 18.1479H26.747ZM10.4954 31.5221V39.174H18.1474V31.5221H10.4954ZM26.747 33.4518C25.6972 33.4518 24.8508 34.2983 24.8508 35.348C24.8508 36.3978 25.6973 37.2778 26.747 37.2778H54.4769C55.5267 37.2778 56.3732 36.3973 56.3732 35.348C56.3732 34.2983 55.5267 33.4518 54.4769 33.4518H26.747ZM10.4954 46.826V54.4779H18.1474V46.826H10.4954ZM26.747 48.7222C25.6972 48.7222 24.8508 49.6028 24.8508 50.652C24.8508 51.7018 25.6973 52.5482 26.747 52.5482H54.4769C55.5267 52.5482 56.3732 51.7017 56.3732 50.652C56.3732 49.6022 55.5267 48.7222 54.4769 48.7222H26.747ZM10.4954 62.0964V69.7484H18.1474V62.0964H10.4954ZM26.747 64.0261C25.6972 64.0261 24.8508 64.8727 24.8508 65.9224C24.8508 67.0056 25.6973 67.8521 26.747 67.8521H54.4769C55.5267 67.8521 56.3732 67.0056 56.3732 65.9224C56.3732 64.8726 55.5267 64.0261 54.4769 64.0261H26.747Z" fill="#EF1A61"/>
</svg>
