<svg width="22" height="22" viewBox="0 0 22 22" fill="none" xmlns="http://www.w3.org/2000/svg">
<path d="M5 20H8M14 20H17M16.5 5.5V13.5M2 5.2L2 13.8C2 14.9201 2 15.4802 2.21799 15.908C2.40973 16.2843 2.71569 16.5903 3.09202 16.782C3.51984 17 4.07989 17 5.2 17L16.8 17C17.9201 17 18.4802 17 18.908 16.782C19.2843 16.5903 19.5903 16.2843 19.782 15.908C20 15.4802 20 14.9201 20 13.8V5.2C20 4.0799 20 3.51984 19.782 3.09202C19.5903 2.7157 19.2843 2.40974 18.908 2.21799C18.4802 2 17.9201 2 16.8 2L5.2 2C4.0799 2 3.51984 2 3.09202 2.21799C2.7157 2.40973 2.40973 2.71569 2.21799 3.09202C2 3.51984 2 4.07989 2 5.2ZM10.5 9.5C10.5 10.8807 9.38071 12 8 12C6.61929 12 5.5 10.8807 5.5 9.5C5.5 8.11929 6.61929 7 8 7C9.38071 7 10.5 8.11929 10.5 9.5Z" stroke="#535251" stroke-width="2.25" stroke-linecap="round" stroke-linejoin="round"/>
</svg>
