<svg width="20" height="6" viewBox="0 0 20 6" fill="none" xmlns="http://www.w3.org/2000/svg">
<path d="M2.40456 3.11948L2.41514 3.11948M9.81311 3.11948L9.8237 3.11948M17.2217 3.11948L17.2323 3.11948M3.46292 3.11948C3.46292 3.74341 2.98908 4.24921 2.40456 4.24921C1.82004 4.24921 1.34619 3.74341 1.34619 3.11948C1.34619 2.49554 1.82004 1.98975 2.40456 1.98975C2.98908 1.98975 3.46292 2.49554 3.46292 3.11948ZM10.8715 3.11948C10.8715 3.74341 10.3976 4.24921 9.81311 4.24921C9.2286 4.24921 8.75475 3.74341 8.75475 3.11948C8.75475 2.49554 9.2286 1.98975 9.81311 1.98975C10.3976 1.98975 10.8715 2.49554 10.8715 3.11948ZM18.28 3.11948C18.28 3.74341 17.8062 4.24921 17.2217 4.24921C16.6372 4.24921 16.1633 3.74341 16.1633 3.11948C16.1633 2.49554 16.6372 1.98975 17.2217 1.98975C17.8062 1.98975 18.28 2.49554 18.28 3.11948Z" stroke="#0EA5E9" stroke-width="2" stroke-linecap="round" stroke-linejoin="round"/>
</svg>
