<svg width="16" height="14" viewBox="0 0 16 14" fill="none" xmlns="http://www.w3.org/2000/svg">
<path d="M12.6663 13V9M10.6663 11H14.6663M7.99967 9H5.33301C4.0905 9 3.46924 9 2.97919 9.20299C2.32578 9.47364 1.80665 9.99277 1.536 10.6462C1.33301 11.1362 1.33301 11.7575 1.33301 13M10.333 1.19384C11.3103 1.58943 11.9997 2.54754 11.9997 3.66667C11.9997 4.78579 11.3103 5.7439 10.333 6.13949M8.99967 3.66667C8.99967 5.13943 7.80577 6.33333 6.33301 6.33333C4.86025 6.33333 3.66634 5.13943 3.66634 3.66667C3.66634 2.19391 4.86025 1 6.33301 1C7.80577 1 8.99967 2.19391 8.99967 3.66667Z" stroke="white" stroke-width="1.5" stroke-linecap="round" stroke-linejoin="round"/>
</svg>
