<svg width="18" height="18" viewBox="0 0 18 18" fill="none" xmlns="http://www.w3.org/2000/svg">
<rect width="18" height="18" rx="4" fill="#0000D1"/>
<path d="M8.23777 5.66667L4.42825 12.3333M4.99967 13.6667H12.9995M13.5711 12.3333L9.76158 5.66667M3.39967 15H3.93301C4.30638 15 4.49306 15 4.63567 14.9273C4.76111 14.8634 4.8631 14.7614 4.92701 14.636C4.99967 14.4934 4.99967 14.3067 4.99967 13.9333V13.4C4.99967 13.0266 4.99967 12.8399 4.92701 12.6973C4.8631 12.5719 4.76111 12.4699 4.63567 12.406C4.49306 12.3333 4.30638 12.3333 3.93301 12.3333H3.39967C3.02631 12.3333 2.83962 12.3333 2.69701 12.406C2.57157 12.4699 2.46959 12.5719 2.40567 12.6973C2.33301 12.8399 2.33301 13.0266 2.33301 13.4V13.9333C2.33301 14.3067 2.33301 14.4934 2.40567 14.636C2.46959 14.7614 2.57157 14.8634 2.69701 14.9273C2.83962 15 3.02631 15 3.39967 15ZM14.0663 15H14.5997C14.973 15 15.1597 15 15.3023 14.9273C15.4278 14.8634 15.5298 14.7614 15.5937 14.636C15.6663 14.4934 15.6663 14.3067 15.6663 13.9333V13.4C15.6663 13.0266 15.6663 12.8399 15.5937 12.6973C15.5298 12.5719 15.4278 12.4699 15.3023 12.406C15.1597 12.3333 14.973 12.3333 14.5997 12.3333H14.0663C13.693 12.3333 13.5063 12.3333 13.3637 12.406C13.2382 12.4699 13.1363 12.5719 13.0723 12.6973C12.9997 12.8399 12.9997 13.0266 12.9997 13.4V13.9333C12.9997 14.3067 12.9997 14.4934 13.0723 14.636C13.1363 14.7614 13.2382 14.8634 13.3637 14.9273C13.5063 15 13.693 15 14.0663 15ZM8.73301 5.66667H9.26634C9.63971 5.66667 9.82639 5.66667 9.969 5.594C10.0944 5.53009 10.1964 5.4281 10.2603 5.30266C10.333 5.16005 10.333 4.97337 10.333 4.6V4.06667C10.333 3.6933 10.333 3.50661 10.2603 3.36401C10.1964 3.23856 10.0944 3.13658 9.969 3.07266C9.82639 3 9.63971 3 9.26634 3H8.73301C8.35964 3 8.17296 3 8.03035 3.07266C7.90491 3.13658 7.80292 3.23856 7.739 3.36401C7.66634 3.50661 7.66634 3.6933 7.66634 4.06667V4.6C7.66634 4.97337 7.66634 5.16005 7.739 5.30266C7.80292 5.4281 7.90491 5.53009 8.03035 5.594C8.17296 5.66667 8.35964 5.66667 8.73301 5.66667Z" stroke="white" stroke-width="1.5" stroke-linecap="round" stroke-linejoin="round"/>
</svg>
