<svg width="64" height="64" viewBox="0 0 64 64" fill="none" xmlns="http://www.w3.org/2000/svg">
<rect width="64" height="64" rx="32" fill="#E6E6FF"/>
<path opacity="0.12" d="M29.333 32C32.6467 32 35.333 29.3137 35.333 26C35.333 22.6863 32.6467 20 29.333 20C26.0193 20 23.333 22.6863 23.333 26C23.333 29.3137 26.0193 32 29.333 32Z" fill="#0200E8"/>
<path d="M32.0003 36.6667H26.0003C24.1396 36.6667 23.2092 36.6667 22.4521 36.8963C20.7476 37.4134 19.4137 38.7473 18.8966 40.4518C18.667 41.2089 18.667 42.1393 18.667 44M41.3337 44V36M37.3337 40H45.3337M35.3337 26C35.3337 29.3137 32.6474 32 29.3337 32C26.02 32 23.3337 29.3137 23.3337 26C23.3337 22.6863 26.02 20 29.3337 20C32.6474 20 35.3337 22.6863 35.3337 26Z" stroke="#0200E8" stroke-width="2" stroke-linecap="round" stroke-linejoin="round"/>
</svg>
