<svg width="40" height="50" viewBox="0 0 40 50" fill="none" xmlns="http://www.w3.org/2000/svg">
<path d="M24.6667 22.667H10.6667M15.3334 32.0003H10.6667M29.3334 13.3337H10.6667M38.6667 12.867V37.1337C38.6667 41.054 38.6667 43.0142 37.9038 44.5116C37.2326 45.8287 36.1618 46.8996 34.8446 47.5707C33.3473 48.3337 31.3871 48.3337 27.4667 48.3337H12.5334C8.61301 48.3337 6.65282 48.3337 5.15544 47.5707C3.83831 46.8996 2.76744 45.8287 2.09633 44.5116C1.33337 43.0142 1.33337 41.054 1.33337 37.1337V12.867C1.33337 8.94662 1.33337 6.98644 2.09633 5.48906C2.76744 4.17192 3.83831 3.10106 5.15544 2.42995C6.65282 1.66699 8.61301 1.66699 12.5334 1.66699H27.4667C31.3871 1.66699 33.3473 1.66699 34.8446 2.42995C36.1618 3.10106 37.2326 4.17192 37.9038 5.48906C38.6667 6.98644 38.6667 8.94662 38.6667 12.867Z" stroke="#1D2939" stroke-width="2.5" stroke-linecap="round" stroke-linejoin="round"/>
</svg>
