<svg width="14" height="14" viewBox="0 0 14 14" fill="none" xmlns="http://www.w3.org/2000/svg">
<path d="M4.33341 3.66667V9C4.33341 9.73638 4.93037 10.3333 5.66675 10.3333H9.66675M4.33341 3.66667V2.33333C4.33341 1.59695 4.93037 1 5.66675 1H8.72394C8.90075 1 9.07032 1.07024 9.19534 1.19526L12.1382 4.13807C12.2632 4.2631 12.3334 4.43266 12.3334 4.60948V9C12.3334 9.73638 11.7365 10.3333 11.0001 10.3333H9.66675M4.33341 3.66667H3.66675C2.56218 3.66667 1.66675 4.5621 1.66675 5.66667V11.6667C1.66675 12.403 2.2637 13 3.00008 13H7.66675C8.77132 13 9.66675 12.1046 9.66675 11V10.3333" stroke="#9CA3AF" stroke-width="2" stroke-linecap="round" stroke-linejoin="round"/>
</svg>
