<svg width="10" height="12" viewBox="0 0 10 12" fill="none" xmlns="http://www.w3.org/2000/svg">
<path d="M2 8.49992C2 8.67557 2 8.7634 2.00783 8.83975C2.07287 9.47363 2.5313 9.99724 3.15103 10.1455C3.22567 10.1633 3.31275 10.175 3.48684 10.1982L6.78281 10.6376C7.72102 10.7627 8.19013 10.8253 8.55422 10.6805C8.87388 10.5534 9.14014 10.3203 9.30838 10.0202C9.5 9.67846 9.5 9.2052 9.5 8.25868V3.74116C9.5 2.79464 9.5 2.32138 9.30838 1.97961C9.14014 1.67956 8.87388 1.44644 8.55422 1.31934C8.19013 1.17457 7.72102 1.23712 6.78281 1.36221L3.48684 1.80167C3.31273 1.82489 3.22568 1.8365 3.15103 1.85435C2.5313 2.0026 2.07287 2.52621 2.00783 3.16009C2 3.23644 2 3.32427 2 3.49992M5 3.99992L7 5.99992M7 5.99992L5 7.99992M7 5.99992H0.5" stroke="white" stroke-linecap="round" stroke-linejoin="round"/>
</svg>
