<svg width="32" height="32" viewBox="0 0 32 32" fill="none" xmlns="http://www.w3.org/2000/svg">
<path d="M26.6663 16.666V9.06602C26.6663 6.82581 26.6663 5.7057 26.2304 4.85005C25.8469 4.09741 25.2349 3.48548 24.4823 3.10199C23.6267 2.66602 22.5066 2.66602 20.2663 2.66602H11.733C9.4928 2.66602 8.37269 2.66602 7.51705 3.10199C6.7644 3.48548 6.15248 4.09741 5.76898 4.85005C5.33301 5.7057 5.33301 6.82581 5.33301 9.06602V22.9327C5.33301 25.1729 5.33301 26.293 5.76898 27.1486C6.15248 27.9013 6.7644 28.5132 7.51705 28.8967C8.37269 29.3327 9.4928 29.3327 11.733 29.3327H15.9997M18.6663 14.666H10.6663M13.333 19.9993H10.6663M21.333 9.33268H10.6663M19.333 25.3327L21.9997 27.9993L27.9997 21.9993" stroke="#989796" stroke-width="2.5" stroke-linecap="round" stroke-linejoin="round"/>
</svg>
