<svg width="16" height="16" viewBox="0 0 16 16" fill="none" xmlns="http://www.w3.org/2000/svg">
<path d="M2.25734 3.77791C1.75312 3.21437 1.501 2.93259 1.49149 2.69312C1.48323 2.48509 1.57263 2.28515 1.73317 2.15259C1.91797 2 2.29607 2 3.05227 2H12.9476C13.7038 2 14.0818 2 14.2667 2.15259C14.4272 2.28515 14.5166 2.48509 14.5083 2.69312C14.4988 2.93259 14.2467 3.21437 13.7425 3.77791L9.93832 8.02962C9.83781 8.14196 9.78755 8.19813 9.75172 8.26205C9.71994 8.31875 9.69662 8.37978 9.6825 8.44323C9.66658 8.51476 9.66658 8.59013 9.66658 8.74087V12.3056C9.66658 12.436 9.66658 12.5011 9.64555 12.5575C9.62697 12.6073 9.59675 12.6519 9.55741 12.6877C9.51289 12.7281 9.45237 12.7524 9.33132 12.8008L7.06465 13.7074C6.81962 13.8054 6.69711 13.8545 6.59876 13.834C6.51276 13.8161 6.43728 13.765 6.38875 13.6918C6.33325 13.6081 6.33324 13.4762 6.33324 13.2122V8.74087C6.33324 8.59013 6.33324 8.51476 6.31733 8.44323C6.30321 8.37978 6.27989 8.31875 6.24811 8.26205C6.21227 8.19813 6.16201 8.14196 6.0615 8.02962L2.25734 3.77791Z" stroke="#667085" stroke-width="1.5" stroke-linecap="round" stroke-linejoin="round"/>
</svg>
