<svg width="32" height="32" viewBox="0 0 32 32" fill="none" xmlns="http://www.w3.org/2000/svg">
<path d="M28 16L12 16M28 7.99996L12 7.99996M28 24L12 24M6.66667 16C6.66667 16.7363 6.06971 17.3333 5.33333 17.3333C4.59695 17.3333 4 16.7363 4 16C4 15.2636 4.59695 14.6666 5.33333 14.6666C6.06971 14.6666 6.66667 15.2636 6.66667 16ZM6.66667 7.99996C6.66667 8.73634 6.06971 9.33329 5.33333 9.33329C4.59695 9.33329 4 8.73634 4 7.99996C4 7.26358 4.59695 6.66663 5.33333 6.66663C6.06971 6.66663 6.66667 7.26358 6.66667 7.99996ZM6.66667 24C6.66667 24.7363 6.06971 25.3333 5.33333 25.3333C4.59695 25.3333 4 24.7363 4 24C4 23.2636 4.59695 22.6666 5.33333 22.6666C6.06971 22.6666 6.66667 23.2636 6.66667 24Z" stroke="#555B64" stroke-width="2.5" stroke-linecap="round" stroke-linejoin="round"/>
</svg>
