<svg width="80" height="80" viewBox="0 0 80 80" fill="none" xmlns="http://www.w3.org/2000/svg">
<rect width="80" height="80" rx="40" fill="#F3F5F7"/>
<path d="M52 40L36 40M52 32L36 32M52 48L36 48M30.6667 40C30.6667 40.7363 30.0697 41.3333 29.3333 41.3333C28.597 41.3333 28 40.7363 28 40C28 39.2636 28.597 38.6666 29.3333 38.6666C30.0697 38.6666 30.6667 39.2636 30.6667 40ZM30.6667 32C30.6667 32.7363 30.0697 33.3333 29.3333 33.3333C28.597 33.3333 28 32.7363 28 32C28 31.2636 28.597 30.6666 29.3333 30.6666C30.0697 30.6666 30.6667 31.2636 30.6667 32ZM30.6667 48C30.6667 48.7363 30.0697 49.3333 29.3333 49.3333C28.597 49.3333 28 48.7363 28 48C28 47.2636 28.597 46.6666 29.3333 46.6666C30.0697 46.6666 30.6667 47.2636 30.6667 48Z" stroke="#555B64" stroke-width="2.5" stroke-linecap="round" stroke-linejoin="round"/>
</svg>
