<svg width="80" height="80" viewBox="0 0 80 80" fill="none" xmlns="http://www.w3.org/2000/svg">
<rect width="80" height="80" rx="40" fill="#F1F1EF"/>
<path d="M42.667 35.9993H39.3337C38.2291 35.9993 37.3337 36.8948 37.3337 37.9993C37.3337 39.1039 38.2291 39.9993 39.3337 39.9993H40.667C41.7716 39.9993 42.667 40.8948 42.667 41.9993C42.667 43.1039 41.7716 43.9993 40.667 43.9993H37.3337M40.0003 34.666V35.9993M40.0003 43.9993V45.3327M48.0003 39.9993H48.0137M32.0003 39.9993H32.0137M26.667 34.9327L26.667 45.066C26.667 46.5595 26.667 47.3062 26.9576 47.8767C27.2133 48.3784 27.6213 48.7864 28.123 49.042C28.6934 49.3327 29.4402 49.3327 30.9337 49.3327L49.067 49.3327C50.5605 49.3327 51.3072 49.3327 51.8776 49.042C52.3794 48.7864 52.7873 48.3784 53.043 47.8767C53.3337 47.3062 53.3337 46.5595 53.3337 45.066V34.9327C53.3337 33.4392 53.3337 32.6925 53.043 32.122C52.7874 31.6203 52.3794 31.2123 51.8776 30.9567C51.3072 30.666 50.5605 30.666 49.067 30.666L30.9337 30.666C29.4402 30.666 28.6934 30.666 28.123 30.9567C27.6213 31.2123 27.2133 31.6203 26.9576 32.122C26.667 32.6925 26.667 33.4392 26.667 34.9327ZM48.667 39.9993C48.667 40.3675 48.3685 40.666 48.0003 40.666C47.6321 40.666 47.3337 40.3675 47.3337 39.9993C47.3337 39.6312 47.6321 39.3327 48.0003 39.3327C48.3685 39.3327 48.667 39.6312 48.667 39.9993ZM32.667 39.9993C32.667 40.3675 32.3685 40.666 32.0003 40.666C31.6321 40.666 31.3337 40.3675 31.3337 39.9993C31.3337 39.6312 31.6321 39.3327 32.0003 39.3327C32.3685 39.3327 32.667 39.6312 32.667 39.9993Z" stroke="#989796" stroke-width="2.5" stroke-linecap="round" stroke-linejoin="round"/>
</svg>
