<svg width="16" height="16" viewBox="0 0 16 16" fill="none" xmlns="http://www.w3.org/2000/svg">
<path d="M4.33301 8.66732L4.85598 9.71326C5.03297 10.0672 5.12147 10.2442 5.2397 10.3976C5.3446 10.5337 5.46661 10.6557 5.60271 10.7606C5.75608 10.8789 5.93308 10.9674 6.28706 11.1443L7.33301 11.6673L6.28706 12.1903C5.93308 12.3673 5.75609 12.4558 5.60271 12.574C5.46661 12.6789 5.3446 12.8009 5.2397 12.937C5.12147 13.0904 5.03297 13.2674 4.85598 13.6214L4.33301 14.6673L3.81004 13.6214C3.63304 13.2674 3.54455 13.0904 3.42632 12.937C3.32141 12.8009 3.1994 12.6789 3.06331 12.574C2.90993 12.4558 2.73294 12.3673 2.37895 12.1903L1.33301 11.6673L2.37895 11.1443C2.73294 10.9674 2.90993 10.8789 3.06331 10.7606C3.1994 10.6557 3.32141 10.5337 3.42632 10.3976C3.54455 10.2442 3.63304 10.0672 3.81004 9.71326L4.33301 8.66732Z" stroke="#98A2B3" stroke-width="1.5" stroke-linecap="round" stroke-linejoin="round"/>
<path d="M9.99967 1.33398L10.7854 3.37693C10.9734 3.86575 11.0674 4.11016 11.2136 4.31575C11.3432 4.49795 11.5024 4.65715 11.6846 4.78671C11.8902 4.93289 12.1346 5.0269 12.6234 5.2149L14.6663 6.00065L12.6234 6.7864C12.1346 6.97441 11.8902 7.06841 11.6846 7.21459C11.5024 7.34415 11.3432 7.50335 11.2136 7.68556C11.0674 7.89114 10.9734 8.13555 10.7854 8.62437L9.99968 10.6673L9.21393 8.62437C9.02592 8.13555 8.93191 7.89114 8.78573 7.68556C8.65617 7.50335 8.49698 7.34415 8.31477 7.21459C8.10918 7.06841 7.86477 6.97441 7.37595 6.7864L5.33301 6.00065L7.37595 5.2149C7.86477 5.0269 8.10918 4.93289 8.31477 4.78671C8.49698 4.65715 8.65617 4.49795 8.78573 4.31575C8.93191 4.11016 9.02592 3.86575 9.21393 3.37693L9.99967 1.33398Z" stroke="#98A2B3" stroke-width="1.5" stroke-linecap="round" stroke-linejoin="round"/>
</svg>
