<svg width="32" height="32" viewBox="0 0 32 32" fill="none" xmlns="http://www.w3.org/2000/svg">
<path opacity="0.9" d="M32 16C32 20.2436 30.3142 24.3133 27.3135 27.3135C24.3128 30.3142 20.2431 32 16 32C11.7569 32 7.68666 30.3142 4.6865 27.3135C1.68583 24.3128 0 20.2431 0 16C0 11.7569 1.68583 7.68666 4.6865 4.6865C7.68716 1.68583 11.7569 0 16 0C16.725 0 17.3124 0.587474 17.3124 1.31244C17.3124 2.03741 16.725 2.62489 16 2.62489C12.4525 2.62489 9.0503 4.03422 6.54221 6.54272C4.03372 9.05081 2.62438 12.453 2.62438 16.0005C2.62438 19.548 4.03372 22.9502 6.54221 25.4583C9.0503 27.9668 12.4525 29.3761 16 29.3761C19.5475 29.3761 22.9497 27.9668 25.4578 25.4583C27.9663 22.9502 29.3756 19.548 29.3756 16.0005C29.3756 15.2755 29.9631 14.6881 30.6881 14.6881C31.413 14.6881 32 15.275 32 16Z" fill="#D46A0A"/>
</svg>
