<svg width="44" height="44" viewBox="0 0 44 44" fill="none" xmlns="http://www.w3.org/2000/svg">
<rect width="44" height="44" rx="22" fill="#FDF77D"/>
<path d="M24.3327 20.8333H17.3327M19.666 25.4999H17.3327M26.666 16.1666H17.3327M31.3327 15.9333V28.0666C31.3327 30.0268 31.3327 31.0069 30.9512 31.7556C30.6156 32.4141 30.0802 32.9496 29.4217 33.2851C28.673 33.6666 27.6929 33.6666 25.7327 33.6666H18.266C16.3058 33.6666 15.3257 33.6666 14.577 33.2851C13.9185 32.9496 13.383 32.4141 13.0475 31.7556C12.666 31.0069 12.666 30.0268 12.666 28.0666V15.9333C12.666 13.9731 12.666 12.993 13.0475 12.2443C13.383 11.5857 13.9185 11.0503 14.577 10.7147C15.3257 10.3333 16.3058 10.3333 18.266 10.3333H25.7327C27.6929 10.3333 28.673 10.3333 29.4217 10.7147C30.0802 11.0503 30.6156 11.5857 30.9512 12.2443C31.3327 12.993 31.3327 13.9731 31.3327 15.9333Z" stroke="#344054" stroke-width="1.5" stroke-linecap="round" stroke-linejoin="round"/>
</svg>
