<svg width="14" height="14" viewBox="0 0 14 14" fill="none" xmlns="http://www.w3.org/2000/svg">
<path d="M3.10052 11.3392C3.45538 10.5031 4.28389 9.91675 5.24935 9.91675H8.74935C9.71481 9.91675 10.5433 10.5031 10.8982 11.3392M9.33268 5.54175C9.33268 6.83041 8.28801 7.87508 6.99935 7.87508C5.71068 7.87508 4.66602 6.83041 4.66602 5.54175C4.66602 4.25308 5.71068 3.20841 6.99935 3.20841C8.28801 3.20841 9.33268 4.25308 9.33268 5.54175ZM12.8327 7.00008C12.8327 10.2217 10.221 12.8334 6.99935 12.8334C3.77769 12.8334 1.16602 10.2217 1.16602 7.00008C1.16602 3.77842 3.77769 1.16675 6.99935 1.16675C10.221 1.16675 12.8327 3.77842 12.8327 7.00008Z" stroke="#344054" stroke-width="1.5" stroke-linecap="round" stroke-linejoin="round"/>
</svg>
