<svg width="80" height="80" viewBox="0 0 80 80" fill="none" xmlns="http://www.w3.org/2000/svg">
<rect width="80" height="80" rx="40" fill="#F3F5F7"/>
<path d="M30.6666 41.3333C30.6666 36.9151 34.2483 33.3333 38.6666 33.3333M30.6666 41.3333C30.6666 43.5312 31.5529 45.522 32.9876 46.9679C33.1259 47.1074 33.1951 47.1771 33.2359 47.2442C33.2749 47.3081 33.2976 47.3632 33.315 47.4361C33.3332 47.5124 33.3332 47.5993 33.3332 47.7731V50.9333C33.3332 51.3067 33.3332 51.4934 33.4059 51.636C33.4698 51.7614 33.5718 51.8634 33.6972 51.9273C33.8399 52 34.0265 52 34.3999 52H36.9332C37.3066 52 37.4933 52 37.6359 51.9273C37.7613 51.8634 37.8633 51.7614 37.9272 51.636C37.9999 51.4934 37.9999 51.3067 37.9999 50.9333V50.4C37.9999 50.0266 37.9999 49.8399 38.0726 49.6973C38.1365 49.5719 38.2385 49.4699 38.3639 49.406C38.5065 49.3333 38.6932 49.3333 39.0666 49.3333H40.9332C41.3066 49.3333 41.4933 49.3333 41.6359 49.406C41.7613 49.4699 41.8633 49.5719 41.9272 49.6973C41.9999 49.8399 41.9999 50.0266 41.9999 50.4V50.9333C41.9999 51.3067 41.9999 51.4934 42.0726 51.636C42.1365 51.7614 42.2385 51.8634 42.3639 51.9273C42.5065 52 42.6932 52 43.0666 52H45.6C45.9734 52 46.1601 52 46.3027 51.9273C46.4281 51.8634 46.5301 51.7614 46.594 51.636C46.6667 51.4934 46.6667 51.3067 46.6667 50.9333V49.6324C46.6667 49.363 46.6667 49.2283 46.705 49.1202C46.7418 49.0165 46.7881 48.944 46.8666 48.867C46.9485 48.7867 47.0873 48.7222 47.3649 48.5934C48.6745 47.9854 49.7921 47.0334 50.6015 45.8536C50.7438 45.6461 50.815 45.5423 50.891 45.4811C50.9637 45.4225 51.0289 45.3881 51.1183 45.3613C51.2119 45.3333 51.3229 45.3333 51.545 45.3333H52.2667C52.64 45.3333 52.8267 45.3333 52.9693 45.2607C53.0948 45.1968 53.1968 45.0948 53.2607 44.9693C53.3333 44.8267 53.3333 44.64 53.3333 44.2667V39.7143C53.3333 39.3589 53.3333 39.1812 53.2673 39.044C53.2018 38.908 53.092 38.7982 52.956 38.7327C52.8189 38.6667 52.6411 38.6667 52.2857 38.6667C52.0284 38.6667 51.8997 38.6667 51.7961 38.6317C51.6844 38.5941 51.6061 38.544 51.525 38.4584C51.4498 38.379 51.3884 38.2462 51.2657 37.9806C50.8717 37.1283 50.3322 36.357 49.679 35.6987C49.5406 35.5593 49.4715 35.4896 49.4306 35.4225C49.3917 35.3585 49.369 35.3034 49.3516 35.2306C49.3333 35.1542 49.3333 35.0673 49.3333 34.8936V33.4141C49.3333 32.934 49.3333 32.694 49.2334 32.5327C49.1458 32.3913 49.0086 32.2878 48.8486 32.2425C48.666 32.1907 48.4352 32.2566 47.9736 32.3885L44.8102 33.2923C44.7565 33.3077 44.7296 33.3153 44.7023 33.3207C44.678 33.3255 44.6535 33.3289 44.6288 33.331C44.6011 33.3333 44.5729 33.3333 44.5165 33.3333H38.6666M30.6666 41.3333H29.3333C27.8606 41.3333 26.6667 40.1394 26.6667 38.6667C26.6667 37.6796 27.2029 36.8178 28 36.3568M38.6666 33.3333H43.9527C43.9839 33.1156 44 32.893 44 32.6667C44 30.0893 41.9107 28 39.3333 28C36.756 28 34.6667 30.0893 34.6667 32.6667C34.6667 33.2229 34.764 33.7565 34.9426 34.2512C36.0549 33.6651 37.3219 33.3333 38.6666 33.3333Z" stroke="#99A4AF" stroke-width="2.5" stroke-linecap="round" stroke-linejoin="round"/>
</svg>
