<svg width="32" height="32" viewBox="0 0 32 32" fill="none" xmlns="http://www.w3.org/2000/svg">
<rect width="32" height="32" rx="8" fill="#F1F1EF"/>
<path d="M12 22H14M18 22H20M19.6667 12.3333V17.6667M10 12.1333L10 17.8667C10 18.6134 10 18.9868 10.1453 19.272C10.2732 19.5229 10.4771 19.7268 10.728 19.8547C11.0132 20 11.3866 20 12.1333 20L19.8667 20C20.6134 20 20.9868 20 21.272 19.8547C21.5229 19.7268 21.7268 19.5229 21.8547 19.272C22 18.9868 22 18.6134 22 17.8667V12.1333C22 11.3866 22 11.0132 21.8547 10.728C21.7268 10.4771 21.5229 10.2732 21.272 10.1453C20.9868 10 20.6134 10 19.8667 10L12.1333 10C11.3866 10 11.0132 10 10.728 10.1453C10.4771 10.2732 10.2732 10.4771 10.1453 10.728C10 11.0132 10 11.3866 10 12.1333ZM15.6667 15C15.6667 15.9205 14.9205 16.6667 14 16.6667C13.0795 16.6667 12.3333 15.9205 12.3333 15C12.3333 14.0795 13.0795 13.3333 14 13.3333C14.9205 13.3333 15.6667 14.0795 15.6667 15Z" stroke="#777675" stroke-width="1.5" stroke-linecap="round" stroke-linejoin="round"/>
</svg>
