<svg width="32" height="32" viewBox="0 0 32 32" fill="none" xmlns="http://www.w3.org/2000/svg">
<rect width="32" height="32" rx="8" fill="#F1F1EF"/>
<path d="M18.6667 13.3332V11.0003C18.6667 10.4458 18.6667 10.1686 18.5499 9.9982C18.4478 9.84934 18.2898 9.74822 18.1118 9.71794C17.9082 9.68328 17.6565 9.79947 17.153 10.0318L11.2393 12.7612C10.7903 12.9684 10.5658 13.0721 10.4014 13.2328C10.256 13.3748 10.1451 13.5483 10.077 13.7398C10 13.9564 10 14.2037 10 14.6982V17.9999M19 17.6666H19.0067M10 15.4666L10 19.8666C10 20.6133 10 20.9867 10.1453 21.2719C10.2732 21.5228 10.4771 21.7267 10.728 21.8546C11.0132 21.9999 11.3866 21.9999 12.1333 21.9999H19.8667C20.6134 21.9999 20.9868 21.9999 21.272 21.8546C21.5229 21.7267 21.7268 21.5228 21.8547 21.2719C22 20.9867 22 20.6133 22 19.8666V15.4666C22 14.7198 22 14.3464 21.8547 14.0612C21.7268 13.8103 21.5229 13.6064 21.272 13.4785C20.9868 13.3332 20.6134 13.3332 19.8667 13.3332L12.1333 13.3332C11.3866 13.3332 11.0132 13.3332 10.728 13.4785C10.4771 13.6064 10.2732 13.8103 10.1453 14.0612C10 14.3464 10 14.7198 10 15.4666ZM19.3333 17.6666C19.3333 17.8506 19.1841 17.9999 19 17.9999C18.8159 17.9999 18.6667 17.8506 18.6667 17.6666C18.6667 17.4825 18.8159 17.3332 19 17.3332C19.1841 17.3332 19.3333 17.4825 19.3333 17.6666Z" stroke="#777675" stroke-width="1.5" stroke-linecap="round" stroke-linejoin="round"/>
</svg>
