<svg width="17" height="16" viewBox="0 0 17 16" fill="none" xmlns="http://www.w3.org/2000/svg">
<path d="M4.5 14H6.5M10.5 14H12.5M12.1667 4.33333V9.66667M2.5 4.13333L2.5 9.86667C2.5 10.6134 2.5 10.9868 2.64532 11.272C2.77316 11.5229 2.97713 11.7268 3.22801 11.8547C3.51323 12 3.8866 12 4.63333 12L12.3667 12C13.1134 12 13.4868 12 13.772 11.8547C14.0229 11.7268 14.2268 11.5229 14.3547 11.272C14.5 10.9868 14.5 10.6134 14.5 9.86667V4.13333C14.5 3.3866 14.5 3.01323 14.3547 2.72801C14.2268 2.47713 14.0229 2.27316 13.772 2.14533C13.4868 2 13.1134 2 12.3667 2L4.63333 2C3.8866 2 3.51323 2 3.22801 2.14532C2.97713 2.27316 2.77316 2.47713 2.64532 2.72801C2.5 3.01323 2.5 3.3866 2.5 4.13333ZM8.16667 7C8.16667 7.92047 7.42048 8.66667 6.5 8.66667C5.57953 8.66667 4.83333 7.92047 4.83333 7C4.83333 6.07953 5.57953 5.33333 6.5 5.33333C7.42048 5.33333 8.16667 6.07953 8.16667 7Z" stroke="#98A2B3" stroke-width="1.5" stroke-linecap="round" stroke-linejoin="round"/>
</svg>
