<svg width="16" height="16" viewBox="0 0 16 16" fill="none" xmlns="http://www.w3.org/2000/svg">
<path d="M2.66699 4.53325C2.66699 3.41315 2.66699 2.85309 2.88498 2.42527C3.07673 2.04895 3.38269 1.74299 3.75901 1.55124C4.18683 1.33325 4.74689 1.33325 5.86699 1.33325H8.00818C8.49736 1.33325 8.74195 1.33325 8.97212 1.38851C9.17619 1.43751 9.37128 1.51831 9.55023 1.62797C9.75206 1.75166 9.92501 1.92461 10.2709 2.27051L12.3964 4.39599C12.7423 4.7419 12.9153 4.91485 13.0389 5.11668C13.1486 5.29563 13.2294 5.49072 13.2784 5.69479C13.3337 5.92496 13.3337 6.16955 13.3337 6.65874V11.4666C13.3337 12.5867 13.3337 13.1467 13.1157 13.5746C12.9239 13.9509 12.618 14.2569 12.2416 14.4486C11.8138 14.6666 11.2538 14.6666 10.1337 14.6666H5.86699C4.74689 14.6666 4.18683 14.6666 3.75901 14.4486C3.38269 14.2569 3.07673 13.9509 2.88498 13.5746C2.66699 13.1467 2.66699 12.5867 2.66699 11.4666V4.53325Z" stroke="#98A2B3" stroke-width="1.5" stroke-linecap="round" stroke-linejoin="round"/>
<path d="M5.33366 9.19992C5.33366 9.01323 5.33366 8.91989 5.36999 8.84859C5.40195 8.78587 5.45294 8.73487 5.51566 8.70292C5.58697 8.66659 5.68031 8.66659 5.86699 8.66659H10.1337C10.3203 8.66659 10.4137 8.66659 10.485 8.70292C10.5477 8.73487 10.5987 8.78587 10.6307 8.84859C10.667 8.91989 10.667 9.01323 10.667 9.19992V11.4666C10.667 11.6533 10.667 11.7466 10.6307 11.8179C10.5987 11.8806 10.5477 11.9316 10.485 11.9636C10.4137 11.9999 10.3203 11.9999 10.1337 11.9999H5.86699C5.68031 11.9999 5.58697 11.9999 5.51566 11.9636C5.45294 11.9316 5.40195 11.8806 5.36999 11.8179C5.33366 11.7466 5.33366 11.6533 5.33366 11.4666V9.19992Z" stroke="#98A2B3" stroke-width="1.5" stroke-linecap="round" stroke-linejoin="round"/>
</svg>
