<svg width="16" height="16" viewBox="0 0 16 16" fill="none" xmlns="http://www.w3.org/2000/svg">
<path d="M7.52193 2.30217C7.67559 1.99088 7.75242 1.83523 7.85672 1.7855C7.94746 1.74224 8.05289 1.74224 8.14363 1.7855C8.24793 1.83523 8.32476 1.99088 8.47842 2.30217L9.9362 5.25548C9.98157 5.34738 10.0042 5.39333 10.0374 5.42901C10.0667 5.4606 10.1019 5.48619 10.141 5.50437C10.1852 5.52491 10.2359 5.53232 10.3373 5.54714L13.5982 6.02376C13.9415 6.07395 14.1132 6.09905 14.1927 6.18292C14.2618 6.25589 14.2943 6.35616 14.2812 6.45581C14.266 6.57034 14.1417 6.69141 13.8931 6.93355L11.5345 9.23091C11.4609 9.30252 11.4242 9.33833 11.4004 9.38093C11.3794 9.41866 11.366 9.4601 11.3608 9.50296C11.3549 9.55137 11.3636 9.60196 11.3809 9.70312L11.9375 12.948C11.9962 13.2903 12.0255 13.4614 11.9704 13.563C11.9224 13.6513 11.8371 13.7133 11.7382 13.7316C11.6246 13.7527 11.4709 13.6719 11.1636 13.5102L8.24841 11.9772C8.15758 11.9294 8.11217 11.9055 8.06432 11.8961C8.02196 11.8878 7.97839 11.8878 7.93602 11.8961C7.88818 11.9055 7.84276 11.9294 7.75193 11.9772L4.83678 13.5102C4.52944 13.6719 4.37577 13.7527 4.26214 13.7316C4.16328 13.7133 4.07798 13.6513 4.02999 13.563C3.97483 13.4614 4.00418 13.2903 4.06288 12.948L4.61942 9.70312C4.63677 9.60196 4.64545 9.55137 4.63958 9.50296C4.63438 9.4601 4.6209 9.41866 4.5999 9.38093C4.57618 9.33833 4.53941 9.30252 4.46589 9.2309L2.1072 6.93355C1.8586 6.69141 1.73431 6.57034 1.71918 6.45581C1.70602 6.35616 1.73853 6.25589 1.80766 6.18292C1.88712 6.09905 2.05881 6.07395 2.40219 6.02376L5.66304 5.54714C5.76445 5.53232 5.81515 5.52491 5.85931 5.50437C5.89841 5.48619 5.9336 5.4606 5.96295 5.42901C5.9961 5.39333 6.01878 5.34738 6.06415 5.25548L7.52193 2.30217Z" fill="#535251" stroke="#535251" stroke-width="1.5" stroke-linecap="round" stroke-linejoin="round"/>
</svg>
