<svg width="56" height="56" viewBox="0 0 56 56" fill="none" xmlns="http://www.w3.org/2000/svg">
<path fill-rule="evenodd" clip-rule="evenodd" d="M19 18C19 17.4477 19.4477 17 20 17L26 17.0002C26.5523 17.0002 27 17.4479 27 18.0002V24C27 24.5523 26.5523 25 26 25C25.4477 25 25 24.5523 25 24L25 19.8745C24.3831 20.3865 23.5215 21.165 22.3431 22.3433C19.219 25.4675 19.219 30.5329 22.3431 33.6571C23.4511 34.765 24.8006 35.4788 26.2213 35.8012C26.7599 35.9234 27.0974 36.459 26.9752 36.9976C26.853 37.5362 26.3173 37.8738 25.7787 37.7516C24.0009 37.3482 22.3115 36.4538 20.9289 35.0713C17.0237 31.166 17.0237 24.8344 20.9289 20.9291C21.727 20.1311 22.3952 19.4999 22.9537 19.0001L20 19C19.4477 19 19 18.5523 19 18ZM29.0248 19.0026C29.147 18.464 29.6827 18.1264 30.2213 18.2486C31.9991 18.652 33.6885 19.5464 35.0711 20.9289C38.9763 24.8342 38.9763 31.1658 35.0711 35.0711C34.2731 35.8691 33.6049 36.5003 33.0464 37H36C36.5523 37 37 37.4477 37 38C37 38.5523 36.5523 39 36 39H30C29.7348 39 29.4804 38.8946 29.2929 38.7071C29.1054 38.5196 29 38.2652 29 38L29 32C29 31.4477 29.4477 31 30 31C30.5523 31 31 31.4477 31 32L31 36.1257C31.6169 35.6137 32.4785 34.8352 33.6569 33.6569C36.781 30.5327 36.781 25.4673 33.6569 22.3431C32.5489 21.2352 31.1994 20.5214 29.7787 20.199C29.2401 20.0768 28.9026 19.5412 29.0248 19.0026Z" fill="#667085" stroke="#667085" stroke-width="1" stroke-linecap="round" stroke-linejoin="round"/>
</svg>
