<svg width="80" height="80" viewBox="0 0 80 80" fill="none" xmlns="http://www.w3.org/2000/svg">
<rect width="80" height="80" rx="40" fill="#FFE8E8"/>
<path d="M42.6668 38.6667H34.6668M37.3335 44H34.6668M45.3335 33.3333H34.6668M50.6668 40V33.0667C50.6668 30.8264 50.6668 29.7063 50.2309 28.8507C49.8474 28.098 49.2354 27.4861 48.4828 27.1026C47.6271 26.6667 46.507 26.6667 44.2668 26.6667H35.7335C33.4933 26.6667 32.3732 26.6667 31.5175 27.1026C30.7649 27.4861 30.153 28.098 29.7695 28.8507C29.3335 29.7063 29.3335 30.8264 29.3335 33.0667V46.9333C29.3335 49.1735 29.3335 50.2936 29.7695 51.1493C30.153 51.9019 30.7649 52.5139 31.5175 52.8973C32.3732 53.3333 33.4933 53.3333 35.7335 53.3333H40.0002M45.3335 45.3333L52.0002 52M52.0002 45.3333L45.3335 52" stroke="#E93636" stroke-width="2.5" stroke-linecap="round" stroke-linejoin="round"/>
</svg>
