<svg width="81" height="80" viewBox="0 0 81 80" fill="none" xmlns="http://www.w3.org/2000/svg">
<rect x="0.333008" width="80" height="80" rx="40" fill="#F2F4F7"/>
<path d="M53.6667 37.3333H27M39 49.3333L49.4 49.3333C50.8935 49.3333 51.6402 49.3333 52.2106 49.0427C52.7124 48.787 53.1204 48.3791 53.376 47.8773C53.6667 47.3069 53.6667 46.5601 53.6667 45.0667V34.9333C53.6667 33.4399 53.6667 32.6931 53.376 32.1227C53.1204 31.6209 52.7124 31.213 52.2106 30.9573C51.6402 30.6667 50.8935 30.6667 49.4 30.6667H47M39 49.3333L41.6667 52M39 49.3333L41.6667 46.6667M33.6667 49.3333H31.2667C29.7732 49.3333 29.0265 49.3333 28.456 49.0427C27.9543 48.787 27.5463 48.3791 27.2906 47.8773C27 47.3069 27 46.5601 27 45.0667V34.9333C27 33.4399 27 32.6931 27.2906 32.1227C27.5463 31.6209 27.9543 31.213 28.456 30.9573C29.0265 30.6667 29.7732 30.6667 31.2667 30.6667H41.6667M41.6667 30.6667L39 33.3333M41.6667 30.6667L39 28" stroke="#98A2B3" stroke-width="2.5" stroke-linecap="round" stroke-linejoin="round"/>
</svg>
