<svg width="80" height="80" viewBox="0 0 80 80" fill="none" xmlns="http://www.w3.org/2000/svg">
<rect width="80" height="80" rx="40" fill="#F3F5F7"/>
<path d="M50.6667 40.6666V33.0666C50.6667 30.8264 50.6667 29.7063 50.2307 28.8507C49.8472 28.098 49.2353 27.4861 48.4827 27.1026C47.627 26.6666 46.5069 26.6666 44.2667 26.6666H35.7334C33.4932 26.6666 32.3731 26.6666 31.5174 27.1026C30.7648 27.4861 30.1528 28.098 29.7693 28.8507C29.3334 29.7063 29.3334 30.8264 29.3334 33.0666V46.9333C29.3334 49.1735 29.3334 50.2936 29.7693 51.1493C30.1528 51.9019 30.7648 52.5138 31.5174 52.8973C32.3731 53.3333 33.4932 53.3333 35.7334 53.3333H40M42.6667 38.6666H34.6667M37.3334 44H34.6667M45.3334 33.3333H34.6667M43.3334 49.3333L46 52L52 46" stroke="#99A4AF" stroke-width="2.5" stroke-linecap="round" stroke-linejoin="round"/>
</svg>
