<svg width="63" height="16" viewBox="0 0 63 16" fill="none" xmlns="http://www.w3.org/2000/svg">
<rect x="0.888916" width="61.2222" height="16" rx="2" fill="#161141"/>
<g clip-path="url(#clip0_708_12201)">
<path d="M23.9313 3H22.4883V4.4479H23.9313V3Z" fill="#00FF88"/>
<path d="M42.1201 6.88501H40.4775V8.53318H42.1201V6.88501Z" fill="#00FF88"/>
<path d="M44.9526 8.07713L46.1259 4.93235L47.2776 8.07713H44.9526ZM47.0633 3.00812L43.6931 3V4.4479H44.6613L42.1233 11.0541H43.9061L44.4805 9.52639H47.7644L48.3174 11.0541H50.1111L47.0633 3.00812Z" fill="white"/>
<path d="M19.4755 3H12.8889V4.44926H15.392V11.0596H16.9739V4.44926H19.4755V3Z" fill="white"/>
<path d="M21.2109 5.09888C20.832 5.09888 20.5083 5.16923 20.2386 5.31132C19.9689 5.4534 19.714 5.66586 19.478 5.94867V5.15706H17.9419V11.0623H19.5103V8.44934C19.5103 8.16652 19.5292 7.91349 19.5724 7.68886C19.6506 7.26667 19.896 6.95408 20.2737 6.79034C20.7645 6.57654 21.3202 6.59549 21.7355 6.59549V5.14353C21.5993 5.11647 21.4442 5.09888 21.2136 5.09888H21.2109Z" fill="white"/>
<path d="M23.9557 5.1543H22.4587V11.0596H23.9557V5.1543Z" fill="white"/>
<path d="M27.6901 9.82137C26.8243 9.82137 26.1837 9.12177 26.1837 8.11637C26.1837 7.11096 26.8243 6.40189 27.6901 6.40189C28.5559 6.40189 29.1871 7.11096 29.1871 8.11637C29.1871 9.12177 28.5681 9.82137 27.6901 9.82137ZM28.1392 4.98646C27.3705 4.98646 26.7393 5.30446 26.2147 6.03516H26.1932V5.15696H24.7178V13H26.2147V10.3004C26.5465 10.7876 27.1345 11.2409 28.0327 11.2409C29.4447 11.2409 30.738 10.0663 30.738 8.08659C30.738 6.38429 29.7656 4.98511 28.1406 4.98511L28.1392 4.98646Z" fill="white"/>
<path d="M36.5451 6.25574C37.2193 6.25574 37.8169 6.60485 37.9234 7.5142H35.1425C35.2923 6.774 35.7738 6.25574 36.5425 6.25574H36.5451ZM36.6515 9.90661C35.8708 9.90661 35.1978 9.41948 35.0697 8.53177H39.4325V8.12989C39.4325 5.95939 38.0421 4.98779 36.5573 4.98779C34.8134 4.98779 33.5754 6.32068 33.5754 8.14207C33.5754 9.96344 34.9012 11.2436 36.6666 11.2436C38.0569 11.2436 39.063 10.4912 39.4567 9.52907L38.0569 8.96752C37.7886 9.58185 37.2653 9.90798 36.6571 9.90798H36.653L36.6515 9.90661Z" fill="white"/>
<path d="M30.4482 3V4.4479H31.4111V11.0596H32.9081V3H30.4482Z" fill="white"/>
</g>
<defs>
<clipPath id="clip0_708_12201">
<rect width="37.2222" height="10" fill="white" transform="translate(12.8889 3)"/>
</clipPath>
</defs>
</svg>
