<svg width="144" height="144" viewBox="0 0 144 144" fill="none" xmlns="http://www.w3.org/2000/svg">
<rect x="0.0170898" width="143.966" height="144" rx="71.983" fill="#F1F1EF"/>
<path d="M70.8492 32.1009C70.7353 32.1497 70.5727 32.3612 70.475 32.589C70.3124 33.0445 70.5727 33.6627 71.1583 34.1832C71.7277 34.7038 73.0129 36.7373 73.4684 37.8761C75.2904 42.4475 74.3794 47.5069 71.0119 51.3949C70.2798 52.2409 70.2473 52.3385 70.4913 52.8103C70.7516 53.2983 71.2234 53.4773 71.6952 53.2983C72.2645 53.0868 73.9727 50.8906 74.7373 49.3777C77.4541 43.9441 76.6081 37.2254 72.6712 32.9631C71.7928 32.0196 71.4511 31.8569 70.8492 32.1009Z" fill="#344054"/>
<path d="M85.6534 32.9158C85.1328 33.1273 85.1165 33.7618 85.6046 34.9005C86.4343 36.8527 86.6458 38.0728 86.5644 40.3178C86.4343 43.2624 85.6046 45.5562 83.5223 48.6634C82.9854 49.4605 82.5299 50.274 82.5299 50.4692C82.5299 50.9247 83.018 51.3477 83.5548 51.3477C84.173 51.3477 85.328 49.7371 86.6783 47.0366C88.2238 43.9294 88.4678 42.9207 88.4515 39.7159C88.4515 37.3082 88.419 37.0154 87.996 35.7302C87.4917 34.2173 86.9874 33.111 86.6946 32.9321C86.4993 32.7857 85.9788 32.7857 85.6534 32.9158Z" fill="#344054"/>
<path d="M52.6776 36.5261C51.8317 36.9003 51.0183 37.8439 50.8719 38.5922C50.8068 38.9176 50.8068 40.0726 50.8719 41.1626C51.0346 44.2047 50.6929 44.5463 48.2202 43.8143C46.4469 43.2774 45.3407 43.2449 44.446 43.7004C43.6 44.1396 43.3397 44.6765 43.7139 45.2459C44.1043 45.8315 44.3972 45.9129 45.0479 45.5875C45.7962 45.2296 46.1541 45.2621 47.8135 45.7339C48.5781 45.9617 49.4891 46.1406 49.8145 46.1406C50.6929 46.1406 51.7829 45.5224 52.3523 44.709L52.8403 43.9932L52.7915 41.4554C52.759 39.0477 52.7753 38.9176 53.1169 38.5434C53.5561 38.0716 53.9954 38.0716 55.5734 38.5759C57.5256 39.2104 59.0385 39.064 59.8031 38.2018C60.2261 37.73 60.1122 37.0142 59.5428 36.7051C59.1361 36.4773 59.0548 36.4936 58.5993 36.7376C57.9323 37.1281 57.3141 37.0955 55.8011 36.6237C54.3045 36.1357 53.5561 36.1194 52.6776 36.5261Z" fill="#344054"/>
<path d="M92.0955 50.5025C89.0534 53.5447 88.8256 53.8863 89.4926 54.4882C90.1596 55.0901 90.4687 54.8949 93.4783 51.869C96.4879 48.8432 96.6669 48.5666 96.0324 47.9322C95.398 47.2977 95.1214 47.4604 92.0955 50.5025Z" fill="#344054"/>
<path d="M56.8749 51.8029C55.85 52.1608 55.0203 52.7952 54.581 53.4948C54.4021 53.7876 50.1073 63.1743 45.0316 74.3668C39.956 85.5431 34.9454 96.5729 33.9042 98.8504L32.0171 102.999V104.382C32.0171 106.269 32.3913 106.903 34.9291 109.392C37.2717 111.686 38.0851 112.109 39.9072 111.979C40.8995 111.914 42.3962 111.263 62.0319 102.348C73.6148 97.0935 84.726 92.0503 86.7107 91.1556C88.6954 90.2608 90.5825 89.3173 90.8916 89.057C91.7375 88.3574 92.3557 86.9909 92.3557 85.7708C92.3395 83.7861 93.1203 84.632 76.2177 67.7457C64.0817 55.6096 60.6491 52.2747 60.0797 52.0144C58.9572 51.5263 57.8672 51.445 56.8749 51.8029ZM68.4253 73.0003C74.233 83.6722 78.9182 92.4408 78.8369 92.5221C78.5278 92.8312 69.6291 96.7518 69.5152 96.6217C69.2875 96.3777 51.8968 64.2806 51.8968 64.1179C51.8968 64.0203 52.8566 61.8241 54.0442 59.2374C56.2404 54.3895 56.7122 53.6249 57.5581 53.6249C57.8347 53.6249 59.7055 56.9762 68.4253 73.0003ZM90.2897 84.9899C90.5012 85.5593 90.5174 85.7871 90.3547 86.3239C90.2571 86.6818 89.9968 87.1536 89.8016 87.3651C89.5901 87.6091 87.703 88.5689 85.1327 89.724C82.7738 90.7977 80.8216 91.6599 80.8053 91.6436C80.7403 91.5785 61.739 56.602 61.4787 56.0651C61.2998 55.7235 66.9774 61.271 75.5995 69.8931C87.3126 81.5899 90.0619 84.4206 90.2897 84.9899ZM59.2175 81.8176C63.8051 90.2446 67.5956 97.2561 67.6444 97.3863C67.7095 97.5652 66.7822 98.0533 63.6912 99.4523C61.4787 100.461 59.6079 101.209 59.5428 101.144C59.429 101.03 46.2843 76.9697 46.2029 76.7094C46.1541 76.5956 50.7092 66.4768 50.8068 66.4768C50.8556 66.4768 54.6298 73.3745 59.2175 81.8176ZM51.4738 90.4886C54.8739 96.7356 57.672 101.925 57.6883 102.006C57.7208 102.137 48.7896 106.318 48.4479 106.318C48.2527 106.334 39.8095 90.7814 39.8746 90.5211C39.9234 90.3096 44.5598 80.0932 44.9015 79.4425C45.0316 79.1822 45.1618 79.0033 45.2106 79.0358C45.2431 79.0846 48.0575 84.2253 51.4738 90.4886ZM41.778 98.3949C43.3885 101.356 45.1292 104.577 45.6335 105.52L46.5608 107.245L43.4211 108.66C40.0861 110.157 39.5818 110.287 38.4756 109.831C37.6947 109.506 34.5875 106.448 34.197 105.602C33.6276 104.365 33.709 104.072 36.2956 98.3298C37.6133 95.4016 38.7196 92.9939 38.7684 92.9939C38.8172 92.9939 40.1674 95.4341 41.778 98.3949Z" fill="#344054"/>
<path d="M36.8487 54.3251C36.0028 54.5854 34.7989 55.773 34.3759 56.749C33.8879 57.9041 33.9692 59.4496 34.6037 60.5233C36.7836 64.2324 42.3311 62.9798 42.6402 58.685C42.689 57.8065 42.6402 57.4486 42.3474 56.749C41.9081 55.7242 40.7043 54.5854 39.777 54.3088C39.0124 54.0811 37.597 54.0811 36.8487 54.3251ZM39.8421 56.5701C41.1598 57.8065 40.9483 59.7261 39.4191 60.4907C38.3291 61.0438 37.0602 60.7022 36.3769 59.661C35.7425 58.7175 35.9377 57.4323 36.8487 56.6189C37.3856 56.1309 37.597 56.0658 38.5731 56.1309C39.2076 56.1634 39.533 56.2773 39.8421 56.5701Z" fill="#344054"/>
<path d="M101.238 55.6584C98.9444 56.1627 95.7721 57.6431 93.7223 59.1561C92.8113 59.823 92.6161 60.0508 92.6161 60.425C92.6161 60.9455 93.0553 61.4336 93.5108 61.4336C93.6735 61.4336 94.4056 61.0432 95.1214 60.5551C97.0736 59.2537 98.375 58.5867 100.099 58.001C101.417 57.5455 101.938 57.4642 103.646 57.3991C105.891 57.3177 107.127 57.5292 109.063 58.3589C109.942 58.7331 110.251 58.7982 110.576 58.668C111.032 58.5053 111.292 57.7895 111.048 57.3828C110.836 57.0249 109.356 56.2929 107.99 55.8862C106.477 55.4306 102.8 55.3168 101.238 55.6584Z" fill="#344054"/>
<path d="M98.5539 67.8602C95.9998 68.3319 93.2342 69.6985 91.4609 71.3578C90.436 72.3176 90.3384 72.5779 90.7939 73.1473C91.282 73.7492 91.8026 73.6028 93.0878 72.5291C94.3729 71.4554 96.3577 70.398 97.9031 69.975C98.44 69.8286 99.6438 69.6659 100.587 69.6171C103.955 69.4382 107.16 70.5119 109.519 72.5942C110.576 73.5378 110.918 73.6842 111.373 73.4564C112.284 72.9684 112.187 72.399 110.999 71.2927C107.843 68.3807 102.963 67.0305 98.5539 67.8602Z" fill="#344054"/>
<path d="M98.2285 94.686C96.6993 95.3855 95.8371 96.7683 95.8046 98.5253C95.7883 100.25 96.6342 101.632 98.2122 102.478C99.1558 102.966 101.043 102.983 101.986 102.478C102.784 102.055 103.776 100.982 104.134 100.168C104.703 98.8344 104.329 96.8822 103.288 95.6458C102.182 94.3281 99.9041 93.9051 98.2285 94.686ZM101.352 96.5731C102.67 97.3702 102.832 99.2573 101.645 100.298C100.067 101.681 97.7242 100.608 97.7567 98.4927C97.773 97.6305 98.1146 97.0123 98.8467 96.5731C99.53 96.1501 100.669 96.1501 101.352 96.5731Z" fill="#344054"/>
</svg>
