<svg width="12" height="12" viewBox="0 0 12 12" fill="none" xmlns="http://www.w3.org/2000/svg">
<g clip-path="url(#clip0_489_1691)">
<path fill-rule="evenodd" clip-rule="evenodd" d="M2.974 0.875001C2.52477 0.874986 2.15015 0.874974 1.85276 0.914957C1.53886 0.95716 1.25546 1.04999 1.02773 1.27773C0.799995 1.50546 0.70716 1.78886 0.664957 2.10276C0.624974 2.40015 0.624986 2.77475 0.625001 3.22399V4.276C0.624986 4.72523 0.624974 5.09985 0.664957 5.39724C0.70716 5.71114 0.799995 5.99454 1.02773 6.22227C1.25546 6.45001 1.53886 6.54284 1.85276 6.58505C2.15015 6.62503 2.52475 6.62502 2.97399 6.625H3.026C3.47523 6.62502 3.84985 6.62503 4.14724 6.58505C4.46114 6.54284 4.74454 6.45001 4.97227 6.22227C5.20001 5.99454 5.29284 5.71114 5.33505 5.39724C5.37503 5.09985 5.37502 4.72525 5.375 4.27601V3.224C5.37502 2.77477 5.37503 2.40015 5.33505 2.10276C5.29284 1.78886 5.20001 1.50546 4.97227 1.27773C4.74454 1.04999 4.46114 0.95716 4.14724 0.914957C3.84985 0.874974 3.47525 0.874986 3.02601 0.875001H2.974ZM1.55806 1.80806C1.62322 1.7429 1.72197 1.68929 1.9527 1.65827C2.19422 1.6258 2.518 1.625 3 1.625C3.48201 1.625 3.80579 1.6258 4.0473 1.65827C4.27804 1.68929 4.37678 1.7429 4.44194 1.80806C4.5071 1.87322 4.56071 1.97197 4.59173 2.2027C4.6242 2.44422 4.625 2.768 4.625 3.25V4.25C4.625 4.73201 4.6242 5.05579 4.59173 5.2973C4.56071 5.52804 4.5071 5.62678 4.44194 5.69194C4.37678 5.7571 4.27804 5.81071 4.0473 5.84173C3.80579 5.8742 3.48201 5.875 3 5.875C2.518 5.875 2.19422 5.8742 1.9527 5.84173C1.72197 5.81071 1.62322 5.7571 1.55806 5.69194C1.4929 5.62678 1.43929 5.52804 1.40827 5.2973C1.3758 5.05579 1.375 4.73201 1.375 4.25V3.25C1.375 2.768 1.3758 2.44422 1.40827 2.2027C1.43929 1.97197 1.4929 1.87322 1.55806 1.80806Z" fill="#0F0F0F"/>
<path fill-rule="evenodd" clip-rule="evenodd" d="M8.724 5.375C8.27476 5.37499 7.90015 5.37497 7.60276 5.41496C7.28886 5.45716 7.00546 5.54999 6.77773 5.77773C6.54999 6.00546 6.45716 6.28886 6.41496 6.60276C6.37497 6.90015 6.37499 7.27476 6.375 7.724V8.776C6.37499 9.22524 6.37497 9.59985 6.41496 9.89724C6.45716 10.2111 6.54999 10.4945 6.77773 10.7223C7.00546 10.95 7.28886 11.0428 7.60276 11.085C7.90014 11.125 8.27474 11.125 8.72395 11.125H8.776C9.22522 11.125 9.59986 11.125 9.89724 11.085C10.2111 11.0428 10.4945 10.95 10.7223 10.7223C10.95 10.4945 11.0428 10.2111 11.085 9.89724C11.125 9.59986 11.125 9.22527 11.125 8.77604V7.724C11.125 7.27478 11.125 6.90014 11.085 6.60276C11.0428 6.28886 10.95 6.00546 10.7223 5.77773C10.4945 5.54999 10.2111 5.45716 9.89724 5.41496C9.59985 5.37497 9.22524 5.37499 8.776 5.375H8.724ZM7.30806 6.30806C7.37322 6.2429 7.47197 6.18929 7.7027 6.15827C7.94421 6.1258 8.268 6.125 8.75 6.125C9.23201 6.125 9.55579 6.1258 9.79731 6.15827C10.028 6.18929 10.1268 6.2429 10.1919 6.30806C10.2571 6.37322 10.3107 6.47197 10.3417 6.7027C10.3742 6.94421 10.375 7.26799 10.375 7.75V8.75C10.375 9.23201 10.3742 9.55579 10.3417 9.7973C10.3107 10.028 10.2571 10.1268 10.1919 10.1919C10.1268 10.2571 10.028 10.3107 9.79731 10.3417C9.55579 10.3742 9.23201 10.375 8.75 10.375C8.268 10.375 7.94421 10.3742 7.7027 10.3417C7.47197 10.3107 7.37322 10.2571 7.30806 10.1919C7.2429 10.1268 7.18929 10.028 7.15827 9.7973C7.1258 9.55579 7.125 9.23201 7.125 8.75V7.75C7.125 7.26799 7.1258 6.94421 7.15827 6.7027C7.18929 6.47197 7.2429 6.37322 7.30806 6.30806Z" fill="#0F0F0F"/>
<path fill-rule="evenodd" clip-rule="evenodd" d="M8.23738 0.875001H9.26263C9.48484 0.874998 9.67039 0.874995 9.82268 0.885386C9.98123 0.896204 10.131 0.919526 10.2762 0.979667C10.6131 1.11922 10.8808 1.3869 11.0203 1.72381C11.0805 1.86901 11.1038 2.01877 11.1146 2.17732C11.125 2.32962 11.125 2.51514 11.125 2.73737V2.76263C11.125 2.98486 11.125 3.17038 11.1146 3.32268C11.1038 3.48123 11.0805 3.631 11.0203 3.77619C10.8808 4.1131 10.6131 4.38078 10.2762 4.52034C10.131 4.58048 9.98123 4.6038 9.82268 4.61462C9.67038 4.62501 9.48486 4.625 9.26263 4.625H8.23737C8.01514 4.625 7.82962 4.62501 7.67732 4.61462C7.51877 4.6038 7.36901 4.58048 7.22381 4.52034C6.8869 4.38078 6.61922 4.1131 6.47967 3.77619C6.41953 3.631 6.3962 3.48123 6.38539 3.32268C6.37499 3.17038 6.375 2.98486 6.375 2.76263V2.73738C6.375 2.51514 6.37499 2.32963 6.38539 2.17732C6.3962 2.01877 6.41953 1.86901 6.47967 1.72381C6.61922 1.3869 6.8869 1.11922 7.22381 0.979667C7.36901 0.919526 7.51877 0.896204 7.67732 0.885386C7.82961 0.874995 8.01517 0.874998 8.23738 0.875001ZM7.72837 1.63365C7.60801 1.64186 7.5494 1.6566 7.51082 1.67258C7.35768 1.73601 7.23601 1.85768 7.17258 2.01082C7.1566 2.0494 7.14186 2.10801 7.13365 2.22837C7.1252 2.3521 7.125 2.5119 7.125 2.75C7.125 2.9881 7.1252 3.1479 7.13365 3.27163C7.14186 3.39199 7.1566 3.4506 7.17258 3.48918C7.23601 3.64232 7.35768 3.76399 7.51082 3.82743C7.5494 3.84341 7.60801 3.85814 7.72837 3.86636C7.8521 3.8748 8.0119 3.875 8.25 3.875H9.25C9.4881 3.875 9.6479 3.8748 9.77163 3.86636C9.89199 3.85814 9.9506 3.84341 9.98918 3.82743C10.1423 3.76399 10.264 3.64232 10.3274 3.48918C10.3434 3.4506 10.3581 3.39199 10.3664 3.27163C10.3748 3.1479 10.375 2.9881 10.375 2.75C10.375 2.5119 10.3748 2.3521 10.3664 2.22837C10.3581 2.10801 10.3434 2.0494 10.3274 2.01082C10.264 1.85768 10.1423 1.73601 9.98918 1.67258C9.9506 1.6566 9.89199 1.64186 9.77163 1.63365C9.6479 1.6252 9.4881 1.625 9.25 1.625H8.25C8.0119 1.625 7.8521 1.6252 7.72837 1.63365Z" fill="#0F0F0F"/>
<path fill-rule="evenodd" clip-rule="evenodd" d="M2.48738 7.375C2.26514 7.375 2.07963 7.37499 1.92732 7.38539C1.76877 7.3962 1.61901 7.41952 1.47381 7.47967C1.1369 7.61922 0.869221 7.8869 0.729667 8.22381C0.669526 8.36901 0.646204 8.51877 0.635386 8.67732C0.624995 8.82961 0.624998 9.01512 0.625001 9.23733V9.26263C0.624998 9.48484 0.624995 9.67039 0.635386 9.82268C0.646204 9.98123 0.669526 10.131 0.729667 10.2762C0.869221 10.6131 1.1369 10.8808 1.47381 11.0203C1.61901 11.0805 1.76877 11.1038 1.92732 11.1146C2.07962 11.125 2.26514 11.125 2.48737 11.125H3.51263C3.73486 11.125 3.92038 11.125 4.07268 11.1146C4.23123 11.1038 4.381 11.0805 4.52619 11.0203C4.8631 10.8808 5.13078 10.6131 5.27034 10.2762C5.33048 10.131 5.3538 9.98123 5.36462 9.82268C5.37501 9.67038 5.375 9.48486 5.375 9.26263V9.23737C5.375 9.01514 5.37501 8.82962 5.36462 8.67732C5.3538 8.51877 5.33048 8.36901 5.27034 8.22381C5.13078 7.8869 4.8631 7.61922 4.52619 7.47967C4.381 7.41952 4.23123 7.3962 4.07268 7.38539C3.92038 7.37499 3.73486 7.375 3.51263 7.375H2.48738ZM1.76082 8.17258C1.7994 8.1566 1.85801 8.14186 1.97837 8.13365C2.1021 8.1252 2.2619 8.125 2.5 8.125H3.5C3.7381 8.125 3.8979 8.1252 4.02163 8.13365C4.14199 8.14186 4.2006 8.1566 4.23918 8.17258C4.39232 8.23601 4.51399 8.35768 4.57743 8.51082C4.5934 8.5494 4.60814 8.60801 4.61636 8.72837C4.6248 8.8521 4.625 9.0119 4.625 9.25C4.625 9.4881 4.6248 9.6479 4.61636 9.77163C4.60814 9.89199 4.5934 9.9506 4.57743 9.98918C4.51399 10.1423 4.39232 10.264 4.23918 10.3274C4.2006 10.3434 4.14199 10.3581 4.02163 10.3664C3.8979 10.3748 3.7381 10.375 3.5 10.375H2.5C2.2619 10.375 2.1021 10.3748 1.97837 10.3664C1.85801 10.3581 1.7994 10.3434 1.76082 10.3274C1.60768 10.264 1.48601 10.1423 1.42258 9.98918C1.4066 9.9506 1.39186 9.89199 1.38365 9.77163C1.3752 9.6479 1.375 9.4881 1.375 9.25C1.375 9.0119 1.3752 8.8521 1.38365 8.72837C1.39186 8.60801 1.4066 8.5494 1.42258 8.51082C1.48601 8.35768 1.60768 8.23601 1.76082 8.17258Z" fill="#0F0F0F"/>
</g>
<defs>
<clipPath id="clip0_489_1691">
<rect width="12" height="12" fill="white"/>
</clipPath>
</defs>
</svg>
