<svg width="16" height="16" viewBox="0 0 16 16" fill="none" xmlns="http://www.w3.org/2000/svg">
<g clip-path="url(#clip0_489_1695)">
<path d="M8 16C12.4183 16 16 12.4183 16 8C16 3.58172 12.4183 0 8 0C3.58172 0 0 3.58172 0 8C0 12.4183 3.58172 16 8 16Z" fill="black"/>
<path d="M4.84935 10.2637C4.90567 10.2073 4.98312 10.1743 5.06526 10.1743H12.5141C12.6502 10.1743 12.7183 10.339 12.622 10.4355L11.1506 11.9106C11.0943 11.9671 11.0168 12 10.9347 12H3.48584C3.34973 12 3.28167 11.8353 3.37789 11.7389L4.84935 10.2637Z" fill="url(#paint0_linear_489_1695)"/>
<path d="M4.849 4.75609C4.90767 4.69962 4.98511 4.66669 5.06491 4.66669H12.5137C12.6499 4.66669 12.7179 4.83138 12.6217 4.92784L11.1502 6.40297C11.0939 6.45944 11.0165 6.49237 10.9343 6.49237H3.48549C3.34937 6.49237 3.28132 6.32769 3.37754 6.23123L4.849 4.75609Z" fill="url(#paint1_linear_489_1695)"/>
<path d="M11.1506 7.49223C11.0943 7.43577 11.0168 7.40283 10.9347 7.40283H3.48584C3.34973 7.40283 3.28167 7.56752 3.37789 7.66398L4.84935 9.13912C4.90567 9.19558 4.98312 9.22852 5.06526 9.22852H12.5141C12.6502 9.22852 12.7183 9.06383 12.622 8.96737L11.1506 7.49223Z" fill="url(#paint2_linear_489_1695)"/>
</g>
<defs>
<linearGradient id="paint0_linear_489_1695" x1="11.8025" y1="3.78547" x2="6.62709" y2="13.6738" gradientUnits="userSpaceOnUse">
<stop stop-color="#00FFA3"/>
<stop offset="1" stop-color="#DC1FFF"/>
</linearGradient>
<linearGradient id="paint1_linear_489_1695" x1="9.54803" y1="2.6057" x2="4.37261" y2="12.494" gradientUnits="userSpaceOnUse">
<stop stop-color="#00FFA3"/>
<stop offset="1" stop-color="#DC1FFF"/>
</linearGradient>
<linearGradient id="paint2_linear_489_1695" x1="10.6683" y1="3.1918" x2="5.49284" y2="13.0801" gradientUnits="userSpaceOnUse">
<stop stop-color="#00FFA3"/>
<stop offset="1" stop-color="#DC1FFF"/>
</linearGradient>
<clipPath id="clip0_489_1695">
<rect width="16" height="16" fill="white"/>
</clipPath>
</defs>
</svg>
