<svg width="154" height="40" viewBox="0 0 154 40" fill="none" xmlns="http://www.w3.org/2000/svg">
<path d="M99.4839 11.9104H103.402V14.1469C104.267 13.5066 105.181 12.9541 106.142 12.4892C107.104 12.0244 108.062 11.6692 109.015 11.4236L110.167 14.9889C108.658 15.138 107.329 15.4757 106.182 16.0019C105.044 16.5194 104.117 17.2518 103.402 18.199V27.4346H99.4839V11.9104Z" fill="black"/>
<path d="M76.3378 19.599C76.3378 18.5509 76.551 17.5507 76.9775 16.5986C77.404 15.6378 78.0176 14.7905 78.8183 14.0568C79.6191 13.323 80.5982 12.7378 81.7558 12.3011C82.9221 11.8643 84.2451 11.6459 85.7247 11.6459C87.1956 11.6459 88.5186 11.8687 89.6936 12.3142C90.8773 12.7509 91.8782 13.3536 92.6964 14.1223C93.5232 14.8909 94.1543 15.795 94.5894 16.8344C95.0333 17.8739 95.2553 18.9876 95.2553 20.1755C95.2553 20.324 95.2509 20.4856 95.2422 20.6603C95.2422 20.8263 95.2335 20.9791 95.2161 21.1189H80.6461C80.8115 21.5819 81.0769 22.0055 81.4425 22.3898C81.8167 22.7742 82.2824 23.1061 82.8394 23.3856C83.3965 23.6651 84.0405 23.8835 84.7717 24.0407C85.5028 24.1892 86.3122 24.2635 87.2 24.2635C88.0878 24.2635 88.9712 24.1717 89.8503 23.9883C90.7293 23.7961 91.5693 23.5559 92.37 23.2677L93.6756 26.2288C93.1707 26.4646 92.6572 26.6743 92.135 26.8577C91.6215 27.0324 91.0818 27.1809 90.5161 27.3032C89.9591 27.4167 89.3716 27.5041 88.7536 27.5652C88.1443 27.6264 87.5003 27.657 86.8214 27.657C85.0893 27.657 83.5705 27.4473 82.265 27.028C80.9594 26.6088 79.8671 26.0366 78.988 25.3116C78.109 24.5866 77.4475 23.735 77.0036 22.7567C76.5597 21.7784 76.3378 20.7258 76.3378 19.599ZM91.1558 18.0923C91.0166 17.6643 90.799 17.2668 90.5031 16.9C90.2158 16.5244 89.8546 16.2012 89.4194 15.9304C88.9843 15.6509 88.4794 15.4325 87.905 15.2753C87.3305 15.118 86.6995 15.0394 86.0119 15.0394C85.2808 15.0394 84.615 15.1224 84.0144 15.2884C83.4139 15.4543 82.8873 15.6771 82.4347 15.9566C81.9821 16.2361 81.6035 16.5593 81.2989 16.9262C81.003 17.293 80.7854 17.6817 80.6461 18.0923H91.1558Z" fill="black"/>
<path d="M56.7773 30.184C57.2678 30.3604 57.767 30.506 58.2749 30.6207C58.7829 30.7442 59.2734 30.8412 59.7463 30.9118C60.228 30.9912 60.6878 31.0441 61.1257 31.0706C61.5636 31.1059 61.9534 31.1235 62.2949 31.1235C63.3284 31.1235 64.2261 30.9956 64.988 30.7398C65.7588 30.4928 66.3981 30.1576 66.9061 29.7341C67.4228 29.3107 67.8082 28.8167 68.0621 28.2521C68.3161 27.6964 68.4431 27.1054 68.4431 26.4791V25.8042C68.1103 26.0336 67.7206 26.2541 67.2739 26.4658C66.8272 26.6775 66.3368 26.8628 65.8025 27.0216C65.2683 27.1803 64.699 27.3083 64.0947 27.4053C63.4992 27.5023 62.8817 27.5508 62.2424 27.5508C60.9724 27.5508 59.7989 27.3612 58.7216 26.9819C57.6444 26.5937 56.7116 26.0556 55.9234 25.3676C55.1352 24.6707 54.5177 23.8371 54.0711 22.8667C53.6331 21.8964 53.4142 20.8201 53.4142 19.6381C53.4142 18.4296 53.6463 17.3357 54.1105 16.3565C54.5746 15.3685 55.214 14.5261 56.0285 13.8292C56.8518 13.1323 57.8239 12.5942 58.9449 12.2149C60.066 11.8356 61.2834 11.6459 62.5971 11.6459C63.1576 11.6459 63.7137 11.6812 64.2655 11.7518C64.8173 11.8224 65.3427 11.9194 65.842 12.0429C66.3499 12.1664 66.8229 12.3164 67.2608 12.4928C67.7074 12.6604 68.1016 12.8456 68.4431 13.0485V11.9238H72.3317V25.7513C72.3317 27.1715 72.1171 28.4286 71.688 29.5224C71.2588 30.6163 70.6283 31.5337 69.7962 32.2747C68.973 33.0245 67.9483 33.5891 66.7221 33.9684C65.496 34.3565 64.0903 34.5506 62.5051 34.5506C61.9358 34.5506 61.3447 34.5241 60.7316 34.4712C60.1185 34.4271 59.5011 34.3565 58.8793 34.2595C58.2662 34.1713 57.6575 34.061 57.0532 33.9287C56.4576 33.8052 55.884 33.6596 55.3322 33.492L56.7773 30.184ZM57.4999 19.5984C57.4999 20.2247 57.6225 20.8157 57.8677 21.3715C58.1217 21.9184 58.4808 22.3992 58.9449 22.8138C59.4091 23.2196 59.9696 23.5415 60.6265 23.7797C61.2834 24.0091 62.0234 24.1237 62.8467 24.1237C63.3809 24.1237 63.9108 24.0752 64.4363 23.9782C64.9705 23.8723 65.4785 23.7268 65.9602 23.5415C66.4506 23.3563 66.9061 23.1313 67.3265 22.8667C67.7556 22.6021 68.1278 22.3065 68.4431 21.9802V16.8329C68.049 16.5153 67.633 16.2463 67.1951 16.0257C66.7572 15.8052 66.3105 15.6244 65.8551 15.4832C65.3997 15.3421 64.9399 15.2406 64.4757 15.1789C64.0115 15.1083 63.5605 15.073 63.1226 15.073C62.2292 15.073 61.4322 15.1921 60.7316 15.4303C60.0397 15.6685 59.4529 15.9949 58.9712 16.4095C58.4983 16.8153 58.1348 17.2916 57.8808 17.8385C57.6268 18.3855 57.4999 18.9721 57.4999 19.5984Z" fill="black"/>
<path d="M30.4906 19.6355C30.4906 18.3913 30.7254 17.2706 31.195 16.2734C31.6647 15.2674 32.3115 14.4115 33.1356 13.7055C33.9686 12.9907 34.9522 12.4436 36.0864 12.0642C37.2295 11.6759 38.4656 11.4817 39.7948 11.4817C40.3619 11.4817 40.9201 11.517 41.4695 11.5876C42.0278 11.6582 42.5595 11.7553 43.0645 11.8788C43.5785 12.0024 44.057 12.1524 44.5001 12.3289C44.952 12.4966 45.3507 12.6819 45.6963 12.8848V5.41937H49.6307V27.3789H45.6963V25.9097C45.3507 26.1479 44.9431 26.373 44.4735 26.5847C44.0038 26.7965 43.4987 26.9818 42.9582 27.1407C42.4177 27.2995 41.855 27.4231 41.2702 27.5113C40.6942 27.6084 40.1226 27.6569 39.5555 27.6569C38.2264 27.6569 37.0035 27.4628 35.887 27.0745C34.7794 26.6862 33.8268 26.1391 33.0293 25.4332C32.2318 24.7272 31.6071 23.8845 31.1552 22.905C30.7121 21.9166 30.4906 20.8268 30.4906 19.6355ZM34.6243 19.6355C34.6243 20.262 34.7484 20.8533 34.9965 21.4092C35.2534 21.9652 35.6168 22.4549 36.0864 22.8785C36.5649 23.2932 37.1364 23.6241 37.801 23.8712C38.4745 24.1095 39.2277 24.2286 40.0606 24.2286C40.5923 24.2286 41.124 24.1801 41.6556 24.083C42.1873 23.9771 42.6968 23.8315 43.1842 23.6462C43.6804 23.4609 44.1412 23.2359 44.5665 22.9711C45.0007 22.7064 45.3773 22.4108 45.6963 22.0843V16.6705C45.2976 16.3528 44.8767 16.0837 44.4336 15.8631C43.9905 15.6425 43.5386 15.4616 43.0778 15.3204C42.6171 15.1792 42.1518 15.0777 41.6822 15.0159C41.2126 14.9453 40.7562 14.91 40.3132 14.91C39.4093 14.91 38.603 15.0336 37.8941 15.2807C37.194 15.5189 36.6003 15.8498 36.113 16.2734C35.6345 16.697 35.2667 17.1956 35.0098 17.7691C34.7528 18.3427 34.6243 18.9649 34.6243 19.6355Z" fill="black"/>
<path d="M8.45725 19.599C8.45725 18.5509 8.673 17.5507 9.1045 16.5986C9.536 15.6378 10.1568 14.7905 10.967 14.0568C11.7772 13.323 12.7678 12.7378 13.9391 12.3011C15.1191 11.8643 16.4576 11.6459 17.9546 11.6459C19.4429 11.6459 20.7814 11.8687 21.9702 12.3142C23.1679 12.7509 24.1806 13.3536 25.0083 14.1223C25.8449 14.8909 26.4834 15.795 26.9237 16.8344C27.3728 17.8739 27.5973 18.9876 27.5973 20.1755C27.5973 20.324 27.5929 20.4856 27.5841 20.6603C27.5841 20.8263 27.5753 20.9791 27.5577 21.1189H12.8163C12.9836 21.5819 13.2522 22.0055 13.622 22.3898C14.0007 22.7742 14.4718 23.1061 15.0354 23.3856C15.599 23.6651 16.2507 23.8835 16.9904 24.0407C17.7301 24.1892 18.5491 24.2635 19.4473 24.2635C20.3455 24.2635 21.2393 24.1717 22.1287 23.9883C23.0182 23.7961 23.8679 23.5559 24.6781 23.2677L25.999 26.2288C25.4883 26.4646 24.9687 26.6743 24.4403 26.8577C23.9208 27.0324 23.3748 27.1809 22.8024 27.3032C22.2388 27.4167 21.6444 27.5041 21.0192 27.5652C20.4027 27.6264 19.7511 27.657 19.0642 27.657C17.3118 27.657 15.7751 27.4473 14.4542 27.028C13.1333 26.6088 12.0281 26.0366 11.1387 25.3116C10.2493 24.5866 9.58003 23.735 9.13092 22.7567C8.6818 21.7784 8.45725 20.7258 8.45725 19.599ZM23.4497 18.0923C23.3088 17.6643 23.0886 17.2668 22.7892 16.9C22.4986 16.5244 22.1331 16.2012 21.6928 15.9304C21.2525 15.6509 20.7418 15.4325 20.1606 15.2753C19.5794 15.118 18.9409 15.0394 18.2452 15.0394C17.5055 15.0394 16.8319 15.1224 16.2242 15.2884C15.6166 15.4543 15.0838 15.6771 14.6259 15.9566C14.168 16.2361 13.7849 16.5593 13.4767 16.9262C13.1773 17.293 12.9572 17.6817 12.8163 18.0923H23.4497Z" fill="black"/>
<path d="M0 5.41943H4.00606V27.4346H0V5.41943Z" fill="black"/>
<path d="M119.069 23.8815V40L136.535 28.049L124.761 19.9999L119.069 23.8815Z" fill="#0079DA"/>
<path d="M154 40V23.8815L148.318 19.9999L136.534 28.049L154 40Z" fill="#0057BF"/>
<path d="M119.069 0V16.1083L124.761 20L136.534 11.9408L119.069 0Z" fill="#0080DE"/>
<path d="M136.534 11.9365L124.76 19.9929L136.534 28.0391L148.318 19.9929L154 16.1025V-0.00012207L136.534 11.9365Z" fill="#00B4FF"/>
</svg>
