<svg width="12" height="12" viewBox="0 0 12 12" fill="none" xmlns="http://www.w3.org/2000/svg">
<path fill-rule="evenodd" clip-rule="evenodd" d="M6.00008 0.666992C6.36827 0.666992 6.66675 0.965469 6.66675 1.33366V5.33366H10.6667C11.0349 5.33366 11.3334 5.63214 11.3334 6.00033C11.3334 6.36852 11.0349 6.66699 10.6667 6.66699H6.66675V10.667C6.66675 11.0352 6.36827 11.3337 6.00008 11.3337C5.63189 11.3337 5.33341 11.0352 5.33341 10.667V6.66699H1.33341C0.965225 6.66699 0.666748 6.36852 0.666748 6.00033C0.666748 5.63214 0.965225 5.33366 1.33341 5.33366H5.33341V1.33366C5.33341 0.965469 5.63189 0.666992 6.00008 0.666992Z" fill="white"/>
</svg>
