<svg width="28" height="28" viewBox="0 0 28 28" fill="none" xmlns="http://www.w3.org/2000/svg">
<path d="M5.36753 23.6079C6.15329 21.7567 7.98784 20.4583 10.1257 20.4583H17.8757C20.0135 20.4583 21.848 21.7567 22.6338 23.6079M19.1673 10.7708C19.1673 13.6243 16.8541 15.9375 14.0007 15.9375C11.1472 15.9375 8.83398 13.6243 8.83398 10.7708C8.83398 7.91736 11.1472 5.60416 14.0007 5.60416C16.8541 5.60416 19.1673 7.91736 19.1673 10.7708ZM26.9173 14C26.9173 21.1337 21.1343 26.9167 14.0007 26.9167C6.86697 26.9167 1.08398 21.1337 1.08398 14C1.08398 6.86632 6.86697 1.08333 14.0007 1.08333C21.1343 1.08333 26.9173 6.86632 26.9173 14Z" stroke="#344054" stroke-width="1.5" stroke-linecap="round" stroke-linejoin="round"/>
</svg>
