<svg width="17" height="17" viewBox="0 0 17 17" fill="none" xmlns="http://www.w3.org/2000/svg">
<g id="lock-01">
<path id="Icon" d="M11.8337 7.16667V5.83333C11.8337 3.99238 10.3413 2.5 8.50033 2.5C6.65938 2.5 5.16699 3.99238 5.16699 5.83333V7.16667M8.50033 10.1667V11.5M6.36699 14.5H10.6337C11.7538 14.5 12.3138 14.5 12.7416 14.282C13.118 14.0903 13.4239 13.7843 13.6157 13.408C13.8337 12.9802 13.8337 12.4201 13.8337 11.3V10.3667C13.8337 9.24656 13.8337 8.68651 13.6157 8.25869C13.4239 7.88236 13.118 7.5764 12.7416 7.38465C12.3138 7.16667 11.7538 7.16667 10.6337 7.16667H6.36699C5.24689 7.16667 4.68683 7.16667 4.25901 7.38465C3.88269 7.5764 3.57673 7.88236 3.38498 8.25869C3.16699 8.68651 3.16699 9.24656 3.16699 10.3667V11.3C3.16699 12.4201 3.16699 12.9802 3.38498 13.408C3.57673 13.7843 3.88269 14.0903 4.25901 14.282C4.68683 14.5 5.24689 14.5 6.36699 14.5Z" stroke="#2D2D2C" stroke-width="1.5" stroke-linecap="round" stroke-linejoin="round"/>
</g>
</svg>
