<svg width="80" height="80" viewBox="0 0 80 80" fill="none" xmlns="http://www.w3.org/2000/svg">
<rect width="80" height="80" rx="40" fill="#F1F1EF"/>
<path d="M37.3334 41.3335C37.906 42.099 38.6365 42.7324 39.4754 43.1907C40.3143 43.649 41.242 43.9216 42.1956 43.9899C43.1491 44.0582 44.1061 43.9206 45.0018 43.5865C45.8975 43.2524 46.7108 42.7295 47.3867 42.0535L51.3867 38.0535C52.6011 36.7961 53.273 35.1121 53.2579 33.3641C53.2427 31.6161 52.5415 29.944 51.3055 28.708C50.0694 27.4719 48.3973 26.7708 46.6494 26.7556C44.9014 26.7404 43.2174 27.4124 41.96 28.6268L39.6667 30.9068M42.6667 38.6668C42.0941 37.9013 41.3635 37.2679 40.5246 36.8095C39.6857 36.3512 38.758 36.0786 37.8045 36.0103C36.851 35.942 35.8939 36.0796 34.9982 36.4137C34.1026 36.7479 33.2892 37.2707 32.6134 37.9468L28.6134 41.9468C27.399 43.2041 26.727 44.8881 26.7422 46.6361C26.7574 48.3841 27.4585 50.0562 28.6946 51.2922C29.9306 52.5283 31.6027 53.2294 33.3507 53.2446C35.0987 53.2598 36.7827 52.5878 38.04 51.3735L40.32 49.0935" stroke="#989796" stroke-width="2.5" stroke-linecap="round" stroke-linejoin="round"/>
</svg>
