<svg width="16" height="16" viewBox="0 0 16 16" fill="none" xmlns="http://www.w3.org/2000/svg">
<rect width="16" height="16" rx="8" fill="#EAECF0"/>
<g clip-path="url(#clip0_2338_34712)">
<path d="M13 12.5V11.5C13 10.5681 12.3626 9.78503 11.5 9.56301M9.75 3.64538C10.483 3.94207 11 4.66066 11 5.5C11 6.33934 10.483 7.05793 9.75 7.35462M10.5 12.5C10.5 11.5681 10.5 11.1022 10.3478 10.7346C10.1448 10.2446 9.75542 9.85523 9.26537 9.65224C8.89782 9.5 8.43188 9.5 7.5 9.5H6C5.06812 9.5 4.60218 9.5 4.23463 9.65224C3.74458 9.85523 3.35523 10.2446 3.15224 10.7346C3 11.1022 3 11.5681 3 12.5M8.75 5.5C8.75 6.60457 7.85457 7.5 6.75 7.5C5.64543 7.5 4.75 6.60457 4.75 5.5C4.75 4.39543 5.64543 3.5 6.75 3.5C7.85457 3.5 8.75 4.39543 8.75 5.5Z" stroke="#2D2D2C" stroke-width="1.5" stroke-linecap="round" stroke-linejoin="round"/>
</g>
<defs>
<clipPath id="clip0_2338_34712">
<rect width="12" height="12" fill="white" transform="translate(2 2)"/>
</clipPath>
</defs>
</svg>
