<svg width="80" height="80" viewBox="0 0 80 80" fill="none" xmlns="http://www.w3.org/2000/svg">
<rect width="80" height="80" rx="40" fill="#F9E8E8"/>
<path d="M40 36.0003V41.3336M40 46.667H40.0133M38.1538 29.1893L27.1872 48.1314C26.579 49.1821 26.2748 49.7074 26.3198 50.1386C26.359 50.5146 26.556 50.8564 26.8618 51.0787C27.2124 51.3336 27.8195 51.3336 29.0335 51.3336H50.9665C52.1805 51.3336 52.7876 51.3336 53.1382 51.0787C53.444 50.8564 53.641 50.5146 53.6802 50.1386C53.7252 49.7074 53.421 49.1821 52.8128 48.1314L41.8462 29.1893C41.2401 28.1424 40.9371 27.6189 40.5417 27.4431C40.1969 27.2898 39.8031 27.2898 39.4583 27.4431C39.0629 27.6189 38.7598 28.1424 38.1538 29.1893Z" stroke="#C61616" stroke-width="2.5" stroke-linecap="round" stroke-linejoin="round"/>
</svg>
