<svg width="12" height="12" viewBox="0 0 12 12" fill="none" xmlns="http://www.w3.org/2000/svg">
<g clip-path="url(#clip0_2418_8566)">
<path d="M5.0001 6.50194C5.21483 6.789 5.48878 7.02653 5.80337 7.19841C6.11797 7.37028 6.46585 7.47249 6.82342 7.4981C7.181 7.52371 7.53989 7.47212 7.87577 7.34683C8.21165 7.22153 8.51666 7.02547 8.7701 6.77194L10.2701 5.27194C10.7255 4.80043 10.9775 4.16892 10.9718 3.51343C10.9661 2.85794 10.7032 2.23091 10.2396 1.76739C9.77613 1.30387 9.14909 1.04095 8.4936 1.03525C7.83811 1.02955 7.20661 1.28154 6.7351 1.73694L5.8751 2.59194M7.0001 5.50194C6.78537 5.21487 6.51142 4.97734 6.19682 4.80547C5.88223 4.63359 5.53435 4.53138 5.17677 4.50577C4.8192 4.48016 4.46031 4.53175 4.12443 4.65705C3.78855 4.78234 3.48354 4.9784 3.2301 5.23194L1.7301 6.73194C1.2747 7.20344 1.02272 7.83495 1.02841 8.49044C1.03411 9.14593 1.29703 9.77296 1.76055 10.2365C2.22407 10.7 2.8511 10.9629 3.5066 10.9686C4.16209 10.9743 4.79359 10.7223 5.2651 10.2669L6.1201 9.41194" stroke="#0CB746" stroke-width="1.5" stroke-linecap="round" stroke-linejoin="round"/>
</g>
<defs>
<clipPath id="clip0_2418_8566">
<rect width="12" height="12" fill="white"/>
</clipPath>
</defs>
</svg>
