<svg width="16" height="16" viewBox="0 0 16 16" fill="none" xmlns="http://www.w3.org/2000/svg">
<rect width="16" height="16" rx="8" fill="#EAECF0"/>
<path d="M8.99902 3.13477V5.20004C8.99902 5.48006 8.99902 5.62008 9.05352 5.72703C9.10146 5.82111 9.17795 5.8976 9.27203 5.94554C9.37898 6.00004 9.519 6.00004 9.79902 6.00004H11.8643M9.99902 8.5H5.99902M9.99902 10.5H5.99902M6.99902 6.5H5.99902M8.99902 3H6.39902C5.55894 3 5.13891 3 4.81804 3.16349C4.53579 3.3073 4.30632 3.53677 4.16251 3.81901C3.99902 4.13988 3.99902 4.55992 3.99902 5.4V10.6C3.99902 11.4401 3.99902 11.8601 4.16251 12.181C4.30632 12.4632 4.53579 12.6927 4.81804 12.8365C5.13891 13 5.55894 13 6.39902 13H9.59902C10.4391 13 10.8591 13 11.18 12.8365C11.4623 12.6927 11.6917 12.4632 11.8355 12.181C11.999 11.8601 11.999 11.4401 11.999 10.6V6L8.99902 3Z" stroke="#2D2D2C" stroke-width="1.44" stroke-linecap="round" stroke-linejoin="round"/>
</svg>
