<svg width="16" height="16" viewBox="0 0 16 16" fill="none" xmlns="http://www.w3.org/2000/svg">
<path d="M7.99992 9.99967C9.10449 9.99967 9.99992 9.10424 9.99992 7.99967C9.99992 6.89511 9.10449 5.99967 7.99992 5.99967C6.89535 5.99967 5.99992 6.89511 5.99992 7.99967C5.99992 9.10424 6.89535 9.99967 7.99992 9.99967Z" stroke="#344054" stroke-width="1.5" stroke-linecap="round" stroke-linejoin="round"/>
<path d="M12.4848 9.81786C12.4041 10.0007 12.38 10.2034 12.4157 10.4C12.4513 10.5966 12.545 10.7781 12.6848 10.9209L12.7211 10.9573C12.8338 11.0698 12.9232 11.2035 12.9842 11.3507C13.0452 11.4978 13.0766 11.6555 13.0766 11.8148C13.0766 11.9741 13.0452 12.1318 12.9842 12.279C12.9232 12.4261 12.8338 12.5598 12.7211 12.6724C12.6086 12.7851 12.4749 12.8745 12.3277 12.9355C12.1806 12.9965 12.0228 13.0279 11.8636 13.0279C11.7043 13.0279 11.5465 12.9965 11.3994 12.9355C11.2522 12.8745 11.1186 12.7851 11.006 12.6724L10.9696 12.636C10.8268 12.4963 10.6454 12.4026 10.4488 12.3669C10.2522 12.3313 10.0494 12.3554 9.86659 12.436C9.68733 12.5129 9.53445 12.6404 9.42677 12.803C9.31909 12.9656 9.2613 13.1562 9.26052 13.3512V13.4542C9.26052 13.7757 9.13282 14.084 8.9055 14.3113C8.67819 14.5386 8.36988 14.6663 8.0484 14.6663C7.72693 14.6663 7.41862 14.5386 7.1913 14.3113C6.96399 14.084 6.83628 13.7757 6.83628 13.4542V13.3997C6.83159 13.1991 6.76666 13.0045 6.64993 12.8413C6.53319 12.6781 6.37006 12.5538 6.18174 12.4845C5.99894 12.4038 5.79617 12.3798 5.59956 12.4154C5.40296 12.4511 5.22154 12.5448 5.07871 12.6845L5.04234 12.7209C4.92977 12.8336 4.79609 12.923 4.64894 12.984C4.50179 13.045 4.34406 13.0764 4.18477 13.0764C4.02548 13.0764 3.86775 13.045 3.7206 12.984C3.57345 12.923 3.43976 12.8336 3.32719 12.7209C3.21449 12.6083 3.12509 12.4746 3.06409 12.3275C3.00309 12.1803 2.97169 12.0226 2.97169 11.8633C2.97169 11.704 3.00309 11.5463 3.06409 11.3991C3.12509 11.252 3.21449 11.1183 3.32719 11.0057L3.36356 10.9694C3.50327 10.8265 3.597 10.6451 3.63265 10.4485C3.6683 10.2519 3.64423 10.0491 3.56355 9.86634C3.48673 9.68709 3.35916 9.53421 3.19656 9.42653C3.03396 9.31885 2.84343 9.26106 2.6484 9.26028H2.54537C2.2239 9.26028 1.91559 9.13258 1.68827 8.90526C1.46096 8.67794 1.33325 8.36963 1.33325 8.04816C1.33325 7.72668 1.46096 7.41838 1.68827 7.19106C1.91559 6.96374 2.2239 6.83604 2.54537 6.83604H2.59992C2.80052 6.83135 2.99507 6.76641 3.15828 6.64968C3.32149 6.53295 3.44581 6.36982 3.51507 6.18149C3.59575 5.9987 3.61981 5.79592 3.58416 5.59932C3.54852 5.40271 3.45479 5.2213 3.31507 5.07846L3.27871 5.0421C3.16601 4.92953 3.0766 4.79584 3.0156 4.64869C2.9546 4.50154 2.92321 4.34381 2.92321 4.18452C2.92321 4.02523 2.9546 3.8675 3.0156 3.72035C3.0766 3.5732 3.16601 3.43952 3.27871 3.32695C3.39128 3.21425 3.52496 3.12484 3.67211 3.06384C3.81926 3.00285 3.97699 2.97145 4.13628 2.97145C4.29557 2.97145 4.4533 3.00285 4.60045 3.06384C4.7476 3.12484 4.88128 3.21425 4.99386 3.32695L5.03022 3.36331C5.17306 3.50303 5.35447 3.59676 5.55108 3.6324C5.74768 3.66805 5.95045 3.64399 6.13325 3.56331H6.18174C6.36099 3.48648 6.51387 3.35892 6.62155 3.19632C6.72923 3.03372 6.78702 2.84318 6.7878 2.64816V2.54513C6.7878 2.22365 6.9155 1.91535 7.14282 1.68803C7.37014 1.46071 7.67844 1.33301 7.99992 1.33301C8.32139 1.33301 8.6297 1.46071 8.85702 1.68803C9.08433 1.91535 9.21204 2.22365 9.21204 2.54513V2.59967C9.21282 2.7947 9.27061 2.98524 9.37829 3.14784C9.48597 3.31044 9.63885 3.438 9.8181 3.51483C10.0009 3.5955 10.2037 3.61957 10.4003 3.58392C10.5969 3.54827 10.7783 3.45455 10.9211 3.31483L10.9575 3.27846C11.0701 3.16576 11.2038 3.07636 11.3509 3.01536C11.4981 2.95436 11.6558 2.92296 11.8151 2.92296C11.9744 2.92296 12.1321 2.95436 12.2792 3.01536C12.4264 3.07636 12.5601 3.16576 12.6726 3.27846C12.7853 3.39104 12.8748 3.52472 12.9357 3.67187C12.9967 3.81902 13.0281 3.97675 13.0281 4.13604C13.0281 4.29533 12.9967 4.45306 12.9357 4.60021C12.8748 4.74736 12.7853 4.88104 12.6726 4.99361L12.6363 5.02998C12.4966 5.17281 12.4028 5.35423 12.3672 5.55083C12.3315 5.74744 12.3556 5.95021 12.4363 6.13301V6.18149C12.5131 6.36075 12.6407 6.51362 12.8033 6.62131C12.9659 6.72899 13.1564 6.78678 13.3514 6.78755H13.4545C13.7759 6.78755 14.0842 6.91526 14.3116 7.14258C14.5389 7.36989 14.6666 7.6782 14.6666 7.99967C14.6666 8.32115 14.5389 8.62946 14.3116 8.85677C14.0842 9.08409 13.7759 9.2118 13.4545 9.2118H13.3999C13.2049 9.21257 13.0144 9.27036 12.8518 9.37804C12.6892 9.48573 12.5616 9.6386 12.4848 9.81786Z" stroke="#344054" stroke-width="1.5" stroke-linecap="round" stroke-linejoin="round"/>
</svg>
