<svg width="21" height="21" viewBox="0 0 21 21" fill="none" xmlns="http://www.w3.org/2000/svg">
<path d="M14.5 7.00001V3.50067C14.5 2.66893 14.5 2.25306 14.3248 1.99748C14.1717 1.77419 13.9346 1.62251 13.6678 1.57709C13.3623 1.52511 12.9847 1.69938 12.2295 2.04793L3.35901 6.142C2.68551 6.45285 2.34875 6.60828 2.10211 6.84933C1.88406 7.06243 1.71762 7.32256 1.6155 7.60984C1.5 7.9348 1.5 8.30569 1.5 9.04747V14M15 13.5H15.01M1.5 10.2L1.5 16.8C1.5 17.9201 1.5 18.4802 1.71799 18.908C1.90973 19.2843 2.21569 19.5903 2.59202 19.782C3.01984 20 3.57989 20 4.7 20H16.3C17.4201 20 17.9802 20 18.408 19.782C18.7843 19.5903 19.0903 19.2843 19.282 18.908C19.5 18.4802 19.5 17.9201 19.5 16.8V10.2C19.5 9.07991 19.5 8.51985 19.282 8.09203C19.0903 7.71571 18.7843 7.40975 18.408 7.218C17.9802 7.00001 17.4201 7.00001 16.3 7.00001L4.7 7.00001C3.5799 7.00001 3.01984 7.00001 2.59202 7.218C2.2157 7.40974 1.90973 7.71571 1.71799 8.09203C1.5 8.51985 1.5 9.07991 1.5 10.2ZM15.5 13.5C15.5 13.7762 15.2761 14 15 14C14.7239 14 14.5 13.7762 14.5 13.5C14.5 13.2239 14.7239 13 15 13C15.2761 13 15.5 13.2239 15.5 13.5Z" stroke="#344054" stroke-width="1.5" stroke-linecap="round" stroke-linejoin="round"/>
</svg>
