<svg width="16" height="16" viewBox="0 0 16 16" fill="none" xmlns="http://www.w3.org/2000/svg">
<g clip-path="url(#clip0_1068_6422)">
<path d="M0 16L1.13085 11.8935C0.431709 10.6882 0.0649474 9.3232 0.0687679 7.92776C0.0687679 3.55513 3.6447 0 8.03438 0C10.1662 0 12.1681 0.825095 13.6695 2.32319C15.1748 3.82129 16.0038 5.81369 16 7.93156C16 12.3042 12.4241 15.8593 8.03056 15.8593H8.02674C6.6934 15.8593 5.383 15.5247 4.21776 14.8935L0 16ZM4.42024 13.4601L4.66093 13.6046C5.67717 14.2053 6.8424 14.5209 8.03056 14.5247H8.03438C11.6829 14.5247 14.6552 11.5703 14.6552 7.93536C14.6552 6.17491 13.9675 4.52091 12.7182 3.27377C11.469 2.02662 9.80324 1.34221 8.03438 1.34221C4.38586 1.3384 1.41356 4.29278 1.41356 7.92776C1.41356 9.17111 1.76122 10.384 2.42598 11.4335L2.58261 11.6844L1.91404 14.1141L4.42024 13.4601Z" fill="white"/>
<path d="M0.279297 15.7222L1.37194 11.7564C0.695725 10.5967 0.340424 9.27735 0.340424 7.93134C0.344244 3.7108 3.7941 0.277344 8.03478 0.277344C10.094 0.277344 12.0233 1.07582 13.4751 2.52069C14.9269 3.96556 15.7253 5.88951 15.7253 7.93514C15.7253 12.1557 12.2716 15.5891 8.03478 15.5891H8.03096C6.74347 15.5891 5.47891 15.2659 4.3557 14.6576L0.279297 15.7222Z" fill="url(#paint0_linear_1068_6422)"/>
<path d="M0 16L1.13085 11.8935C0.431709 10.6882 0.0649474 9.3232 0.0687679 7.92776C0.0687679 3.55513 3.6447 0 8.03438 0C10.1662 0 12.1681 0.825095 13.6695 2.32319C15.1748 3.82129 16.0038 5.81369 16 7.93156C16 12.3042 12.4241 15.8593 8.03056 15.8593H8.02674C6.6934 15.8593 5.383 15.5247 4.21776 14.8935L0 16ZM4.42024 13.4601L4.66093 13.6046C5.67717 14.2053 6.8424 14.5209 8.03056 14.5247H8.03438C11.6829 14.5247 14.6552 11.5703 14.6552 7.93536C14.6552 6.17491 13.9675 4.52091 12.7182 3.27377C11.469 2.02662 9.80324 1.34221 8.03438 1.34221C4.38586 1.3384 1.41356 4.29278 1.41356 7.92776C1.41356 9.17111 1.76122 10.384 2.42598 11.4335L2.58261 11.6844L1.91404 14.1141L4.42024 13.4601Z" fill="url(#paint1_linear_1068_6422)"/>
<path fill-rule="evenodd" clip-rule="evenodd" d="M6.04368 4.61261C5.89468 4.28181 5.73804 4.27421 5.59669 4.2704C5.48207 4.2666 5.34836 4.2666 5.21464 4.2666C5.08093 4.2666 4.86698 4.31603 4.6836 4.51375C4.50022 4.71147 3.98828 5.19056 3.98828 6.16774C3.98828 7.14113 4.7027 8.08409 4.80203 8.21717C4.90137 8.35025 6.18121 10.4149 8.20222 11.2096C9.88321 11.8712 10.2271 11.7381 10.59 11.7039C10.9529 11.6696 11.7667 11.2248 11.9348 10.7609C12.0991 10.297 12.0991 9.90158 12.0494 9.81793C11.9997 9.73428 11.866 9.68485 11.6674 9.58599C11.4687 9.48713 10.4907 9.00805 10.3073 8.93961C10.1239 8.87497 9.99019 8.84075 9.86029 9.03847C9.72658 9.23618 9.34453 9.68105 9.22992 9.81413C9.11531 9.94721 8.99687 9.96242 8.79821 9.86356C8.59955 9.7647 7.95771 9.55558 7.19745 8.87877C6.60528 8.35405 6.20413 7.70386 6.08952 7.50615C5.97491 7.30843 6.07806 7.20196 6.17739 7.1031C6.26526 7.01565 6.37605 6.87116 6.47539 6.7571C6.57472 6.64303 6.6091 6.55938 6.67405 6.4263C6.739 6.29322 6.70843 6.17915 6.65877 6.08029C6.6091 5.98523 6.21942 5.00424 6.04368 4.61261Z" fill="white"/>
</g>
<defs>
<linearGradient id="paint0_linear_1068_6422" x1="8.00191" y1="15.7214" x2="8.00191" y2="0.276803" gradientUnits="userSpaceOnUse">
<stop stop-color="#20B038"/>
<stop offset="1" stop-color="#60D66A"/>
</linearGradient>
<linearGradient id="paint1_linear_1068_6422" x1="8.00156" y1="15.9985" x2="8.00156" y2="0" gradientUnits="userSpaceOnUse">
<stop stop-color="#F9F9F9"/>
<stop offset="1" stop-color="white"/>
</linearGradient>
<clipPath id="clip0_1068_6422">
<rect width="16" height="16" rx="4" fill="white"/>
</clipPath>
</defs>
</svg>
