<svg width="56" height="56" viewBox="0 0 56 56" fill="none" xmlns="http://www.w3.org/2000/svg">
<rect width="56" height="56" rx="28" fill="#E5F6FF"/>
<path fill-rule="evenodd" clip-rule="evenodd" d="M28 19C23.0294 19 19 23.0294 19 28C19 32.9706 23.0294 37 28 37C32.9706 37 37 32.9706 37 28C37 23.0294 32.9706 19 28 19ZM17 28C17 21.9249 21.9249 17 28 17C34.0751 17 39 21.9249 39 28C39 34.0751 34.0751 39 28 39C21.9249 39 17 34.0751 17 28ZM27 24C27 23.4477 27.4477 23 28 23H28.01C28.5623 23 29.01 23.4477 29.01 24C29.01 24.5523 28.5623 25 28.01 25H28C27.4477 25 27 24.5523 27 24ZM28 27C28.5523 27 29 27.4477 29 28V32C29 32.5523 28.5523 33 28 33C27.4477 33 27 32.5523 27 32V28C27 27.4477 27.4477 27 28 27Z" fill="#00A3FF"/>
</svg>
