<svg width="64" height="64" viewBox="0 0 64 64" fill="none" xmlns="http://www.w3.org/2000/svg">
<rect width="64" height="64" rx="32" fill="#F2F4F7"/>
<path d="M34.667 27.9998H31.3337C30.2291 27.9998 29.3337 28.8953 29.3337 29.9998C29.3337 31.1044 30.2291 31.9998 31.3337 31.9998H32.667C33.7716 31.9998 34.667 32.8953 34.667 33.9998C34.667 35.1044 33.7716 35.9998 32.667 35.9998H29.3337M32.0003 26.6665V27.9998M32.0003 35.9998V37.3332M40.0003 31.9998H40.0137M24.0003 31.9998H24.0137M18.667 26.9332L18.667 37.0665C18.667 38.56 18.667 39.3067 18.9576 39.8771C19.2133 40.3789 19.6213 40.7869 20.123 41.0425C20.6934 41.3332 21.4402 41.3332 22.9337 41.3332L41.067 41.3332C42.5605 41.3332 43.3072 41.3332 43.8776 41.0425C44.3794 40.7869 44.7873 40.3789 45.043 39.8771C45.3337 39.3067 45.3337 38.56 45.3337 37.0665V26.9332C45.3337 25.4397 45.3337 24.693 45.043 24.1225C44.7874 23.6208 44.3794 23.2128 43.8776 22.9572C43.3072 22.6665 42.5605 22.6665 41.067 22.6665L22.9337 22.6665C21.4402 22.6665 20.6934 22.6665 20.123 22.9572C19.6213 23.2128 19.2133 23.6208 18.9576 24.1225C18.667 24.693 18.667 25.4397 18.667 26.9332ZM40.667 31.9998C40.667 32.368 40.3685 32.6665 40.0003 32.6665C39.6321 32.6665 39.3337 32.368 39.3337 31.9998C39.3337 31.6316 39.6321 31.3332 40.0003 31.3332C40.3685 31.3332 40.667 31.6316 40.667 31.9998ZM24.667 31.9998C24.667 32.368 24.3685 32.6665 24.0003 32.6665C23.6321 32.6665 23.3337 32.368 23.3337 31.9998C23.3337 31.6316 23.6321 31.3332 24.0003 31.3332C24.3685 31.3332 24.667 31.6316 24.667 31.9998Z" stroke="#667085" stroke-width="2.5" stroke-linecap="round" stroke-linejoin="round"/>
</svg>
