<svg width="32" height="32" viewBox="0 0 32 32" fill="none" xmlns="http://www.w3.org/2000/svg">
<rect width="32" height="32" rx="16" fill="#FBFAFA"/>
<path d="M24.3333 23.5V21.8333C24.3333 20.2801 23.271 18.9751 21.8333 18.605M18.9166 8.7423C20.1382 9.23679 21 10.4344 21 11.8333C21 13.2322 20.1382 14.4299 18.9166 14.9244M20.1666 23.5C20.1666 21.9469 20.1666 21.1703 19.9129 20.5577C19.5746 19.741 18.9257 19.092 18.1089 18.7537C17.4963 18.5 16.7198 18.5 15.1666 18.5H12.6666C11.1135 18.5 10.3369 18.5 9.72435 18.7537C8.90759 19.092 8.25867 19.741 7.92036 20.5577C7.66663 21.1703 7.66663 21.9469 7.66663 23.5M17.25 11.8333C17.25 13.6743 15.7576 15.1667 13.9166 15.1667C12.0757 15.1667 10.5833 13.6743 10.5833 11.8333C10.5833 9.99238 12.0757 8.5 13.9166 8.5C15.7576 8.5 17.25 9.99238 17.25 11.8333Z" stroke="#3E3E3E" stroke-width="1.66667" stroke-linecap="round" stroke-linejoin="round"/>
</svg>
