<svg width="15" height="12" viewBox="0 0 15 12" fill="none" xmlns="http://www.w3.org/2000/svg">
<path d="M14.1663 4.66668H0.833008M6.83301 7.33334H3.49967M0.833008 3.46668L0.833008 8.53334C0.833008 9.28008 0.833008 9.65345 0.978332 9.93866C1.10616 10.1895 1.31014 10.3935 1.56102 10.5214C1.84624 10.6667 2.2196 10.6667 2.96634 10.6667L12.033 10.6667C12.7797 10.6667 13.1531 10.6667 13.4383 10.5214C13.6892 10.3935 13.8932 10.1895 14.021 9.93866C14.1663 9.65345 14.1663 9.28008 14.1663 8.53334V3.46668C14.1663 2.71994 14.1663 2.34657 14.021 2.06136C13.8932 1.81047 13.6892 1.6065 13.4383 1.47867C13.1531 1.33334 12.7797 1.33334 12.033 1.33334L2.96634 1.33334C2.2196 1.33334 1.84624 1.33334 1.56102 1.47867C1.31014 1.6065 1.10616 1.81047 0.978333 2.06136C0.833008 2.34657 0.833008 2.71994 0.833008 3.46668Z" stroke="#2D2D2C" stroke-width="1.2" stroke-linecap="round" stroke-linejoin="round"/>
</svg>
