<svg width="16" height="12" viewBox="0 0 16 12" fill="none" xmlns="http://www.w3.org/2000/svg">
<path d="M14.6663 4.66665H1.33301M7.33301 7.33331H3.99967M1.33301 3.46665L1.33301 8.53331C1.33301 9.28005 1.33301 9.65342 1.47833 9.93863C1.60616 10.1895 1.81014 10.3935 2.06102 10.5213C2.34624 10.6666 2.7196 10.6666 3.46634 10.6666L12.533 10.6666C13.2797 10.6666 13.6531 10.6666 13.9383 10.5213C14.1892 10.3935 14.3932 10.1895 14.521 9.93863C14.6663 9.65342 14.6663 9.28005 14.6663 8.53331V3.46665C14.6663 2.71991 14.6663 2.34654 14.521 2.06133C14.3932 1.81044 14.1892 1.60647 13.9383 1.47864C13.6531 1.33331 13.2797 1.33331 12.533 1.33331L3.46634 1.33331C2.7196 1.33331 2.34624 1.33331 2.06102 1.47864C1.81014 1.60647 1.60616 1.81044 1.47833 2.06133C1.33301 2.34654 1.33301 2.71991 1.33301 3.46665Z" stroke="white" stroke-width="1.2" stroke-linecap="round" stroke-linejoin="round"/>
</svg>
