<svg width="14" height="13" viewBox="0 0 14 13" fill="none" xmlns="http://www.w3.org/2000/svg">
<path fill-rule="evenodd" clip-rule="evenodd" d="M7.00004 1.25016C4.10055 1.25016 1.75004 3.60067 1.75004 6.50016C1.75004 9.39966 4.10055 11.7502 7.00004 11.7502C9.89954 11.7502 12.25 9.39966 12.25 6.50016C12.25 3.60067 9.89954 1.25016 7.00004 1.25016ZM0.583374 6.50016C0.583374 2.95634 3.45621 0.0834961 7.00004 0.0834961C10.5439 0.0834961 13.4167 2.95634 13.4167 6.50016C13.4167 10.044 10.5439 12.9168 7.00004 12.9168C3.45621 12.9168 0.583374 10.044 0.583374 6.50016ZM6.41671 4.16683C6.41671 3.84466 6.67787 3.5835 7.00004 3.5835H7.00587C7.32804 3.5835 7.58921 3.84466 7.58921 4.16683C7.58921 4.489 7.32804 4.75016 7.00587 4.75016H7.00004C6.67787 4.75016 6.41671 4.489 6.41671 4.16683ZM7.00004 5.91683C7.32221 5.91683 7.58337 6.178 7.58337 6.50016V8.8335C7.58337 9.15566 7.32221 9.41683 7.00004 9.41683C6.67787 9.41683 6.41671 9.15566 6.41671 8.8335V6.50016C6.41671 6.178 6.67787 5.91683 7.00004 5.91683Z" fill="#00A3FF"/>
</svg>
