<svg width="32" height="32" viewBox="0 0 32 32" fill="none" xmlns="http://www.w3.org/2000/svg">
<path d="M3.33272 12H28.666M13.3327 4L10.666 12L15.9994 27.3333L21.3327 12L18.666 4M16.8188 27.0167L28.7637 12.6829C28.9661 12.4399 29.0673 12.3185 29.106 12.1829C29.1401 12.0633 29.1401 11.9367 29.106 11.8171C29.0673 11.6815 28.9661 11.5601 28.7637 11.3171L22.9859 4.3838C22.8683 4.24273 22.8095 4.17219 22.7375 4.12148C22.6736 4.07654 22.6024 4.04318 22.527 4.02289C22.4419 4 22.3501 4 22.1664 4H9.83232C9.64867 4 9.55685 4 9.47176 4.02289C9.39637 4.04318 9.32513 4.07654 9.26128 4.12148C9.18923 4.17219 9.13044 4.24273 9.01288 4.3838L3.2351 11.3171C3.03266 11.5601 2.93144 11.6815 2.89276 11.8171C2.85866 11.9366 2.85866 12.0633 2.89276 12.1829C2.93144 12.3185 3.03266 12.4399 3.2351 12.6829L15.1799 27.0167C15.4614 27.3544 15.6021 27.5232 15.7705 27.5848C15.9183 27.6388 16.0805 27.6388 16.2282 27.5848C16.3967 27.5232 16.5374 27.3544 16.8188 27.0167Z" stroke="#989796" stroke-width="2" stroke-linecap="round" stroke-linejoin="round"/>
</svg>
