<svg width="16" height="16" viewBox="0 0 16 16" fill="none" xmlns="http://www.w3.org/2000/svg">
<path d="M10.6673 5.33357V8.6669C10.6673 9.19734 10.878 9.70605 11.2531 10.0811C11.6282 10.4562 12.1369 10.6669 12.6673 10.6669C13.1978 10.6669 13.7065 10.4562 14.0815 10.0811C14.4566 9.70605 14.6673 9.19734 14.6673 8.6669V8.00024C14.6672 6.49559 14.1581 5.03522 13.2228 3.85659C12.2875 2.67796 10.981 1.85039 9.51575 1.50844C8.05048 1.16648 6.51261 1.33027 5.15222 1.97315C3.79183 2.61603 2.68892 3.70021 2.02283 5.04939C1.35674 6.39856 1.16663 7.9334 1.48344 9.40431C1.80024 10.8752 2.60531 12.1957 3.76774 13.1511C4.93018 14.1064 6.38161 14.6405 7.88604 14.6663C9.39046 14.6922 10.8594 14.2084 12.054 13.2936M10.6673 8.00024C10.6673 9.473 9.47342 10.6669 8.00066 10.6669C6.5279 10.6669 5.33399 9.473 5.33399 8.00024C5.33399 6.52748 6.5279 5.33357 8.00066 5.33357C9.47342 5.33357 10.6673 6.52748 10.6673 8.00024Z" stroke="#3E3E3E" stroke-width="1.33333" stroke-linecap="round" stroke-linejoin="round"/>
</svg>
