<svg width="14" height="12" viewBox="0 0 14 12" fill="none" xmlns="http://www.w3.org/2000/svg">
<path d="M12.5417 9.49968L8.66675 5.99967M5.33341 5.99967L1.45844 9.49968M1.16675 3.08301L5.92962 6.41702C6.3153 6.68699 6.50814 6.82198 6.7179 6.87427C6.90319 6.92046 7.09698 6.92046 7.28226 6.87427C7.49202 6.82198 7.68486 6.687 8.07054 6.41702L12.8334 3.08301M3.96675 10.6663H10.0334C11.0135 10.6663 11.5036 10.6663 11.8779 10.4756C12.2072 10.3078 12.4749 10.0401 12.6427 9.71083C12.8334 9.33648 12.8334 8.84643 12.8334 7.86634V4.13301C12.8334 3.15292 12.8334 2.66287 12.6427 2.28852C12.4749 1.95924 12.2072 1.69152 11.8779 1.52375C11.5036 1.33301 11.0135 1.33301 10.0334 1.33301H3.96675C2.98666 1.33301 2.49661 1.33301 2.12226 1.52375C1.79298 1.69152 1.52527 1.95924 1.35749 2.28852C1.16675 2.66287 1.16675 3.15292 1.16675 4.13301V7.86634C1.16675 8.84643 1.16675 9.33648 1.35749 9.71083C1.52527 10.0401 1.79298 10.3078 2.12226 10.4756C2.49661 10.6663 2.98666 10.6663 3.96675 10.6663Z" stroke="#667085" stroke-width="1.2" stroke-linecap="round" stroke-linejoin="round"/>
</svg>
