<svg width="18" height="16" viewBox="0 0 18 16" fill="none" xmlns="http://www.w3.org/2000/svg">
<path d="M8.99982 5.7492V8.7492M8.99982 11.7492H9.00732M7.9613 1.91799L1.79264 12.573C1.45049 13.1639 1.27941 13.4594 1.30469 13.702C1.32675 13.9135 1.43758 14.1057 1.60959 14.2308C1.80681 14.3742 2.14826 14.3742 2.83115 14.3742H15.1685C15.8514 14.3742 16.1928 14.3742 16.39 14.2308C16.5621 14.1057 16.6729 13.9135 16.6949 13.702C16.7202 13.4594 16.5491 13.1639 16.207 12.573L10.0383 1.91799C9.6974 1.32911 9.52694 1.03468 9.30454 0.935789C9.11055 0.849529 8.88908 0.849529 8.69509 0.935789C8.47269 1.03468 8.30223 1.32912 7.9613 1.91799Z" stroke="#C61616" stroke-width="1.5" stroke-linecap="round" stroke-linejoin="round"/>
</svg>
