<svg width="16" height="16" viewBox="0 0 16 16" fill="none" xmlns="http://www.w3.org/2000/svg">
<path fill-rule="evenodd" clip-rule="evenodd" d="M8.00002 1.99935C4.68631 1.99935 2.00002 4.68564 2.00002 7.99935C2.00002 11.3131 4.68631 13.9993 8.00002 13.9993C11.3137 13.9993 14 11.3131 14 7.99935C14 4.68564 11.3137 1.99935 8.00002 1.99935ZM0.666687 7.99935C0.666687 3.94926 3.94993 0.666016 8.00002 0.666016C12.0501 0.666016 15.3334 3.94926 15.3334 7.99935C15.3334 12.0494 12.0501 15.3327 8.00002 15.3327C3.94993 15.3327 0.666687 12.0494 0.666687 7.99935ZM7.33335 5.33268C7.33335 4.96449 7.63183 4.66602 8.00002 4.66602H8.00669C8.37488 4.66602 8.67335 4.96449 8.67335 5.33268C8.67335 5.70087 8.37488 5.99935 8.00669 5.99935H8.00002C7.63183 5.99935 7.33335 5.70087 7.33335 5.33268ZM8.00002 7.33268C8.36821 7.33268 8.66669 7.63116 8.66669 7.99935V10.666C8.66669 11.0342 8.36821 11.3327 8.00002 11.3327C7.63183 11.3327 7.33335 11.0342 7.33335 10.666V7.99935C7.33335 7.63116 7.63183 7.33268 8.00002 7.33268Z" fill="#3E3E3E"/>
</svg>
