<svg width="44" height="44" viewBox="0 0 44 44" fill="none" xmlns="http://www.w3.org/2000/svg">
<rect width="44" height="44" rx="22" fill="#FDF77D"/>
<path d="M26.6667 17.3334V13.2508C26.6667 12.2804 26.6667 11.7953 26.4623 11.4971C26.2837 11.2366 26.0071 11.0596 25.6957 11.0066C25.3393 10.946 24.8988 11.1493 24.0178 11.556L13.6688 16.3324C12.8831 16.695 12.4902 16.8764 12.2025 17.1576C11.9481 17.4062 11.7539 17.7097 11.6348 18.0448C11.5 18.424 11.5 18.8567 11.5 19.7221V25.5M27.25 24.9167H27.2617M11.5 21.0667L11.5 28.7667C11.5 30.0735 11.5 30.7269 11.7543 31.226C11.978 31.6651 12.335 32.022 12.774 32.2457C13.2731 32.5 13.9265 32.5 15.2333 32.5H28.7667C30.0735 32.5 30.7268 32.5 31.226 32.2457C31.665 32.022 32.022 31.6651 32.2457 31.226C32.5 30.7269 32.5 30.0735 32.5 28.7667V21.0667C32.5 19.7599 32.5 19.1065 32.2457 18.6074C32.022 18.1684 31.665 17.8114 31.226 17.5877C30.7269 17.3334 30.0735 17.3334 28.7667 17.3334L15.2333 17.3334C13.9265 17.3334 13.2731 17.3334 12.774 17.5877C12.335 17.8114 11.978 18.1684 11.7543 18.6074C11.5 19.1065 11.5 19.7599 11.5 21.0667ZM27.8333 24.9167C27.8333 25.2389 27.5722 25.5 27.25 25.5C26.9278 25.5 26.6667 25.2389 26.6667 24.9167C26.6667 24.5945 26.9278 24.3334 27.25 24.3334C27.5722 24.3334 27.8333 24.5945 27.8333 24.9167Z" stroke="#344054" stroke-width="1.5" stroke-linecap="round" stroke-linejoin="round"/>
</svg>
