<svg width="12" height="11" viewBox="0 0 12 11" fill="none" xmlns="http://www.w3.org/2000/svg">
<path d="M5.9989 4.50012V6.50012M5.9989 8.50012H6.0039M5.30656 1.94598L1.19412 9.04929C0.966015 9.44328 0.851963 9.64028 0.86882 9.80196C0.883523 9.94299 0.957408 10.0711 1.07209 10.1545C1.20357 10.2501 1.4312 10.2501 1.88646 10.2501H10.1113C10.5666 10.2501 10.7942 10.2501 10.9257 10.1545C11.0404 10.0711 11.1143 9.94299 11.129 9.80196C11.1458 9.64028 11.0318 9.44328 10.8037 9.04929L6.69124 1.94598C6.46396 1.55339 6.35032 1.3571 6.20205 1.29118C6.07272 1.23367 5.92508 1.23367 5.79575 1.29118C5.64749 1.3571 5.53384 1.55339 5.30656 1.94598Z" stroke="#C61616" stroke-linecap="round" stroke-linejoin="round"/>
</svg>
