<svg width="30" height="30" viewBox="0 0 30 30" fill="none" xmlns="http://www.w3.org/2000/svg">
<path d="M20.3337 20.3333C20.3337 20.3333 18.3337 17.6667 15.0003 17.6667C11.667 17.6667 9.66699 20.3333 9.66699 20.3333M21.667 11.32C21.1403 11.9667 20.4203 12.3333 19.667 12.3333C18.9137 12.3333 18.2137 11.9667 17.667 11.32M12.3337 11.32C11.807 11.9667 11.087 12.3333 10.3337 12.3333C9.58033 12.3333 8.88033 11.9667 8.33366 11.32M28.3337 15C28.3337 22.3638 22.3641 28.3333 15.0003 28.3333C7.63653 28.3333 1.66699 22.3638 1.66699 15C1.66699 7.6362 7.63653 1.66667 15.0003 1.66667C22.3641 1.66667 28.3337 7.6362 28.3337 15Z" stroke="#777675" stroke-width="2.5" stroke-linecap="round" stroke-linejoin="round"/>
</svg>
