<svg width="16" height="16" viewBox="0 0 16 16" fill="none" xmlns="http://www.w3.org/2000/svg">
<rect width="16" height="16" rx="8" fill="#EAECF0"/>
<g clip-path="url(#clip0_2786_5721)">
<path d="M10 6.00016V4.25049C10 3.83462 10 3.62668 9.9124 3.49889C9.83586 3.38725 9.71732 3.31141 9.58388 3.2887C9.43114 3.26271 9.24235 3.34984 8.86475 3.52412L4.42951 5.57115C4.09275 5.72658 3.92438 5.80429 3.80105 5.92482C3.69203 6.03137 3.60881 6.16143 3.55775 6.30507C3.5 6.46755 3.5 6.653 3.5 7.02389V9.50016M10.25 9.25016H10.255M3.5 7.60016L3.5 10.9002C3.5 11.4602 3.5 11.7402 3.60899 11.9541C3.70487 12.1423 3.85785 12.2953 4.04601 12.3912C4.25992 12.5002 4.53995 12.5002 5.1 12.5002H10.9C11.4601 12.5002 11.7401 12.5002 11.954 12.3912C12.1422 12.2953 12.2951 12.1423 12.391 11.9541C12.5 11.7402 12.5 11.4602 12.5 10.9002V7.60016C12.5 7.04011 12.5 6.76008 12.391 6.54617C12.2951 6.35801 12.1422 6.20503 11.954 6.10915C11.7401 6.00016 11.4601 6.00016 10.9 6.00016L5.1 6.00016C4.53995 6.00016 4.25992 6.00016 4.04601 6.10915C3.85785 6.20502 3.70487 6.35801 3.60899 6.54617C3.5 6.76008 3.5 7.04011 3.5 7.60016ZM10.5 9.25016C10.5 9.38823 10.3881 9.50016 10.25 9.50016C10.1119 9.50016 10 9.38823 10 9.25016C10 9.11209 10.1119 9.00016 10.25 9.00016C10.3881 9.00016 10.5 9.11209 10.5 9.25016Z" stroke="#2D2D2C" stroke-width="1.5" stroke-linecap="round" stroke-linejoin="round"/>
</g>
<defs>
<clipPath id="clip0_2786_5721">
<rect width="12" height="12" fill="white" transform="translate(2 2)"/>
</clipPath>
</defs>
</svg>
