<svg width="14" height="13" viewBox="0 0 14 13" fill="none" xmlns="http://www.w3.org/2000/svg">
<path d="M6.99985 4.75013V7.08347M6.99985 9.4168H7.00568M6.19212 1.77031L1.39427 10.0575C1.12815 10.5172 0.995086 10.747 1.01475 10.9356C1.03191 11.1002 1.1181 11.2497 1.2519 11.3469C1.40529 11.4585 1.67086 11.4585 2.202 11.4585H11.7977C12.3288 11.4585 12.5944 11.4585 12.7478 11.3469C12.8816 11.2497 12.9678 11.1002 12.9849 10.9356C13.0046 10.747 12.8715 10.5172 12.6054 10.0575L7.80758 1.7703C7.54241 1.31229 7.40983 1.08329 7.23685 1.00637C7.08597 0.939282 6.91372 0.939282 6.76284 1.00637C6.58986 1.08329 6.45728 1.31229 6.19212 1.77031Z" stroke="#E9740B" stroke-width="1.5" stroke-linecap="round" stroke-linejoin="round"/>
</svg>
