<svg width="44" height="44" viewBox="0 0 44 44" fill="none" xmlns="http://www.w3.org/2000/svg">
<rect width="44" height="44" rx="22" fill="#FDF77D"/>
<path d="M23.7851 17.7438C23.1172 18.2199 22.3 18.4999 21.4173 18.4999C19.1622 18.4999 17.334 16.6717 17.334 14.4166C17.334 12.1614 19.1622 10.3333 21.4173 10.3333C22.8791 10.3333 24.1615 11.1014 24.8829 12.2561M15.0007 31.4349H18.046C18.443 31.4349 18.8377 31.4822 19.2226 31.5767L22.4404 32.3586C23.1386 32.5287 23.8659 32.5452 24.5714 32.4082L28.1291 31.7161C29.069 31.533 29.9335 31.0829 30.611 30.4238L33.1282 27.9752C33.847 27.2772 33.847 26.1444 33.1282 25.4452C32.481 24.8156 31.4562 24.7447 30.724 25.2786L27.7903 27.4189C27.3702 27.726 26.859 27.8914 26.3332 27.8914H23.5004L25.3036 27.8913C26.3199 27.8913 27.1432 27.0905 27.1432 26.1018V25.7439C27.1432 24.923 26.5688 24.2072 25.7504 24.0088L22.9673 23.332C22.5144 23.2221 22.0506 23.1666 21.5843 23.1666C20.4587 23.1666 18.4212 24.0985 18.4212 24.0985L15.0007 25.5289M31.334 15.5833C31.334 17.8384 29.5058 19.6666 27.2507 19.6666C24.9955 19.6666 23.1673 17.8384 23.1673 15.5833C23.1673 13.3281 24.9955 11.4999 27.2507 11.4999C29.5058 11.4999 31.334 13.3281 31.334 15.5833ZM10.334 25.0333L10.334 31.7999C10.334 32.4533 10.334 32.78 10.4611 33.0296C10.573 33.2491 10.7515 33.4276 10.971 33.5394C11.2206 33.6666 11.5473 33.6666 12.2007 33.6666H13.134C13.7874 33.6666 14.1141 33.6666 14.3636 33.5394C14.5832 33.4276 14.7616 33.2491 14.8735 33.0296C15.0007 32.78 15.0007 32.4533 15.0007 31.7999V25.0333C15.0007 24.3799 15.0007 24.0532 14.8735 23.8036C14.7616 23.5841 14.5832 23.4056 14.3636 23.2937C14.1141 23.1666 13.7874 23.1666 13.134 23.1666L12.2007 23.1666C11.5473 23.1666 11.2206 23.1666 10.971 23.2937C10.7515 23.4056 10.573 23.5841 10.4611 23.8036C10.334 24.0532 10.334 24.3799 10.334 25.0333Z" stroke="#344054" stroke-width="1.5" stroke-linecap="round" stroke-linejoin="round"/>
</svg>
